M48
; DRILL file {KiCad 5.1.10-88a1d61d58~88~ubuntu18.04.1} date Mon Jul 26 17:39:42 2021
; FORMAT={-:-/ absolute / inch / decimal}
; #@! TF.CreationDate,2021-07-26T17:39:42+07:00
; #@! TF.GenerationSoftware,Kicad,Pcbnew,5.1.10-88a1d61d58~88~ubuntu18.04.1
FMAT,2
INCH
T1C0.0157
T2C0.0394
T3C0.1260
%
G90
G05
T1
X5.436Y-3.115
X5.436Y-3.1545
X5.8396Y-4.131
X5.9825Y-3.1135
X5.9825Y-3.151
X6.0165Y-4.243
X6.0535Y-4.001
X6.054Y-3.8475
X6.054Y-3.9155
X6.142Y-4.244
X6.1515Y-4.0
X6.2925Y-4.243
X6.375Y-3.917
X6.533Y-3.111
X6.533Y-3.1485
X6.665Y-4.1325
X7.086Y-3.112
X7.086Y-3.151
T2
X5.71Y-3.8665
X5.71Y-3.9665
X5.712Y-3.4205
X5.712Y-3.5205
X5.712Y-3.6205
X5.712Y-3.7205
X6.7975Y-3.431
X6.7975Y-3.531
X6.7975Y-3.631
X6.7975Y-3.731
X6.799Y-3.874
X6.799Y-3.974
T3
X4.694Y-3.8065
X7.813Y-3.8055
T0
M30
