%TF.GenerationSoftware,KiCad,Pcbnew,5.1.10-88a1d61d58~88~ubuntu18.04.1*%
%TF.CreationDate,2021-07-26T17:30:53+07:00*%
%TF.ProjectId,ADV728xM_EVAL_SMA-FFC_AETINA_ACE_CAM6C,41445637-3238-4784-9d5f-4556414c5f53,rev?*%
%TF.SameCoordinates,Original*%
%TF.FileFunction,Legend,Top*%
%TF.FilePolarity,Positive*%
%FSLAX46Y46*%
G04 Gerber Fmt 4.6, Leading zero omitted, Abs format (unit mm)*
G04 Created by KiCad (PCBNEW 5.1.10-88a1d61d58~88~ubuntu18.04.1) date 2021-07-26 17:30:53*
%MOMM*%
%LPD*%
G01*
G04 APERTURE LIST*
%ADD10C,0.120000*%
%ADD11C,0.200000*%
%ADD12C,0.127000*%
%ADD13C,0.100000*%
%ADD14C,0.150000*%
G04 APERTURE END LIST*
D10*
%TO.C,R2*%
X151004536Y-96966100D02*
X151458664Y-96966100D01*
X151004536Y-98436100D02*
X151458664Y-98436100D01*
%TO.C,R1*%
X151010376Y-98901580D02*
X151464504Y-98901580D01*
X151010376Y-100371580D02*
X151464504Y-100371580D01*
D11*
%TO.C,J9*%
X150121400Y-107492400D02*
G75*
G03*
X150121400Y-107492400I-100000J0D01*
G01*
D12*
X147275400Y-103177400D02*
X146925400Y-103177400D01*
X146925400Y-103177400D02*
X146925400Y-106477400D01*
X146925400Y-106477400D02*
X147275400Y-106477400D01*
X170275400Y-103177400D02*
X170625400Y-103177400D01*
X170625400Y-103177400D02*
X170625400Y-106477400D01*
X170625400Y-106477400D02*
X170275400Y-106477400D01*
D10*
%TO.C,J6*%
X173986500Y-96097400D02*
X172656500Y-96097400D01*
X173986500Y-94767400D02*
X173986500Y-96097400D01*
X173986500Y-93497400D02*
X171326500Y-93497400D01*
X171326500Y-93497400D02*
X171326500Y-85817400D01*
X173986500Y-93497400D02*
X173986500Y-85817400D01*
X173986500Y-85817400D02*
X171326500Y-85817400D01*
D11*
%TO.C,J3*%
X166050900Y-82419400D02*
G75*
G03*
X166050900Y-82419400I-100000J0D01*
G01*
D12*
X167450900Y-81229200D02*
X168750900Y-81229200D01*
X163150900Y-81229200D02*
X164450900Y-81229200D01*
D11*
%TO.C,J4*%
X180097100Y-82419400D02*
G75*
G03*
X180097100Y-82419400I-100000J0D01*
G01*
D12*
X181497100Y-81229200D02*
X182797100Y-81229200D01*
X177197100Y-81229200D02*
X178497100Y-81229200D01*
D11*
%TO.C,J1*%
X138161700Y-82470200D02*
G75*
G03*
X138161700Y-82470200I-100000J0D01*
G01*
D12*
X139561700Y-81280000D02*
X140861700Y-81280000D01*
X135261700Y-81280000D02*
X136561700Y-81280000D01*
D11*
%TO.C,J2*%
X152080900Y-82419400D02*
G75*
G03*
X152080900Y-82419400I-100000J0D01*
G01*
D12*
X153480900Y-81229200D02*
X154780900Y-81229200D01*
X149180900Y-81229200D02*
X150480900Y-81229200D01*
D10*
%TO.C,C2*%
X151237733Y-95502000D02*
X151530267Y-95502000D01*
X151237733Y-96522000D02*
X151530267Y-96522000D01*
%TO.C,C1*%
X162904387Y-97605120D02*
X162611853Y-97605120D01*
X162904387Y-98625120D02*
X162611853Y-98625120D01*
%TO.C,J5*%
X146414800Y-85550700D02*
X143754800Y-85550700D01*
X146414800Y-93230700D02*
X146414800Y-85550700D01*
X143754800Y-93230700D02*
X143754800Y-85550700D01*
X146414800Y-93230700D02*
X143754800Y-93230700D01*
X146414800Y-94500700D02*
X146414800Y-95830700D01*
X146414800Y-95830700D02*
X145084800Y-95830700D01*
%TO.C,J8*%
X174024600Y-97069600D02*
X171364600Y-97069600D01*
X174024600Y-99669600D02*
X174024600Y-97069600D01*
X171364600Y-99669600D02*
X171364600Y-97069600D01*
X174024600Y-99669600D02*
X171364600Y-99669600D01*
X174024600Y-100939600D02*
X174024600Y-102269600D01*
X174024600Y-102269600D02*
X172694600Y-102269600D01*
%TO.C,J7*%
X146364000Y-102079100D02*
X145034000Y-102079100D01*
X146364000Y-100749100D02*
X146364000Y-102079100D01*
X146364000Y-99479100D02*
X143704000Y-99479100D01*
X143704000Y-99479100D02*
X143704000Y-96879100D01*
X146364000Y-99479100D02*
X146364000Y-96879100D01*
X146364000Y-96879100D02*
X143704000Y-96879100D01*
D13*
%TO.C,U1*%
G36*
X154978100Y-94041201D02*
G01*
X154978100Y-93660201D01*
X155232100Y-93660201D01*
X155232100Y-94041201D01*
X154978100Y-94041201D01*
G37*
X154978100Y-94041201D02*
X154978100Y-93660201D01*
X155232100Y-93660201D01*
X155232100Y-94041201D01*
X154978100Y-94041201D01*
D10*
X156718000Y-96961239D02*
X156718000Y-97180400D01*
X161366200Y-92040161D02*
X161366200Y-91821000D01*
X161366200Y-97180400D02*
X161366200Y-96961241D01*
X156718000Y-97180400D02*
X161366200Y-97180400D01*
X156718000Y-91821000D02*
X156718000Y-92040159D01*
X161366200Y-91821000D02*
X156718000Y-91821000D01*
%TO.C,H2*%
D14*
X197688295Y-92912080D02*
X197688295Y-91912080D01*
X197688295Y-92388271D02*
X198259723Y-92388271D01*
X198259723Y-92912080D02*
X198259723Y-91912080D01*
X198688295Y-92007319D02*
X198735914Y-91959700D01*
X198831152Y-91912080D01*
X199069247Y-91912080D01*
X199164485Y-91959700D01*
X199212104Y-92007319D01*
X199259723Y-92102557D01*
X199259723Y-92197795D01*
X199212104Y-92340652D01*
X198640676Y-92912080D01*
X199259723Y-92912080D01*
%TO.C,H1*%
X118465695Y-92937480D02*
X118465695Y-91937480D01*
X118465695Y-92413671D02*
X119037123Y-92413671D01*
X119037123Y-92937480D02*
X119037123Y-91937480D01*
X120037123Y-92937480D02*
X119465695Y-92937480D01*
X119751409Y-92937480D02*
X119751409Y-91937480D01*
X119656171Y-92080338D01*
X119560933Y-92175576D01*
X119465695Y-92223195D01*
%TO.C,R2*%
X148207433Y-98242380D02*
X147874100Y-97766190D01*
X147636004Y-98242380D02*
X147636004Y-97242380D01*
X148016957Y-97242380D01*
X148112195Y-97290000D01*
X148159814Y-97337619D01*
X148207433Y-97432857D01*
X148207433Y-97575714D01*
X148159814Y-97670952D01*
X148112195Y-97718571D01*
X148016957Y-97766190D01*
X147636004Y-97766190D01*
X148588385Y-97337619D02*
X148636004Y-97290000D01*
X148731242Y-97242380D01*
X148969338Y-97242380D01*
X149064576Y-97290000D01*
X149112195Y-97337619D01*
X149159814Y-97432857D01*
X149159814Y-97528095D01*
X149112195Y-97670952D01*
X148540766Y-98242380D01*
X149159814Y-98242380D01*
%TO.C,R1*%
X148238673Y-100482660D02*
X147905340Y-100006470D01*
X147667244Y-100482660D02*
X147667244Y-99482660D01*
X148048197Y-99482660D01*
X148143435Y-99530280D01*
X148191054Y-99577899D01*
X148238673Y-99673137D01*
X148238673Y-99815994D01*
X148191054Y-99911232D01*
X148143435Y-99958851D01*
X148048197Y-100006470D01*
X147667244Y-100006470D01*
X149191054Y-100482660D02*
X148619625Y-100482660D01*
X148905340Y-100482660D02*
X148905340Y-99482660D01*
X148810101Y-99625518D01*
X148714863Y-99720756D01*
X148619625Y-99768375D01*
%TO.C,J9*%
X144513333Y-104641704D02*
X144513333Y-105213133D01*
X144475238Y-105327419D01*
X144399047Y-105403609D01*
X144284761Y-105441704D01*
X144208571Y-105441704D01*
X144932380Y-105441704D02*
X145084761Y-105441704D01*
X145160952Y-105403609D01*
X145199047Y-105365514D01*
X145275238Y-105251228D01*
X145313333Y-105098847D01*
X145313333Y-104794085D01*
X145275238Y-104717895D01*
X145237142Y-104679800D01*
X145160952Y-104641704D01*
X145008571Y-104641704D01*
X144932380Y-104679800D01*
X144894285Y-104717895D01*
X144856190Y-104794085D01*
X144856190Y-104984561D01*
X144894285Y-105060752D01*
X144932380Y-105098847D01*
X145008571Y-105136942D01*
X145160952Y-105136942D01*
X145237142Y-105098847D01*
X145275238Y-105060752D01*
X145313333Y-104984561D01*
%TO.C,J6*%
X175587066Y-94372180D02*
X175587066Y-95086466D01*
X175539447Y-95229323D01*
X175444209Y-95324561D01*
X175301352Y-95372180D01*
X175206114Y-95372180D01*
X176491828Y-94372180D02*
X176301352Y-94372180D01*
X176206114Y-94419800D01*
X176158495Y-94467419D01*
X176063257Y-94610276D01*
X176015638Y-94800752D01*
X176015638Y-95181704D01*
X176063257Y-95276942D01*
X176110876Y-95324561D01*
X176206114Y-95372180D01*
X176396590Y-95372180D01*
X176491828Y-95324561D01*
X176539447Y-95276942D01*
X176587066Y-95181704D01*
X176587066Y-94943609D01*
X176539447Y-94848371D01*
X176491828Y-94800752D01*
X176396590Y-94753133D01*
X176206114Y-94753133D01*
X176110876Y-94800752D01*
X176063257Y-94848371D01*
X176015638Y-94943609D01*
%TO.C,J3*%
X161261466Y-82764380D02*
X161261466Y-83478666D01*
X161213847Y-83621523D01*
X161118609Y-83716761D01*
X160975752Y-83764380D01*
X160880514Y-83764380D01*
X161642419Y-82764380D02*
X162261466Y-82764380D01*
X161928133Y-83145333D01*
X162070990Y-83145333D01*
X162166228Y-83192952D01*
X162213847Y-83240571D01*
X162261466Y-83335809D01*
X162261466Y-83573904D01*
X162213847Y-83669142D01*
X162166228Y-83716761D01*
X162070990Y-83764380D01*
X161785276Y-83764380D01*
X161690038Y-83716761D01*
X161642419Y-83669142D01*
%TO.C,J4*%
X175218766Y-82815180D02*
X175218766Y-83529466D01*
X175171147Y-83672323D01*
X175075909Y-83767561D01*
X174933052Y-83815180D01*
X174837814Y-83815180D01*
X176123528Y-83148514D02*
X176123528Y-83815180D01*
X175885433Y-82767561D02*
X175647338Y-83481847D01*
X176266385Y-83481847D01*
%TO.C,J1*%
X133308766Y-82662780D02*
X133308766Y-83377066D01*
X133261147Y-83519923D01*
X133165909Y-83615161D01*
X133023052Y-83662780D01*
X132927814Y-83662780D01*
X134308766Y-83662780D02*
X133737338Y-83662780D01*
X134023052Y-83662780D02*
X134023052Y-82662780D01*
X133927814Y-82805638D01*
X133832576Y-82900876D01*
X133737338Y-82948495D01*
%TO.C,J2*%
X147227966Y-82535780D02*
X147227966Y-83250066D01*
X147180347Y-83392923D01*
X147085109Y-83488161D01*
X146942252Y-83535780D01*
X146847014Y-83535780D01*
X147656538Y-82631019D02*
X147704157Y-82583400D01*
X147799395Y-82535780D01*
X148037490Y-82535780D01*
X148132728Y-82583400D01*
X148180347Y-82631019D01*
X148227966Y-82726257D01*
X148227966Y-82821495D01*
X148180347Y-82964352D01*
X147608919Y-83535780D01*
X148227966Y-83535780D01*
%TO.C,C2*%
X148055033Y-96381842D02*
X148007414Y-96429461D01*
X147864557Y-96477080D01*
X147769319Y-96477080D01*
X147626461Y-96429461D01*
X147531223Y-96334223D01*
X147483604Y-96238985D01*
X147435985Y-96048509D01*
X147435985Y-95905652D01*
X147483604Y-95715176D01*
X147531223Y-95619938D01*
X147626461Y-95524700D01*
X147769319Y-95477080D01*
X147864557Y-95477080D01*
X148007414Y-95524700D01*
X148055033Y-95572319D01*
X148435985Y-95572319D02*
X148483604Y-95524700D01*
X148578842Y-95477080D01*
X148816938Y-95477080D01*
X148912176Y-95524700D01*
X148959795Y-95572319D01*
X149007414Y-95667557D01*
X149007414Y-95762795D01*
X148959795Y-95905652D01*
X148388366Y-96477080D01*
X149007414Y-96477080D01*
%TO.C,C1*%
X165720733Y-98540842D02*
X165673114Y-98588461D01*
X165530257Y-98636080D01*
X165435019Y-98636080D01*
X165292161Y-98588461D01*
X165196923Y-98493223D01*
X165149304Y-98397985D01*
X165101685Y-98207509D01*
X165101685Y-98064652D01*
X165149304Y-97874176D01*
X165196923Y-97778938D01*
X165292161Y-97683700D01*
X165435019Y-97636080D01*
X165530257Y-97636080D01*
X165673114Y-97683700D01*
X165720733Y-97731319D01*
X166673114Y-98636080D02*
X166101685Y-98636080D01*
X166387400Y-98636080D02*
X166387400Y-97636080D01*
X166292161Y-97778938D01*
X166196923Y-97874176D01*
X166101685Y-97921795D01*
%TO.C,J5*%
X141881266Y-93965780D02*
X141881266Y-94680066D01*
X141833647Y-94822923D01*
X141738409Y-94918161D01*
X141595552Y-94965780D01*
X141500314Y-94965780D01*
X142833647Y-93965780D02*
X142357457Y-93965780D01*
X142309838Y-94441971D01*
X142357457Y-94394352D01*
X142452695Y-94346733D01*
X142690790Y-94346733D01*
X142786028Y-94394352D01*
X142833647Y-94441971D01*
X142881266Y-94537209D01*
X142881266Y-94775304D01*
X142833647Y-94870542D01*
X142786028Y-94918161D01*
X142690790Y-94965780D01*
X142452695Y-94965780D01*
X142357457Y-94918161D01*
X142309838Y-94870542D01*
%TO.C,J8*%
X175536266Y-100391980D02*
X175536266Y-101106266D01*
X175488647Y-101249123D01*
X175393409Y-101344361D01*
X175250552Y-101391980D01*
X175155314Y-101391980D01*
X176155314Y-100820552D02*
X176060076Y-100772933D01*
X176012457Y-100725314D01*
X175964838Y-100630076D01*
X175964838Y-100582457D01*
X176012457Y-100487219D01*
X176060076Y-100439600D01*
X176155314Y-100391980D01*
X176345790Y-100391980D01*
X176441028Y-100439600D01*
X176488647Y-100487219D01*
X176536266Y-100582457D01*
X176536266Y-100630076D01*
X176488647Y-100725314D01*
X176441028Y-100772933D01*
X176345790Y-100820552D01*
X176155314Y-100820552D01*
X176060076Y-100868171D01*
X176012457Y-100915790D01*
X175964838Y-101011028D01*
X175964838Y-101201504D01*
X176012457Y-101296742D01*
X176060076Y-101344361D01*
X176155314Y-101391980D01*
X176345790Y-101391980D01*
X176441028Y-101344361D01*
X176488647Y-101296742D01*
X176536266Y-101201504D01*
X176536266Y-101011028D01*
X176488647Y-100915790D01*
X176441028Y-100868171D01*
X176345790Y-100820552D01*
%TO.C,J7*%
X141779666Y-100112580D02*
X141779666Y-100826866D01*
X141732047Y-100969723D01*
X141636809Y-101064961D01*
X141493952Y-101112580D01*
X141398714Y-101112580D01*
X142160619Y-100112580D02*
X142827285Y-100112580D01*
X142398714Y-101112580D01*
%TO.C,U1*%
X157454695Y-97623380D02*
X157454695Y-98432904D01*
X157502314Y-98528142D01*
X157549933Y-98575761D01*
X157645171Y-98623380D01*
X157835647Y-98623380D01*
X157930885Y-98575761D01*
X157978504Y-98528142D01*
X158026123Y-98432904D01*
X158026123Y-97623380D01*
X159026123Y-98623380D02*
X158454695Y-98623380D01*
X158740409Y-98623380D02*
X158740409Y-97623380D01*
X158645171Y-97766238D01*
X158549933Y-97861476D01*
X158454695Y-97909095D01*
X153467538Y-91028780D02*
X153467538Y-90028780D01*
X154038966Y-91028780D01*
X154038966Y-90028780D01*
X154991347Y-91028780D02*
X154515157Y-91028780D01*
X154515157Y-90028780D01*
X155277061Y-90981161D02*
X155419919Y-91028780D01*
X155658014Y-91028780D01*
X155753252Y-90981161D01*
X155800871Y-90933542D01*
X155848490Y-90838304D01*
X155848490Y-90743066D01*
X155800871Y-90647828D01*
X155753252Y-90600209D01*
X155658014Y-90552590D01*
X155467538Y-90504971D01*
X155372300Y-90457352D01*
X155324680Y-90409733D01*
X155277061Y-90314495D01*
X155277061Y-90219257D01*
X155324680Y-90124019D01*
X155372300Y-90076400D01*
X155467538Y-90028780D01*
X155705633Y-90028780D01*
X155848490Y-90076400D01*
X156181823Y-90028780D02*
X156848490Y-91028780D01*
X156848490Y-90028780D02*
X156181823Y-91028780D01*
X157705633Y-90028780D02*
X157229442Y-90028780D01*
X157181823Y-90504971D01*
X157229442Y-90457352D01*
X157324680Y-90409733D01*
X157562776Y-90409733D01*
X157658014Y-90457352D01*
X157705633Y-90504971D01*
X157753252Y-90600209D01*
X157753252Y-90838304D01*
X157705633Y-90933542D01*
X157658014Y-90981161D01*
X157562776Y-91028780D01*
X157324680Y-91028780D01*
X157229442Y-90981161D01*
X157181823Y-90933542D01*
X158372300Y-90028780D02*
X158467538Y-90028780D01*
X158562776Y-90076400D01*
X158610395Y-90124019D01*
X158658014Y-90219257D01*
X158705633Y-90409733D01*
X158705633Y-90647828D01*
X158658014Y-90838304D01*
X158610395Y-90933542D01*
X158562776Y-90981161D01*
X158467538Y-91028780D01*
X158372300Y-91028780D01*
X158277061Y-90981161D01*
X158229442Y-90933542D01*
X158181823Y-90838304D01*
X158134204Y-90647828D01*
X158134204Y-90409733D01*
X158181823Y-90219257D01*
X158229442Y-90124019D01*
X158277061Y-90076400D01*
X158372300Y-90028780D01*
X159658014Y-91028780D02*
X159086585Y-91028780D01*
X159372300Y-91028780D02*
X159372300Y-90028780D01*
X159277061Y-90171638D01*
X159181823Y-90266876D01*
X159086585Y-90314495D01*
X160515157Y-90362114D02*
X160515157Y-91028780D01*
X160277061Y-89981161D02*
X160038966Y-90695447D01*
X160658014Y-90695447D01*
X161038966Y-91028780D02*
X161038966Y-90028780D01*
X161277061Y-90028780D01*
X161419919Y-90076400D01*
X161515157Y-90171638D01*
X161562776Y-90266876D01*
X161610395Y-90457352D01*
X161610395Y-90600209D01*
X161562776Y-90790685D01*
X161515157Y-90885923D01*
X161419919Y-90981161D01*
X161277061Y-91028780D01*
X161038966Y-91028780D01*
X161896109Y-90028780D02*
X162467538Y-90028780D01*
X162181823Y-91028780D02*
X162181823Y-90028780D01*
X163372300Y-91028780D02*
X163038966Y-90552590D01*
X162800871Y-91028780D02*
X162800871Y-90028780D01*
X163181823Y-90028780D01*
X163277061Y-90076400D01*
X163324680Y-90124019D01*
X163372300Y-90219257D01*
X163372300Y-90362114D01*
X163324680Y-90457352D01*
X163277061Y-90504971D01*
X163181823Y-90552590D01*
X162800871Y-90552590D01*
X163753252Y-90124019D02*
X163800871Y-90076400D01*
X163896109Y-90028780D01*
X164134204Y-90028780D01*
X164229442Y-90076400D01*
X164277061Y-90124019D01*
X164324680Y-90219257D01*
X164324680Y-90314495D01*
X164277061Y-90457352D01*
X163705633Y-91028780D01*
X164324680Y-91028780D01*
X165277061Y-90076400D02*
X165181823Y-90028780D01*
X165038966Y-90028780D01*
X164896109Y-90076400D01*
X164800871Y-90171638D01*
X164753252Y-90266876D01*
X164705633Y-90457352D01*
X164705633Y-90600209D01*
X164753252Y-90790685D01*
X164800871Y-90885923D01*
X164896109Y-90981161D01*
X165038966Y-91028780D01*
X165134204Y-91028780D01*
X165277061Y-90981161D01*
X165324680Y-90933542D01*
X165324680Y-90600209D01*
X165134204Y-90600209D01*
X163626800Y-96236540D02*
X163626800Y-96474636D01*
X163388704Y-96379398D02*
X163626800Y-96474636D01*
X163864895Y-96379398D01*
X163483942Y-96665112D02*
X163626800Y-96474636D01*
X163769657Y-96665112D01*
X163636960Y-96256860D02*
X163636960Y-96494956D01*
X163398864Y-96399718D02*
X163636960Y-96494956D01*
X163875055Y-96399718D01*
X163494102Y-96685432D02*
X163636960Y-96494956D01*
X163779817Y-96685432D01*
%TD*%
M02*
