%TF.GenerationSoftware,KiCad,Pcbnew,5.1.10-88a1d61d58~88~ubuntu18.04.1*%
%TF.CreationDate,2021-07-26T17:39:40+07:00*%
%TF.ProjectId,ADV728xM_EVAL_SMA-FFC_AETINA_ACE_CAM6C,41445637-3238-4784-9d5f-4556414c5f53,rev?*%
%TF.SameCoordinates,Original*%
%TF.FileFunction,Copper,L1,Top*%
%TF.FilePolarity,Positive*%
%FSLAX46Y46*%
G04 Gerber Fmt 4.6, Leading zero omitted, Abs format (unit mm)*
G04 Created by KiCad (PCBNEW 5.1.10-88a1d61d58~88~ubuntu18.04.1) date 2021-07-26 17:39:40*
%MOMM*%
%LPD*%
G01*
G04 APERTURE LIST*
%TA.AperFunction,SMDPad,CuDef*%
%ADD10R,0.400000X1.600000*%
%TD*%
%TA.AperFunction,SMDPad,CuDef*%
%ADD11R,1.400000X2.900000*%
%TD*%
%TA.AperFunction,ComponentPad*%
%ADD12O,1.700000X1.700000*%
%TD*%
%TA.AperFunction,ComponentPad*%
%ADD13R,1.700000X1.700000*%
%TD*%
%TA.AperFunction,SMDPad,CuDef*%
%ADD14R,2.286000X5.080000*%
%TD*%
%TA.AperFunction,SMDPad,CuDef*%
%ADD15R,2.413000X5.080000*%
%TD*%
%TA.AperFunction,SMDPad,CuDef*%
%ADD16R,1.358900X0.355600*%
%TD*%
%TA.AperFunction,ViaPad*%
%ADD17C,0.800000*%
%TD*%
%TA.AperFunction,Conductor*%
%ADD18C,0.350000*%
%TD*%
%TA.AperFunction,Conductor*%
%ADD19C,0.250000*%
%TD*%
%TA.AperFunction,Conductor*%
%ADD20C,0.300000*%
%TD*%
%TA.AperFunction,Conductor*%
%ADD21C,0.200000*%
%TD*%
%TA.AperFunction,Conductor*%
%ADD22C,0.254000*%
%TD*%
%TA.AperFunction,Conductor*%
%ADD23C,0.100000*%
%TD*%
G04 APERTURE END LIST*
%TO.P,R2,1*%
%TO.N,Net-(J9-Pad4)*%
%TA.AperFunction,SMDPad,CuDef*%
G36*
G01*
X149631600Y-98151101D02*
X149631600Y-97251099D01*
G75*
G02*
X149881599Y-97001100I249999J0D01*
G01*
X150581601Y-97001100D01*
G75*
G02*
X150831600Y-97251099I0J-249999D01*
G01*
X150831600Y-98151101D01*
G75*
G02*
X150581601Y-98401100I-249999J0D01*
G01*
X149881599Y-98401100D01*
G75*
G02*
X149631600Y-98151101I0J249999D01*
G01*
G37*
%TD.AperFunction*%
%TO.P,R2,2*%
%TO.N,+3V3*%
%TA.AperFunction,SMDPad,CuDef*%
G36*
G01*
X151631600Y-98151101D02*
X151631600Y-97251099D01*
G75*
G02*
X151881599Y-97001100I249999J0D01*
G01*
X152581601Y-97001100D01*
G75*
G02*
X152831600Y-97251099I0J-249999D01*
G01*
X152831600Y-98151101D01*
G75*
G02*
X152581601Y-98401100I-249999J0D01*
G01*
X151881599Y-98401100D01*
G75*
G02*
X151631600Y-98151101I0J249999D01*
G01*
G37*
%TD.AperFunction*%
%TD*%
%TO.P,R1,2*%
%TO.N,+1V8*%
%TA.AperFunction,SMDPad,CuDef*%
G36*
G01*
X151637440Y-100086581D02*
X151637440Y-99186579D01*
G75*
G02*
X151887439Y-98936580I249999J0D01*
G01*
X152587441Y-98936580D01*
G75*
G02*
X152837440Y-99186579I0J-249999D01*
G01*
X152837440Y-100086581D01*
G75*
G02*
X152587441Y-100336580I-249999J0D01*
G01*
X151887439Y-100336580D01*
G75*
G02*
X151637440Y-100086581I0J249999D01*
G01*
G37*
%TD.AperFunction*%
%TO.P,R1,1*%
%TO.N,Net-(J9-Pad3)*%
%TA.AperFunction,SMDPad,CuDef*%
G36*
G01*
X149637440Y-100086581D02*
X149637440Y-99186579D01*
G75*
G02*
X149887439Y-98936580I249999J0D01*
G01*
X150587441Y-98936580D01*
G75*
G02*
X150837440Y-99186579I0J-249999D01*
G01*
X150837440Y-100086581D01*
G75*
G02*
X150587441Y-100336580I-249999J0D01*
G01*
X149887439Y-100336580D01*
G75*
G02*
X149637440Y-100086581I0J249999D01*
G01*
G37*
%TD.AperFunction*%
%TD*%
D10*
%TO.P,J9,36*%
%TO.N,Net-(J9-Pad36)*%
X167525400Y-103727400D03*
%TO.P,J9,35*%
%TO.N,Net-(J9-Pad35)*%
X167025400Y-106127400D03*
%TO.P,J9,34*%
%TO.N,Net-(J9-Pad34)*%
X166525400Y-103727400D03*
%TO.P,J9,33*%
%TO.N,Net-(J9-Pad33)*%
X166025400Y-106127400D03*
%TO.P,J9,32*%
%TO.N,Net-(J9-Pad32)*%
X165525400Y-103727400D03*
%TO.P,J9,31*%
%TO.N,Net-(J9-Pad31)*%
X165025400Y-106127400D03*
%TO.P,J9,30*%
%TO.N,Net-(J9-Pad30)*%
X164525400Y-103727400D03*
%TO.P,J9,29*%
%TO.N,GND*%
X164025400Y-106127400D03*
%TO.P,J9,28*%
%TO.N,/I2C_SCL*%
X163525400Y-103727400D03*
%TO.P,J9,27*%
%TO.N,/I2C_SDA*%
X163025400Y-106127400D03*
%TO.P,J9,26*%
%TO.N,/CAM_RST*%
X162525400Y-103727400D03*
%TO.P,J9,25*%
%TO.N,Net-(J9-Pad25)*%
X162025400Y-106127400D03*
%TO.P,J9,24*%
%TO.N,Net-(J9-Pad24)*%
X161525400Y-103727400D03*
%TO.P,J9,23*%
%TO.N,Net-(J9-Pad23)*%
X161025400Y-106127400D03*
%TO.P,J9,22*%
%TO.N,Net-(J9-Pad22)*%
X160525400Y-103727400D03*
%TO.P,J9,21*%
%TO.N,Net-(J9-Pad21)*%
X160025400Y-106127400D03*
%TO.P,J9,20*%
%TO.N,Net-(J9-Pad20)*%
X159525400Y-103727400D03*
%TO.P,J9,19*%
%TO.N,Net-(J9-Pad19)*%
X159025400Y-106127400D03*
%TO.P,J9,18*%
%TO.N,Net-(J9-Pad18)*%
X158525400Y-103727400D03*
%TO.P,J9,17*%
%TO.N,Net-(J9-Pad17)*%
X158025400Y-106127400D03*
%TO.P,J9,16*%
%TO.N,GND*%
X157525400Y-103727400D03*
%TO.P,J9,15*%
%TO.N,Net-(J9-Pad15)*%
X157025400Y-106127400D03*
%TO.P,J9,14*%
%TO.N,Net-(J9-Pad14)*%
X156525400Y-103727400D03*
%TO.P,J9,13*%
%TO.N,GND*%
X156025400Y-106127400D03*
%TO.P,J9,12*%
%TO.N,/CLK_N*%
X155525400Y-103727400D03*
%TO.P,J9,11*%
%TO.N,/CLK_P*%
X155025400Y-106127400D03*
%TO.P,J9,10*%
%TO.N,GND*%
X154525400Y-103727400D03*
%TO.P,J9,9*%
%TO.N,/D0_N*%
X154025400Y-106127400D03*
%TO.P,J9,8*%
%TO.N,/D0_P*%
X153525400Y-103727400D03*
%TO.P,J9,7*%
%TO.N,GND*%
X153025400Y-106127400D03*
%TO.P,J9,6*%
%TO.N,Net-(J9-Pad4)*%
X152525400Y-103727400D03*
%TO.P,J9,5*%
X152025400Y-106127400D03*
%TO.P,J9,4*%
X151525400Y-103727400D03*
%TO.P,J9,3*%
%TO.N,Net-(J9-Pad3)*%
X151025400Y-106127400D03*
%TO.P,J9,2*%
%TO.N,Net-(J9-Pad2)*%
X150525400Y-103727400D03*
%TO.P,J9,1*%
%TO.N,Net-(J9-Pad1)*%
X150025400Y-106127400D03*
D11*
%TO.P,J9,S2*%
%TO.N,GND*%
X169225400Y-104927400D03*
%TO.P,J9,S1*%
X148325400Y-104927400D03*
%TD*%
D12*
%TO.P,J6,4*%
%TO.N,/GPIO1_1V8*%
X172656500Y-87147400D03*
%TO.P,J6,3*%
%TO.N,/CAM_RST*%
X172656500Y-89687400D03*
%TO.P,J6,2*%
%TO.N,/I2C_SCL*%
X172656500Y-92227400D03*
D13*
%TO.P,J6,1*%
%TO.N,/I2C_SDA*%
X172656500Y-94767400D03*
%TD*%
D14*
%TO.P,J3,1*%
%TO.N,/CLK_P*%
X165950900Y-79019400D03*
D15*
%TO.P,J3,S2*%
%TO.N,GND*%
X170332400Y-79019400D03*
%TO.P,J3,S1*%
X161569400Y-79019400D03*
%TD*%
D14*
%TO.P,J4,1*%
%TO.N,/CLK_N*%
X179997100Y-79019400D03*
D15*
%TO.P,J4,S2*%
%TO.N,GND*%
X184378600Y-79019400D03*
%TO.P,J4,S1*%
X175615600Y-79019400D03*
%TD*%
D14*
%TO.P,J1,1*%
%TO.N,/D0_P*%
X138061700Y-79070200D03*
D15*
%TO.P,J1,S2*%
%TO.N,GND*%
X142443200Y-79070200D03*
%TO.P,J1,S1*%
X133680200Y-79070200D03*
%TD*%
D14*
%TO.P,J2,1*%
%TO.N,/D0_N*%
X151980900Y-79019400D03*
D15*
%TO.P,J2,S2*%
%TO.N,GND*%
X156362400Y-79019400D03*
%TO.P,J2,S1*%
X147599400Y-79019400D03*
%TD*%
%TO.P,C2,1*%
%TO.N,GND*%
%TA.AperFunction,SMDPad,CuDef*%
G36*
G01*
X149984000Y-96249500D02*
X149984000Y-95774500D01*
G75*
G02*
X150221500Y-95537000I237500J0D01*
G01*
X150821500Y-95537000D01*
G75*
G02*
X151059000Y-95774500I0J-237500D01*
G01*
X151059000Y-96249500D01*
G75*
G02*
X150821500Y-96487000I-237500J0D01*
G01*
X150221500Y-96487000D01*
G75*
G02*
X149984000Y-96249500I0J237500D01*
G01*
G37*
%TD.AperFunction*%
%TO.P,C2,2*%
%TO.N,+3V3*%
%TA.AperFunction,SMDPad,CuDef*%
G36*
G01*
X151709000Y-96249500D02*
X151709000Y-95774500D01*
G75*
G02*
X151946500Y-95537000I237500J0D01*
G01*
X152546500Y-95537000D01*
G75*
G02*
X152784000Y-95774500I0J-237500D01*
G01*
X152784000Y-96249500D01*
G75*
G02*
X152546500Y-96487000I-237500J0D01*
G01*
X151946500Y-96487000D01*
G75*
G02*
X151709000Y-96249500I0J237500D01*
G01*
G37*
%TD.AperFunction*%
%TD*%
%TO.P,C1,2*%
%TO.N,+1V8*%
%TA.AperFunction,SMDPad,CuDef*%
G36*
G01*
X162433120Y-97877620D02*
X162433120Y-98352620D01*
G75*
G02*
X162195620Y-98590120I-237500J0D01*
G01*
X161595620Y-98590120D01*
G75*
G02*
X161358120Y-98352620I0J237500D01*
G01*
X161358120Y-97877620D01*
G75*
G02*
X161595620Y-97640120I237500J0D01*
G01*
X162195620Y-97640120D01*
G75*
G02*
X162433120Y-97877620I0J-237500D01*
G01*
G37*
%TD.AperFunction*%
%TO.P,C1,1*%
%TO.N,GND*%
%TA.AperFunction,SMDPad,CuDef*%
G36*
G01*
X164158120Y-97877620D02*
X164158120Y-98352620D01*
G75*
G02*
X163920620Y-98590120I-237500J0D01*
G01*
X163320620Y-98590120D01*
G75*
G02*
X163083120Y-98352620I0J237500D01*
G01*
X163083120Y-97877620D01*
G75*
G02*
X163320620Y-97640120I237500J0D01*
G01*
X163920620Y-97640120D01*
G75*
G02*
X164158120Y-97877620I0J-237500D01*
G01*
G37*
%TD.AperFunction*%
%TD*%
D13*
%TO.P,J5,1*%
%TO.N,/I2C_SDA_3V3*%
X145084800Y-94500700D03*
D12*
%TO.P,J5,2*%
%TO.N,/I2C_SCL_3V3*%
X145084800Y-91960700D03*
%TO.P,J5,3*%
%TO.N,/CAM_RST_3V3*%
X145084800Y-89420700D03*
%TO.P,J5,4*%
%TO.N,/GPIO1_3V3*%
X145084800Y-86880700D03*
%TD*%
D13*
%TO.P,J8,1*%
%TO.N,+1V8*%
X172694600Y-100939600D03*
D12*
%TO.P,J8,2*%
%TO.N,GND*%
X172694600Y-98399600D03*
%TD*%
%TO.P,J7,2*%
%TO.N,GND*%
X145034000Y-98209100D03*
D13*
%TO.P,J7,1*%
%TO.N,+3V3*%
X145034000Y-100749100D03*
%TD*%
D16*
%TO.P,U1,14*%
%TO.N,+1V8*%
X156165550Y-96450699D03*
%TO.P,U1,13*%
%TO.N,+3V3*%
X156165550Y-95800700D03*
%TO.P,U1,12*%
%TO.N,/I2C_SDA_3V3*%
X156165550Y-95150699D03*
%TO.P,U1,11*%
%TO.N,/I2C_SCL_3V3*%
X156165550Y-94500700D03*
%TO.P,U1,10*%
%TO.N,/CAM_RST_3V3*%
X156165550Y-93850699D03*
%TO.P,U1,9*%
%TO.N,Net-(U1-Pad9)*%
X156165550Y-93200700D03*
%TO.P,U1,8*%
%TO.N,/GPIO1_3V3*%
X156165550Y-92550699D03*
%TO.P,U1,7*%
%TO.N,GND*%
X161918650Y-92550701D03*
%TO.P,U1,6*%
%TO.N,Net-(U1-Pad6)*%
X161918650Y-93200700D03*
%TO.P,U1,5*%
%TO.N,/GPIO1_1V8*%
X161918650Y-93850701D03*
%TO.P,U1,4*%
%TO.N,/CAM_RST*%
X161918650Y-94500700D03*
%TO.P,U1,3*%
%TO.N,/I2C_SCL*%
X161918650Y-95150699D03*
%TO.P,U1,2*%
%TO.N,/I2C_SDA*%
X161918650Y-95800700D03*
%TO.P,U1,1*%
%TO.N,+1V8*%
X161918650Y-96450701D03*
%TD*%
D17*
%TO.N,+3V3*%
X153771600Y-97726500D03*
%TO.N,GND*%
X169291000Y-104965500D03*
X156006800Y-107797600D03*
X148325400Y-104927400D03*
%TO.N,+1V8*%
X161925000Y-99491800D03*
X153771600Y-99453700D03*
%TO.N,/D0_P*%
X138074400Y-79121000D03*
X153758900Y-101625400D03*
X138074400Y-80124300D03*
%TO.N,/D0_N*%
X151955500Y-79082900D03*
X152819100Y-107772100D03*
X151955500Y-80035400D03*
%TO.N,/CLK_P*%
X165938200Y-79019400D03*
X159829500Y-107772100D03*
X165938200Y-79971900D03*
%TO.N,/CLK_N*%
X179984400Y-79044800D03*
X156248100Y-101600000D03*
X179984400Y-80035400D03*
%TD*%
D18*
%TO.N,+3V3*%
X152246500Y-97740300D02*
X152234900Y-97751900D01*
D19*
X154131800Y-95800700D02*
X154127200Y-95796100D01*
D20*
X156165550Y-95800700D02*
X154131800Y-95800700D01*
X153136600Y-96012000D02*
X152246500Y-96012000D01*
X152246500Y-96012000D02*
X151974800Y-96012000D01*
X152231600Y-96026900D02*
X152246500Y-96012000D01*
X152231600Y-97701100D02*
X152231600Y-96026900D01*
X153746200Y-97701100D02*
X153771600Y-97726500D01*
X152257000Y-97726500D02*
X152231600Y-97701100D01*
X153771600Y-97726500D02*
X152257000Y-97726500D01*
X153920500Y-96012000D02*
X154131800Y-95800700D01*
X153136600Y-96012000D02*
X153920500Y-96012000D01*
D19*
%TO.N,GND*%
X160286700Y-82778600D02*
X158350791Y-84714509D01*
D18*
X172393100Y-98441000D02*
X172402500Y-98450400D01*
D19*
X161817050Y-92538001D02*
X166376899Y-92538001D01*
X166376899Y-92538001D02*
X169316400Y-89598500D01*
X177139600Y-91732100D02*
X177139600Y-100952300D01*
X175006000Y-89598500D02*
X177139600Y-91732100D01*
D20*
X148325400Y-102944100D02*
X148325400Y-104927400D01*
X148996400Y-102273100D02*
X148325400Y-102944100D01*
X148325400Y-104927400D02*
X148325400Y-104927400D01*
D19*
X164025400Y-106127400D02*
X164025400Y-107555690D01*
X164025400Y-107555690D02*
X164236400Y-107766690D01*
X164236400Y-107766690D02*
X169291000Y-107766690D01*
X169291000Y-104965500D02*
X169291000Y-107766690D01*
X154525400Y-104630800D02*
X154525400Y-103727400D01*
X154525400Y-104856860D02*
X154525400Y-104630800D01*
X154459940Y-104922320D02*
X154525400Y-104856860D01*
X153141680Y-104922320D02*
X154459940Y-104922320D01*
D21*
X153025400Y-106127400D02*
X153025400Y-105038600D01*
D19*
X153025400Y-105038600D02*
X153141680Y-104922320D01*
D21*
X154525400Y-103727400D02*
X154525400Y-102421000D01*
X154525400Y-102421000D02*
X154952700Y-101993700D01*
X154952700Y-101993700D02*
X154952700Y-100533200D01*
X154952700Y-100533200D02*
X157899100Y-97586800D01*
X157899100Y-97586800D02*
X157899100Y-94399100D01*
X159747499Y-92550701D02*
X161918650Y-92550701D01*
X157899100Y-94399100D02*
X159747499Y-92550701D01*
D18*
%TO.N,+1V8*%
X172389800Y-100977700D02*
X172402500Y-100990400D01*
D19*
X161918648Y-96450699D02*
X161918650Y-96450701D01*
X161918650Y-99561650D02*
X161925000Y-99568000D01*
X161918650Y-96450701D02*
X161918650Y-99561650D01*
D20*
X153588720Y-99636580D02*
X153771600Y-99453700D01*
X152237440Y-99636580D02*
X153588720Y-99636580D01*
X156165550Y-96450699D02*
X155301401Y-96450699D01*
X155068270Y-96683830D02*
X155068270Y-98157030D01*
X155301401Y-96450699D02*
X155068270Y-96683830D01*
X155068270Y-98157030D02*
X153771600Y-99453700D01*
D21*
%TO.N,/D0_P*%
X153525400Y-101858900D02*
X153758900Y-101625400D01*
X153525400Y-103727400D02*
X153525400Y-101757300D01*
D19*
%TO.N,/D0_N*%
X152826200Y-107765100D02*
X152819100Y-107772200D01*
D21*
X154025400Y-106127400D02*
X154025400Y-107607300D01*
X153860600Y-107772100D02*
X152819100Y-107772100D01*
X154025400Y-107607300D02*
X153860600Y-107772100D01*
D19*
%TO.N,/CLK_P*%
X159826200Y-107768800D02*
X159829500Y-107772100D01*
D21*
X155025400Y-106127400D02*
X155025400Y-108416400D01*
X155025400Y-108416400D02*
X155282900Y-108673900D01*
X158927700Y-108673900D02*
X159829500Y-107772100D01*
X155282900Y-108673900D02*
X158927700Y-108673900D01*
%TO.N,/CLK_N*%
X155525400Y-103727400D02*
X155525400Y-102586720D01*
X156248100Y-101600000D02*
X156095700Y-101600000D01*
X155525400Y-102170300D02*
X155525400Y-102586720D01*
X156095700Y-101600000D02*
X155525400Y-102170300D01*
D19*
%TO.N,/I2C_SCL_3V3*%
X154114500Y-94488000D02*
X148297900Y-94488000D01*
X154114500Y-94488000D02*
X153860500Y-94488000D01*
X156063950Y-94488000D02*
X154114500Y-94488000D01*
X145770600Y-91960700D02*
X145084800Y-91960700D01*
X148297900Y-94488000D02*
X145770600Y-91960700D01*
%TO.N,/I2C_SDA_3V3*%
X145796000Y-94526100D02*
X147027900Y-94526100D01*
X147639799Y-95137999D02*
X151356301Y-95137999D01*
X147027900Y-94526100D02*
X147639799Y-95137999D01*
X155145499Y-95137999D02*
X154739099Y-95137999D01*
X155145499Y-95137999D02*
X151356301Y-95137999D01*
X156063950Y-95137999D02*
X155145499Y-95137999D01*
%TO.N,/GPIO1_3V3*%
X146913600Y-88709500D02*
X145084800Y-86880700D01*
X146913600Y-89611200D02*
X146913600Y-88709500D01*
X149840399Y-92537999D02*
X146913600Y-89611200D01*
X156063950Y-92537999D02*
X149840399Y-92537999D01*
%TO.N,/I2C_SCL*%
X170203101Y-95150699D02*
X161918650Y-95150699D01*
X171069000Y-92964000D02*
X171069000Y-94284800D01*
X171805600Y-92227400D02*
X171069000Y-92964000D01*
X171069000Y-94284800D02*
X170203101Y-95150699D01*
X172656500Y-92227400D02*
X171805600Y-92227400D01*
X160007300Y-95745300D02*
X160007300Y-100076000D01*
X160601901Y-95150699D02*
X160007300Y-95745300D01*
X161918650Y-95150699D02*
X160601901Y-95150699D01*
X160007300Y-100076000D02*
X160020000Y-100076000D01*
X160020000Y-100076000D02*
X161239200Y-101295200D01*
X162847020Y-101295200D02*
X163525400Y-101973580D01*
X162720020Y-101295200D02*
X162847020Y-101295200D01*
X163525400Y-103727400D02*
X163525400Y-101973580D01*
X161239200Y-101295200D02*
X162720020Y-101295200D01*
%TO.N,/I2C_SDA*%
X172351700Y-94373700D02*
X172364400Y-94361000D01*
X161918650Y-95800700D02*
X163736500Y-95800700D01*
X171729400Y-94767400D02*
X170696100Y-95800700D01*
X172656500Y-94767400D02*
X171729400Y-94767400D01*
X163736500Y-95800700D02*
X170696100Y-95800700D01*
X163025400Y-107767700D02*
X163025400Y-106127400D01*
X163025400Y-108199500D02*
X163025400Y-107767700D01*
X163461700Y-108635800D02*
X163025400Y-108199500D01*
X171018200Y-108635800D02*
X163461700Y-108635800D01*
X171602400Y-108051600D02*
X171018200Y-108635800D01*
X171602400Y-102857300D02*
X171602400Y-108051600D01*
X170688000Y-101942900D02*
X171602400Y-102857300D01*
X164731700Y-101942900D02*
X170688000Y-101942900D01*
X161918650Y-95800700D02*
X160879000Y-95800700D01*
X160502600Y-96177100D02*
X160502600Y-99783900D01*
X160502600Y-99783900D02*
X161442400Y-100723700D01*
X160879000Y-95800700D02*
X160502600Y-96177100D01*
X161442400Y-100723700D02*
X163512500Y-100723700D01*
X163512500Y-100723700D02*
X164731700Y-101942900D01*
%TO.N,/GPIO1_1V8*%
X171411900Y-87147400D02*
X172656500Y-87147400D01*
X171056300Y-87503000D02*
X171411900Y-87147400D01*
X171056300Y-88963500D02*
X171056300Y-87503000D01*
X169242499Y-93838001D02*
X169494200Y-93586300D01*
X169494200Y-92075000D02*
X170281600Y-91287600D01*
X161817050Y-93838001D02*
X169242499Y-93838001D01*
X169494200Y-93586300D02*
X169494200Y-92075000D01*
X170281600Y-89738200D02*
X171056300Y-88963500D01*
X170281600Y-91287600D02*
X170281600Y-89738200D01*
D20*
%TO.N,Net-(J9-Pad4)*%
X152525400Y-103727400D02*
X151525400Y-103727400D01*
X152025400Y-106127400D02*
X152025400Y-105352900D01*
X151525400Y-104852900D02*
X151525400Y-103727400D01*
X152025400Y-105352900D02*
X151525400Y-104852900D01*
X152025400Y-108045200D02*
X152025400Y-106127400D01*
X149311360Y-97701100D02*
X147154900Y-99857560D01*
X147154900Y-99857560D02*
X147154900Y-101333300D01*
X151422100Y-108648500D02*
X152025400Y-108045200D01*
X150231600Y-97701100D02*
X149311360Y-97701100D01*
X145829390Y-102658810D02*
X145829390Y-107268110D01*
X147209780Y-108648500D02*
X151422100Y-108648500D01*
X147154900Y-101333300D02*
X145829390Y-102658810D01*
X145829390Y-107268110D02*
X147209780Y-108648500D01*
%TO.N,Net-(J9-Pad3)*%
X151025400Y-107851400D02*
X151025400Y-106127400D01*
X150787100Y-108089700D02*
X151025400Y-107851400D01*
X150237440Y-99636580D02*
X148597620Y-99636580D01*
X148597620Y-99636580D02*
X147838160Y-100396040D01*
X146329400Y-107061000D02*
X147358100Y-108089700D01*
X147358100Y-108089700D02*
X150787100Y-108089700D01*
X146329400Y-102933500D02*
X146329400Y-107061000D01*
X147838160Y-100396040D02*
X147838160Y-101424740D01*
X147838160Y-101424740D02*
X146329400Y-102933500D01*
D19*
%TO.N,/CAM_RST_3V3*%
X149502099Y-93837999D02*
X145084800Y-89420700D01*
X156063950Y-93837999D02*
X149502099Y-93837999D01*
%TO.N,/CAM_RST*%
X161817050Y-94488000D02*
X169710100Y-94488000D01*
X169710100Y-94488000D02*
X170218100Y-93980000D01*
X170218100Y-93980000D02*
X170218100Y-92583000D01*
X170218100Y-92583000D02*
X171056300Y-91744800D01*
X171056300Y-91744800D02*
X171056300Y-90385900D01*
X171754800Y-89687400D02*
X172656500Y-89687400D01*
X171056300Y-90385900D02*
X171754800Y-89687400D01*
X160807400Y-101909880D02*
X159372300Y-100474780D01*
X159372300Y-100474780D02*
X159372300Y-95506540D01*
X160378140Y-94500700D02*
X161918650Y-94500700D01*
X159372300Y-95506540D02*
X160378140Y-94500700D01*
X162176460Y-101914960D02*
X162525400Y-102263900D01*
X162176460Y-101909880D02*
X162176460Y-101914960D01*
X162525400Y-103727400D02*
X162525400Y-102263900D01*
X162176460Y-101909880D02*
X160807400Y-101909880D01*
%TD*%
D22*
%TO.N,GND*%
X131836042Y-76833835D02*
X131838700Y-78784450D01*
X131997450Y-78943200D01*
X133553200Y-78943200D01*
X133553200Y-78923200D01*
X133807200Y-78923200D01*
X133807200Y-78943200D01*
X135362950Y-78943200D01*
X135521700Y-78784450D01*
X135524355Y-76836544D01*
X136280628Y-76837099D01*
X136280628Y-81610200D01*
X136292888Y-81734682D01*
X136329198Y-81854380D01*
X136388163Y-81964694D01*
X136467515Y-82061385D01*
X136564206Y-82140737D01*
X136674520Y-82199702D01*
X136794218Y-82236012D01*
X136918700Y-82248272D01*
X139204700Y-82248272D01*
X139329182Y-82236012D01*
X139448880Y-82199702D01*
X139559194Y-82140737D01*
X139655885Y-82061385D01*
X139735237Y-81964694D01*
X139794202Y-81854380D01*
X139830512Y-81734682D01*
X139842772Y-81610200D01*
X140598628Y-81610200D01*
X140610888Y-81734682D01*
X140647198Y-81854380D01*
X140706163Y-81964694D01*
X140785515Y-82061385D01*
X140882206Y-82140737D01*
X140992520Y-82199702D01*
X141112218Y-82236012D01*
X141236700Y-82248272D01*
X142157450Y-82245200D01*
X142316200Y-82086450D01*
X142316200Y-79197200D01*
X142570200Y-79197200D01*
X142570200Y-82086450D01*
X142728950Y-82245200D01*
X143649700Y-82248272D01*
X143774182Y-82236012D01*
X143893880Y-82199702D01*
X144004194Y-82140737D01*
X144100885Y-82061385D01*
X144180237Y-81964694D01*
X144239202Y-81854380D01*
X144275512Y-81734682D01*
X144287772Y-81610200D01*
X144287703Y-81559400D01*
X145754828Y-81559400D01*
X145767088Y-81683882D01*
X145803398Y-81803580D01*
X145862363Y-81913894D01*
X145941715Y-82010585D01*
X146038406Y-82089937D01*
X146148720Y-82148902D01*
X146268418Y-82185212D01*
X146392900Y-82197472D01*
X147313650Y-82194400D01*
X147472400Y-82035650D01*
X147472400Y-79146400D01*
X147726400Y-79146400D01*
X147726400Y-82035650D01*
X147885150Y-82194400D01*
X148805900Y-82197472D01*
X148930382Y-82185212D01*
X149050080Y-82148902D01*
X149160394Y-82089937D01*
X149257085Y-82010585D01*
X149336437Y-81913894D01*
X149395402Y-81803580D01*
X149431712Y-81683882D01*
X149443972Y-81559400D01*
X149440900Y-79305150D01*
X149282150Y-79146400D01*
X147726400Y-79146400D01*
X147472400Y-79146400D01*
X145916650Y-79146400D01*
X145757900Y-79305150D01*
X145754828Y-81559400D01*
X144287703Y-81559400D01*
X144284700Y-79355950D01*
X144125950Y-79197200D01*
X142570200Y-79197200D01*
X142316200Y-79197200D01*
X140760450Y-79197200D01*
X140601700Y-79355950D01*
X140598628Y-81610200D01*
X139842772Y-81610200D01*
X139842772Y-76839715D01*
X140599051Y-76840270D01*
X140601700Y-78784450D01*
X140760450Y-78943200D01*
X142316200Y-78943200D01*
X142316200Y-78923200D01*
X142570200Y-78923200D01*
X142570200Y-78943200D01*
X144125950Y-78943200D01*
X144284700Y-78784450D01*
X144287346Y-76842978D01*
X145755325Y-76844056D01*
X145757900Y-78733650D01*
X145916650Y-78892400D01*
X147472400Y-78892400D01*
X147472400Y-78872400D01*
X147726400Y-78872400D01*
X147726400Y-78892400D01*
X149282150Y-78892400D01*
X149440900Y-78733650D01*
X149443471Y-76846765D01*
X150199828Y-76847320D01*
X150199828Y-81559400D01*
X150212088Y-81683882D01*
X150248398Y-81803580D01*
X150307363Y-81913894D01*
X150386715Y-82010585D01*
X150483406Y-82089937D01*
X150593720Y-82148902D01*
X150713418Y-82185212D01*
X150837900Y-82197472D01*
X153123900Y-82197472D01*
X153248382Y-82185212D01*
X153368080Y-82148902D01*
X153478394Y-82089937D01*
X153575085Y-82010585D01*
X153654437Y-81913894D01*
X153713402Y-81803580D01*
X153749712Y-81683882D01*
X153761972Y-81559400D01*
X154517828Y-81559400D01*
X154530088Y-81683882D01*
X154566398Y-81803580D01*
X154625363Y-81913894D01*
X154704715Y-82010585D01*
X154801406Y-82089937D01*
X154911720Y-82148902D01*
X155031418Y-82185212D01*
X155155900Y-82197472D01*
X156076650Y-82194400D01*
X156235400Y-82035650D01*
X156235400Y-79146400D01*
X156489400Y-79146400D01*
X156489400Y-82035650D01*
X156648150Y-82194400D01*
X157568900Y-82197472D01*
X157693382Y-82185212D01*
X157813080Y-82148902D01*
X157923394Y-82089937D01*
X158020085Y-82010585D01*
X158099437Y-81913894D01*
X158158402Y-81803580D01*
X158194712Y-81683882D01*
X158206972Y-81559400D01*
X159724828Y-81559400D01*
X159737088Y-81683882D01*
X159773398Y-81803580D01*
X159832363Y-81913894D01*
X159911715Y-82010585D01*
X160008406Y-82089937D01*
X160118720Y-82148902D01*
X160238418Y-82185212D01*
X160362900Y-82197472D01*
X161283650Y-82194400D01*
X161442400Y-82035650D01*
X161442400Y-79146400D01*
X161696400Y-79146400D01*
X161696400Y-82035650D01*
X161855150Y-82194400D01*
X162775900Y-82197472D01*
X162900382Y-82185212D01*
X163020080Y-82148902D01*
X163130394Y-82089937D01*
X163227085Y-82010585D01*
X163306437Y-81913894D01*
X163365402Y-81803580D01*
X163401712Y-81683882D01*
X163413972Y-81559400D01*
X163410900Y-79305150D01*
X163252150Y-79146400D01*
X161696400Y-79146400D01*
X161442400Y-79146400D01*
X159886650Y-79146400D01*
X159727900Y-79305150D01*
X159724828Y-81559400D01*
X158206972Y-81559400D01*
X158203900Y-79305150D01*
X158045150Y-79146400D01*
X156489400Y-79146400D01*
X156235400Y-79146400D01*
X154679650Y-79146400D01*
X154520900Y-79305150D01*
X154517828Y-81559400D01*
X153761972Y-81559400D01*
X153761972Y-76849936D01*
X154518334Y-76850491D01*
X154520900Y-78733650D01*
X154679650Y-78892400D01*
X156235400Y-78892400D01*
X156235400Y-78872400D01*
X156489400Y-78872400D01*
X156489400Y-78892400D01*
X158045150Y-78892400D01*
X158203900Y-78733650D01*
X158206463Y-76853199D01*
X159725339Y-76854315D01*
X159727900Y-78733650D01*
X159886650Y-78892400D01*
X161442400Y-78892400D01*
X161442400Y-78872400D01*
X161696400Y-78872400D01*
X161696400Y-78892400D01*
X163252150Y-78892400D01*
X163410900Y-78733650D01*
X163413457Y-76857023D01*
X164169828Y-76857578D01*
X164169828Y-81559400D01*
X164182088Y-81683882D01*
X164218398Y-81803580D01*
X164277363Y-81913894D01*
X164356715Y-82010585D01*
X164453406Y-82089937D01*
X164563720Y-82148902D01*
X164683418Y-82185212D01*
X164807900Y-82197472D01*
X167093900Y-82197472D01*
X167218382Y-82185212D01*
X167338080Y-82148902D01*
X167448394Y-82089937D01*
X167545085Y-82010585D01*
X167624437Y-81913894D01*
X167683402Y-81803580D01*
X167719712Y-81683882D01*
X167731972Y-81559400D01*
X168487828Y-81559400D01*
X168500088Y-81683882D01*
X168536398Y-81803580D01*
X168595363Y-81913894D01*
X168674715Y-82010585D01*
X168771406Y-82089937D01*
X168881720Y-82148902D01*
X169001418Y-82185212D01*
X169125900Y-82197472D01*
X170046650Y-82194400D01*
X170205400Y-82035650D01*
X170205400Y-79146400D01*
X170459400Y-79146400D01*
X170459400Y-82035650D01*
X170618150Y-82194400D01*
X171538900Y-82197472D01*
X171663382Y-82185212D01*
X171783080Y-82148902D01*
X171893394Y-82089937D01*
X171990085Y-82010585D01*
X172069437Y-81913894D01*
X172128402Y-81803580D01*
X172164712Y-81683882D01*
X172176972Y-81559400D01*
X173771028Y-81559400D01*
X173783288Y-81683882D01*
X173819598Y-81803580D01*
X173878563Y-81913894D01*
X173957915Y-82010585D01*
X174054606Y-82089937D01*
X174164920Y-82148902D01*
X174284618Y-82185212D01*
X174409100Y-82197472D01*
X175329850Y-82194400D01*
X175488600Y-82035650D01*
X175488600Y-79146400D01*
X175742600Y-79146400D01*
X175742600Y-82035650D01*
X175901350Y-82194400D01*
X176822100Y-82197472D01*
X176946582Y-82185212D01*
X177066280Y-82148902D01*
X177176594Y-82089937D01*
X177273285Y-82010585D01*
X177352637Y-81913894D01*
X177411602Y-81803580D01*
X177447912Y-81683882D01*
X177460172Y-81559400D01*
X177457100Y-79305150D01*
X177298350Y-79146400D01*
X175742600Y-79146400D01*
X175488600Y-79146400D01*
X173932850Y-79146400D01*
X173774100Y-79305150D01*
X173771028Y-81559400D01*
X172176972Y-81559400D01*
X172173900Y-79305150D01*
X172015150Y-79146400D01*
X170459400Y-79146400D01*
X170205400Y-79146400D01*
X168649650Y-79146400D01*
X168490900Y-79305150D01*
X168487828Y-81559400D01*
X167731972Y-81559400D01*
X167731972Y-76860194D01*
X168488348Y-76860750D01*
X168490900Y-78733650D01*
X168649650Y-78892400D01*
X170205400Y-78892400D01*
X170205400Y-78872400D01*
X170459400Y-78872400D01*
X170459400Y-78892400D01*
X172015150Y-78892400D01*
X172173900Y-78733650D01*
X172176449Y-76863458D01*
X173771553Y-76864629D01*
X173774100Y-78733650D01*
X173932850Y-78892400D01*
X175488600Y-78892400D01*
X175488600Y-78872400D01*
X175742600Y-78872400D01*
X175742600Y-78892400D01*
X177298350Y-78892400D01*
X177457100Y-78733650D01*
X177459643Y-76867337D01*
X178216028Y-76867893D01*
X178216028Y-81559400D01*
X178228288Y-81683882D01*
X178264598Y-81803580D01*
X178323563Y-81913894D01*
X178402915Y-82010585D01*
X178499606Y-82089937D01*
X178609920Y-82148902D01*
X178729618Y-82185212D01*
X178854100Y-82197472D01*
X181140100Y-82197472D01*
X181264582Y-82185212D01*
X181384280Y-82148902D01*
X181494594Y-82089937D01*
X181591285Y-82010585D01*
X181670637Y-81913894D01*
X181729602Y-81803580D01*
X181765912Y-81683882D01*
X181778172Y-81559400D01*
X182534028Y-81559400D01*
X182546288Y-81683882D01*
X182582598Y-81803580D01*
X182641563Y-81913894D01*
X182720915Y-82010585D01*
X182817606Y-82089937D01*
X182927920Y-82148902D01*
X183047618Y-82185212D01*
X183172100Y-82197472D01*
X184092850Y-82194400D01*
X184251600Y-82035650D01*
X184251600Y-79146400D01*
X184505600Y-79146400D01*
X184505600Y-82035650D01*
X184664350Y-82194400D01*
X185585100Y-82197472D01*
X185709582Y-82185212D01*
X185829280Y-82148902D01*
X185939594Y-82089937D01*
X186036285Y-82010585D01*
X186115637Y-81913894D01*
X186174602Y-81803580D01*
X186210912Y-81683882D01*
X186223172Y-81559400D01*
X186220100Y-79305150D01*
X186061350Y-79146400D01*
X184505600Y-79146400D01*
X184251600Y-79146400D01*
X182695850Y-79146400D01*
X182537100Y-79305150D01*
X182534028Y-81559400D01*
X181778172Y-81559400D01*
X181778172Y-76870508D01*
X182534562Y-76871064D01*
X182537100Y-78733650D01*
X182695850Y-78892400D01*
X184251600Y-78892400D01*
X184251600Y-78872400D01*
X184505600Y-78872400D01*
X184505600Y-78892400D01*
X186061350Y-78892400D01*
X186220100Y-78733650D01*
X186222635Y-76873772D01*
X201396252Y-76884914D01*
X201359649Y-109156222D01*
X171603188Y-109125613D01*
X172113402Y-108615400D01*
X172142401Y-108591601D01*
X172237374Y-108475876D01*
X172307946Y-108343847D01*
X172351403Y-108200586D01*
X172362400Y-108088933D01*
X172366077Y-108051600D01*
X172362400Y-108014267D01*
X172362400Y-102894623D01*
X172366076Y-102857300D01*
X172362400Y-102819977D01*
X172362400Y-102819967D01*
X172351403Y-102708314D01*
X172307946Y-102565053D01*
X172293154Y-102537379D01*
X172237374Y-102433023D01*
X172232982Y-102427672D01*
X173544600Y-102427672D01*
X173669082Y-102415412D01*
X173788780Y-102379102D01*
X173899094Y-102320137D01*
X173995785Y-102240785D01*
X174075137Y-102144094D01*
X174134102Y-102033780D01*
X174170412Y-101914082D01*
X174182672Y-101789600D01*
X174182672Y-100089600D01*
X174170412Y-99965118D01*
X174134102Y-99845420D01*
X174075137Y-99735106D01*
X173995785Y-99638415D01*
X173899094Y-99559063D01*
X173788780Y-99500098D01*
X173708134Y-99475634D01*
X173792188Y-99399869D01*
X173966241Y-99166520D01*
X174091425Y-98903699D01*
X174136076Y-98756490D01*
X174014755Y-98526600D01*
X172821600Y-98526600D01*
X172821600Y-98546600D01*
X172567600Y-98546600D01*
X172567600Y-98526600D01*
X171374445Y-98526600D01*
X171253124Y-98756490D01*
X171297775Y-98903699D01*
X171422959Y-99166520D01*
X171597012Y-99399869D01*
X171681066Y-99475634D01*
X171600420Y-99500098D01*
X171490106Y-99559063D01*
X171393415Y-99638415D01*
X171314063Y-99735106D01*
X171255098Y-99845420D01*
X171218788Y-99965118D01*
X171206528Y-100089600D01*
X171206528Y-101385277D01*
X171112276Y-101307926D01*
X170980247Y-101237354D01*
X170836986Y-101193897D01*
X170725333Y-101182900D01*
X170725322Y-101182900D01*
X170688000Y-101179224D01*
X170650678Y-101182900D01*
X165046502Y-101182900D01*
X164076304Y-100212703D01*
X164052501Y-100183699D01*
X163936776Y-100088726D01*
X163804747Y-100018154D01*
X163661486Y-99974697D01*
X163549833Y-99963700D01*
X163549822Y-99963700D01*
X163512500Y-99960024D01*
X163475178Y-99963700D01*
X162849808Y-99963700D01*
X162920226Y-99793698D01*
X162960000Y-99593739D01*
X162960000Y-99389861D01*
X162923270Y-99205203D01*
X162958638Y-99215932D01*
X163083120Y-99228192D01*
X163334870Y-99225120D01*
X163493620Y-99066370D01*
X163493620Y-98242120D01*
X163747620Y-98242120D01*
X163747620Y-99066370D01*
X163906370Y-99225120D01*
X164158120Y-99228192D01*
X164282602Y-99215932D01*
X164402300Y-99179622D01*
X164512614Y-99120657D01*
X164609305Y-99041305D01*
X164688657Y-98944614D01*
X164747622Y-98834300D01*
X164783932Y-98714602D01*
X164796192Y-98590120D01*
X164793120Y-98400870D01*
X164634370Y-98242120D01*
X163747620Y-98242120D01*
X163493620Y-98242120D01*
X163473620Y-98242120D01*
X163473620Y-98042710D01*
X171253124Y-98042710D01*
X171374445Y-98272600D01*
X172567600Y-98272600D01*
X172567600Y-97078786D01*
X172821600Y-97078786D01*
X172821600Y-98272600D01*
X174014755Y-98272600D01*
X174136076Y-98042710D01*
X174091425Y-97895501D01*
X173966241Y-97632680D01*
X173792188Y-97399331D01*
X173575955Y-97204422D01*
X173325852Y-97055443D01*
X173051491Y-96958119D01*
X172821600Y-97078786D01*
X172567600Y-97078786D01*
X172337709Y-96958119D01*
X172063348Y-97055443D01*
X171813245Y-97204422D01*
X171597012Y-97399331D01*
X171422959Y-97632680D01*
X171297775Y-97895501D01*
X171253124Y-98042710D01*
X163473620Y-98042710D01*
X163473620Y-97988120D01*
X163493620Y-97988120D01*
X163493620Y-97163870D01*
X163747620Y-97163870D01*
X163747620Y-97988120D01*
X164634370Y-97988120D01*
X164793120Y-97829370D01*
X164796192Y-97640120D01*
X164783932Y-97515638D01*
X164747622Y-97395940D01*
X164688657Y-97285626D01*
X164609305Y-97188935D01*
X164512614Y-97109583D01*
X164402300Y-97050618D01*
X164282602Y-97014308D01*
X164158120Y-97002048D01*
X163906370Y-97005120D01*
X163747620Y-97163870D01*
X163493620Y-97163870D01*
X163334870Y-97005120D01*
X163112704Y-97002409D01*
X163128637Y-96982995D01*
X163187602Y-96872681D01*
X163223912Y-96752983D01*
X163236172Y-96628501D01*
X163236172Y-96560700D01*
X170658778Y-96560700D01*
X170696100Y-96564376D01*
X170733422Y-96560700D01*
X170733433Y-96560700D01*
X170845086Y-96549703D01*
X170988347Y-96506246D01*
X171113083Y-96439572D01*
X196215200Y-96439572D01*
X196215200Y-96879828D01*
X196301090Y-97311625D01*
X196469569Y-97718369D01*
X196714162Y-98084429D01*
X197025471Y-98395738D01*
X197391531Y-98640331D01*
X197798275Y-98808810D01*
X198230072Y-98894700D01*
X198670328Y-98894700D01*
X199102125Y-98808810D01*
X199508869Y-98640331D01*
X199874929Y-98395738D01*
X200186238Y-98084429D01*
X200430831Y-97718369D01*
X200599310Y-97311625D01*
X200685200Y-96879828D01*
X200685200Y-96439572D01*
X200599310Y-96007775D01*
X200430831Y-95601031D01*
X200186238Y-95234971D01*
X199874929Y-94923662D01*
X199508869Y-94679069D01*
X199102125Y-94510590D01*
X198670328Y-94424700D01*
X198230072Y-94424700D01*
X197798275Y-94510590D01*
X197391531Y-94679069D01*
X197025471Y-94923662D01*
X196714162Y-95234971D01*
X196469569Y-95601031D01*
X196301090Y-96007775D01*
X196215200Y-96439572D01*
X171113083Y-96439572D01*
X171120376Y-96435674D01*
X171236101Y-96340701D01*
X171259904Y-96311698D01*
X171436439Y-96135162D01*
X171452006Y-96147937D01*
X171562320Y-96206902D01*
X171682018Y-96243212D01*
X171806500Y-96255472D01*
X173506500Y-96255472D01*
X173630982Y-96243212D01*
X173750680Y-96206902D01*
X173860994Y-96147937D01*
X173957685Y-96068585D01*
X174037037Y-95971894D01*
X174096002Y-95861580D01*
X174132312Y-95741882D01*
X174144572Y-95617400D01*
X174144572Y-93917400D01*
X174132312Y-93792918D01*
X174096002Y-93673220D01*
X174037037Y-93562906D01*
X173957685Y-93466215D01*
X173860994Y-93386863D01*
X173750680Y-93327898D01*
X173678120Y-93305887D01*
X173809975Y-93174032D01*
X173972490Y-92930811D01*
X174084432Y-92660558D01*
X174141500Y-92373660D01*
X174141500Y-92081140D01*
X174084432Y-91794242D01*
X173972490Y-91523989D01*
X173809975Y-91280768D01*
X173603132Y-91073925D01*
X173428740Y-90957400D01*
X173603132Y-90840875D01*
X173809975Y-90634032D01*
X173972490Y-90390811D01*
X174084432Y-90120558D01*
X174141500Y-89833660D01*
X174141500Y-89541140D01*
X174084432Y-89254242D01*
X173972490Y-88983989D01*
X173809975Y-88740768D01*
X173603132Y-88533925D01*
X173428740Y-88417400D01*
X173603132Y-88300875D01*
X173809975Y-88094032D01*
X173972490Y-87850811D01*
X174084432Y-87580558D01*
X174141500Y-87293660D01*
X174141500Y-87001140D01*
X174084432Y-86714242D01*
X173972490Y-86443989D01*
X173809975Y-86200768D01*
X173603132Y-85993925D01*
X173359911Y-85831410D01*
X173089658Y-85719468D01*
X172802760Y-85662400D01*
X172510240Y-85662400D01*
X172223342Y-85719468D01*
X171953089Y-85831410D01*
X171709868Y-85993925D01*
X171503025Y-86200768D01*
X171378585Y-86387005D01*
X171374576Y-86387400D01*
X171374567Y-86387400D01*
X171262914Y-86398397D01*
X171119653Y-86441854D01*
X170987624Y-86512426D01*
X170871899Y-86607399D01*
X170848096Y-86636403D01*
X170545298Y-86939201D01*
X170516300Y-86962999D01*
X170492502Y-86991997D01*
X170492501Y-86991998D01*
X170421326Y-87078724D01*
X170350754Y-87210754D01*
X170307298Y-87354015D01*
X170292624Y-87503000D01*
X170296301Y-87540332D01*
X170296300Y-88648698D01*
X169770598Y-89174401D01*
X169741600Y-89198199D01*
X169717802Y-89227197D01*
X169717801Y-89227198D01*
X169646626Y-89313924D01*
X169576054Y-89445954D01*
X169532598Y-89589215D01*
X169517924Y-89738200D01*
X169521601Y-89775532D01*
X169521600Y-90972798D01*
X168983198Y-91511201D01*
X168954200Y-91534999D01*
X168930402Y-91563997D01*
X168930401Y-91563998D01*
X168859226Y-91650724D01*
X168788654Y-91782754D01*
X168772264Y-91836787D01*
X168746242Y-91922574D01*
X168745198Y-91926015D01*
X168730524Y-92075000D01*
X168734201Y-92112332D01*
X168734200Y-93078001D01*
X163236172Y-93078001D01*
X163236172Y-93022900D01*
X163223912Y-92898418D01*
X163217377Y-92876874D01*
X163221850Y-92862931D01*
X163233100Y-92760251D01*
X163074350Y-92601501D01*
X163073730Y-92601501D01*
X163049285Y-92571715D01*
X162961779Y-92499901D01*
X163074350Y-92499901D01*
X163233100Y-92341151D01*
X163221850Y-92238471D01*
X163183639Y-92119367D01*
X163122926Y-92010005D01*
X163042044Y-91914590D01*
X162944102Y-91836787D01*
X162832863Y-91779586D01*
X162712602Y-91745187D01*
X162587941Y-91734910D01*
X162204400Y-91737901D01*
X162045650Y-91896651D01*
X162045650Y-92384828D01*
X161791650Y-92384828D01*
X161791650Y-91896651D01*
X161632900Y-91737901D01*
X161249359Y-91734910D01*
X161124698Y-91745187D01*
X161004437Y-91779586D01*
X160893198Y-91836787D01*
X160795256Y-91914590D01*
X160714374Y-92010005D01*
X160653661Y-92119367D01*
X160615450Y-92238471D01*
X160604200Y-92341151D01*
X160762950Y-92499901D01*
X160875521Y-92499901D01*
X160788015Y-92571715D01*
X160763570Y-92601501D01*
X160762950Y-92601501D01*
X160604200Y-92760251D01*
X160615450Y-92862931D01*
X160619923Y-92876874D01*
X160613388Y-92898418D01*
X160601128Y-93022900D01*
X160601128Y-93378500D01*
X160613388Y-93502982D01*
X160620280Y-93525701D01*
X160613388Y-93548419D01*
X160601128Y-93672901D01*
X160601128Y-93740700D01*
X160415473Y-93740700D01*
X160378140Y-93737023D01*
X160340807Y-93740700D01*
X160229154Y-93751697D01*
X160085893Y-93795154D01*
X159953864Y-93865726D01*
X159838139Y-93960699D01*
X159814341Y-93989697D01*
X158861298Y-94942741D01*
X158832300Y-94966539D01*
X158808502Y-94995537D01*
X158808501Y-94995538D01*
X158737326Y-95082264D01*
X158666754Y-95214294D01*
X158638511Y-95307401D01*
X158623298Y-95357554D01*
X158616138Y-95430246D01*
X158608624Y-95506540D01*
X158612301Y-95543872D01*
X158612300Y-100437457D01*
X158608624Y-100474780D01*
X158612300Y-100512102D01*
X158612300Y-100512112D01*
X158623297Y-100623765D01*
X158661879Y-100750955D01*
X158666754Y-100767026D01*
X158737326Y-100899056D01*
X158771114Y-100940226D01*
X158832299Y-101014781D01*
X158861303Y-101038584D01*
X160142137Y-102319419D01*
X160081220Y-102337898D01*
X160025400Y-102367735D01*
X159969580Y-102337898D01*
X159849882Y-102301588D01*
X159725400Y-102289328D01*
X159325400Y-102289328D01*
X159200918Y-102301588D01*
X159081220Y-102337898D01*
X159025400Y-102367735D01*
X158969580Y-102337898D01*
X158849882Y-102301588D01*
X158725400Y-102289328D01*
X158325400Y-102289328D01*
X158200918Y-102301588D01*
X158081220Y-102337898D01*
X158025456Y-102367705D01*
X157977928Y-102341426D01*
X157858758Y-102303420D01*
X157757150Y-102292400D01*
X157598400Y-102451150D01*
X157598400Y-103600400D01*
X157672400Y-103600400D01*
X157672400Y-103854400D01*
X157598400Y-103854400D01*
X157598400Y-103874400D01*
X157452400Y-103874400D01*
X157452400Y-103854400D01*
X157378400Y-103854400D01*
X157378400Y-103600400D01*
X157452400Y-103600400D01*
X157452400Y-102451150D01*
X157293650Y-102292400D01*
X157192042Y-102303420D01*
X157072872Y-102341426D01*
X157025344Y-102367705D01*
X156972404Y-102339407D01*
X157052037Y-102259774D01*
X157165305Y-102090256D01*
X157243326Y-101901898D01*
X157283100Y-101701939D01*
X157283100Y-101498061D01*
X157243326Y-101298102D01*
X157165305Y-101109744D01*
X157052037Y-100940226D01*
X156907874Y-100796063D01*
X156738356Y-100682795D01*
X156549998Y-100604774D01*
X156350039Y-100565000D01*
X156146161Y-100565000D01*
X155946202Y-100604774D01*
X155757844Y-100682795D01*
X155588326Y-100796063D01*
X155444163Y-100940226D01*
X155330895Y-101109744D01*
X155252874Y-101298102D01*
X155226734Y-101429520D01*
X155031208Y-101625046D01*
X155003162Y-101648063D01*
X154911313Y-101759981D01*
X154843063Y-101887668D01*
X154817289Y-101972633D01*
X154801035Y-102026215D01*
X154786844Y-102170300D01*
X154790400Y-102206405D01*
X154790400Y-102296006D01*
X154757150Y-102292400D01*
X154652402Y-102397148D01*
X154652402Y-102292400D01*
X154555611Y-102292400D01*
X154562837Y-102285174D01*
X154676105Y-102115656D01*
X154754126Y-101927298D01*
X154793900Y-101727339D01*
X154793900Y-101523461D01*
X154754126Y-101323502D01*
X154676105Y-101135144D01*
X154562837Y-100965626D01*
X154418674Y-100821463D01*
X154249156Y-100708195D01*
X154060798Y-100630174D01*
X153860839Y-100590400D01*
X153656961Y-100590400D01*
X153457002Y-100630174D01*
X153268644Y-100708195D01*
X153099126Y-100821463D01*
X152954963Y-100965626D01*
X152841695Y-101135144D01*
X152763674Y-101323502D01*
X152723900Y-101523461D01*
X152723900Y-101727339D01*
X152763674Y-101927298D01*
X152790401Y-101991822D01*
X152790401Y-102295730D01*
X152725400Y-102289328D01*
X152325400Y-102289328D01*
X152200918Y-102301588D01*
X152081220Y-102337898D01*
X152025400Y-102367735D01*
X151969580Y-102337898D01*
X151849882Y-102301588D01*
X151725400Y-102289328D01*
X151325400Y-102289328D01*
X151200918Y-102301588D01*
X151081220Y-102337898D01*
X151025400Y-102367735D01*
X150969580Y-102337898D01*
X150849882Y-102301588D01*
X150725400Y-102289328D01*
X150325400Y-102289328D01*
X150200918Y-102301588D01*
X150081220Y-102337898D01*
X149970906Y-102396863D01*
X149874215Y-102476215D01*
X149794863Y-102572906D01*
X149735898Y-102683220D01*
X149699588Y-102802918D01*
X149687328Y-102927400D01*
X149687328Y-104527400D01*
X149699588Y-104651882D01*
X149714267Y-104700273D01*
X149700918Y-104701588D01*
X149581220Y-104737898D01*
X149544553Y-104757497D01*
X149660400Y-104641650D01*
X149663472Y-103477400D01*
X149651212Y-103352918D01*
X149614902Y-103233220D01*
X149555937Y-103122906D01*
X149476585Y-103026215D01*
X149379894Y-102946863D01*
X149269580Y-102887898D01*
X149149882Y-102851588D01*
X149025400Y-102839328D01*
X148611150Y-102842400D01*
X148452400Y-103001150D01*
X148452400Y-104800400D01*
X148472400Y-104800400D01*
X148472400Y-105054400D01*
X148452400Y-105054400D01*
X148452400Y-106853650D01*
X148611150Y-107012400D01*
X149025400Y-107015472D01*
X149149882Y-107003212D01*
X149193492Y-106989983D01*
X149199588Y-107051882D01*
X149235898Y-107171580D01*
X149294863Y-107281894D01*
X149313579Y-107304700D01*
X147683258Y-107304700D01*
X147304395Y-106925837D01*
X147381220Y-106966902D01*
X147500918Y-107003212D01*
X147625400Y-107015472D01*
X148039650Y-107012400D01*
X148198400Y-106853650D01*
X148198400Y-105054400D01*
X148178400Y-105054400D01*
X148178400Y-104800400D01*
X148198400Y-104800400D01*
X148198400Y-103001150D01*
X148039650Y-102842400D01*
X147625400Y-102839328D01*
X147523714Y-102849343D01*
X148365970Y-102007087D01*
X148395924Y-101982504D01*
X148494022Y-101862973D01*
X148566914Y-101726600D01*
X148567733Y-101723899D01*
X148611802Y-101578627D01*
X148621151Y-101483700D01*
X148623160Y-101463301D01*
X148623160Y-101463296D01*
X148626957Y-101424740D01*
X148623160Y-101386184D01*
X148623160Y-100721197D01*
X148922777Y-100421580D01*
X149065496Y-100421580D01*
X149066968Y-100426431D01*
X149149035Y-100579967D01*
X149259478Y-100714542D01*
X149394053Y-100824985D01*
X149547589Y-100907052D01*
X149714185Y-100957588D01*
X149887439Y-100974652D01*
X150587441Y-100974652D01*
X150760695Y-100957588D01*
X150927291Y-100907052D01*
X151080827Y-100824985D01*
X151215402Y-100714542D01*
X151237440Y-100687689D01*
X151259478Y-100714542D01*
X151394053Y-100824985D01*
X151547589Y-100907052D01*
X151714185Y-100957588D01*
X151887439Y-100974652D01*
X152587441Y-100974652D01*
X152760695Y-100957588D01*
X152927291Y-100907052D01*
X153080827Y-100824985D01*
X153215402Y-100714542D01*
X153325845Y-100579967D01*
X153407912Y-100426431D01*
X153408747Y-100423678D01*
X153469702Y-100448926D01*
X153669661Y-100488700D01*
X153873539Y-100488700D01*
X154073498Y-100448926D01*
X154261856Y-100370905D01*
X154431374Y-100257637D01*
X154575537Y-100113474D01*
X154688805Y-99943956D01*
X154766826Y-99755598D01*
X154806600Y-99555639D01*
X154806600Y-99528857D01*
X155596085Y-98739372D01*
X155626034Y-98714794D01*
X155724132Y-98595263D01*
X155797024Y-98458890D01*
X155841911Y-98310917D01*
X155853270Y-98195591D01*
X155853270Y-98195584D01*
X155857067Y-98157031D01*
X155853270Y-98118478D01*
X155853270Y-97266571D01*
X156845000Y-97266571D01*
X156969482Y-97254311D01*
X157089180Y-97218001D01*
X157199494Y-97159036D01*
X157296185Y-97079684D01*
X157375537Y-96982993D01*
X157434502Y-96872679D01*
X157470812Y-96752981D01*
X157483072Y-96628499D01*
X157483072Y-96272899D01*
X157470812Y-96148417D01*
X157463921Y-96125700D01*
X157470812Y-96102982D01*
X157483072Y-95978500D01*
X157483072Y-95622900D01*
X157470812Y-95498418D01*
X157463920Y-95475700D01*
X157470812Y-95452981D01*
X157483072Y-95328499D01*
X157483072Y-94972899D01*
X157470812Y-94848417D01*
X157463921Y-94825700D01*
X157470812Y-94802982D01*
X157483072Y-94678500D01*
X157483072Y-94322900D01*
X157470812Y-94198418D01*
X157463920Y-94175700D01*
X157470812Y-94152981D01*
X157483072Y-94028499D01*
X157483072Y-93672899D01*
X157470812Y-93548417D01*
X157463921Y-93525699D01*
X157470812Y-93502982D01*
X157483072Y-93378500D01*
X157483072Y-93022900D01*
X157470812Y-92898418D01*
X157463920Y-92875700D01*
X157470812Y-92852981D01*
X157483072Y-92728499D01*
X157483072Y-92372899D01*
X157470812Y-92248417D01*
X157434502Y-92128719D01*
X157375537Y-92018405D01*
X157296185Y-91921714D01*
X157199494Y-91842362D01*
X157089180Y-91783397D01*
X156969482Y-91747087D01*
X156845000Y-91734827D01*
X155486100Y-91734827D01*
X155361618Y-91747087D01*
X155259715Y-91777999D01*
X150155201Y-91777999D01*
X147673600Y-89296399D01*
X147673600Y-88746825D01*
X147677276Y-88709500D01*
X147673600Y-88672175D01*
X147673600Y-88672167D01*
X147662603Y-88560514D01*
X147619146Y-88417253D01*
X147548574Y-88285224D01*
X147453601Y-88169499D01*
X147424603Y-88145701D01*
X146526010Y-87247108D01*
X146569800Y-87026960D01*
X146569800Y-86734440D01*
X146512732Y-86447542D01*
X146400790Y-86177289D01*
X146238275Y-85934068D01*
X146031432Y-85727225D01*
X145788211Y-85564710D01*
X145517958Y-85452768D01*
X145231060Y-85395700D01*
X144938540Y-85395700D01*
X144651642Y-85452768D01*
X144381389Y-85564710D01*
X144138168Y-85727225D01*
X143931325Y-85934068D01*
X143768810Y-86177289D01*
X143656868Y-86447542D01*
X143599800Y-86734440D01*
X143599800Y-87026960D01*
X143656868Y-87313858D01*
X143768810Y-87584111D01*
X143931325Y-87827332D01*
X144138168Y-88034175D01*
X144312560Y-88150700D01*
X144138168Y-88267225D01*
X143931325Y-88474068D01*
X143768810Y-88717289D01*
X143656868Y-88987542D01*
X143599800Y-89274440D01*
X143599800Y-89566960D01*
X143656868Y-89853858D01*
X143768810Y-90124111D01*
X143931325Y-90367332D01*
X144138168Y-90574175D01*
X144312560Y-90690700D01*
X144138168Y-90807225D01*
X143931325Y-91014068D01*
X143768810Y-91257289D01*
X143656868Y-91527542D01*
X143599800Y-91814440D01*
X143599800Y-92106960D01*
X143656868Y-92393858D01*
X143768810Y-92664111D01*
X143931325Y-92907332D01*
X144063180Y-93039187D01*
X143990620Y-93061198D01*
X143880306Y-93120163D01*
X143783615Y-93199515D01*
X143704263Y-93296206D01*
X143645298Y-93406520D01*
X143608988Y-93526218D01*
X143596728Y-93650700D01*
X143596728Y-95350700D01*
X143608988Y-95475182D01*
X143645298Y-95594880D01*
X143704263Y-95705194D01*
X143783615Y-95801885D01*
X143880306Y-95881237D01*
X143990620Y-95940202D01*
X144110318Y-95976512D01*
X144234800Y-95988772D01*
X145934800Y-95988772D01*
X146059282Y-95976512D01*
X146178980Y-95940202D01*
X146289294Y-95881237D01*
X146385985Y-95801885D01*
X146465337Y-95705194D01*
X146524302Y-95594880D01*
X146560612Y-95475182D01*
X146572872Y-95350700D01*
X146572872Y-95286100D01*
X146713099Y-95286100D01*
X147075999Y-95649001D01*
X147099798Y-95678000D01*
X147215523Y-95772973D01*
X147347552Y-95843545D01*
X147490813Y-95887002D01*
X147602466Y-95897999D01*
X147602476Y-95897999D01*
X147639799Y-95901675D01*
X147677122Y-95897999D01*
X150668500Y-95897999D01*
X150668500Y-96139000D01*
X150648500Y-96139000D01*
X150648500Y-96159000D01*
X150394500Y-96159000D01*
X150394500Y-96139000D01*
X149507750Y-96139000D01*
X149349000Y-96297750D01*
X149345928Y-96487000D01*
X149351432Y-96542881D01*
X149253638Y-96623138D01*
X149143195Y-96757713D01*
X149061128Y-96911249D01*
X149045949Y-96961289D01*
X149009500Y-96972346D01*
X148873127Y-97045238D01*
X148831155Y-97079684D01*
X148783547Y-97118755D01*
X148783544Y-97118758D01*
X148753596Y-97143336D01*
X148729018Y-97173284D01*
X146627090Y-99275213D01*
X146597136Y-99299796D01*
X146499038Y-99419328D01*
X146426146Y-99555701D01*
X146424090Y-99562478D01*
X146414537Y-99544606D01*
X146335185Y-99447915D01*
X146238494Y-99368563D01*
X146128180Y-99309598D01*
X146047534Y-99285134D01*
X146131588Y-99209369D01*
X146305641Y-98976020D01*
X146430825Y-98713199D01*
X146475476Y-98565990D01*
X146354155Y-98336100D01*
X145161000Y-98336100D01*
X145161000Y-98356100D01*
X144907000Y-98356100D01*
X144907000Y-98336100D01*
X143713845Y-98336100D01*
X143592524Y-98565990D01*
X143637175Y-98713199D01*
X143762359Y-98976020D01*
X143936412Y-99209369D01*
X144020466Y-99285134D01*
X143939820Y-99309598D01*
X143829506Y-99368563D01*
X143732815Y-99447915D01*
X143653463Y-99544606D01*
X143594498Y-99654920D01*
X143558188Y-99774618D01*
X143545928Y-99899100D01*
X143545928Y-101599100D01*
X143558188Y-101723582D01*
X143594498Y-101843280D01*
X143653463Y-101953594D01*
X143732815Y-102050285D01*
X143829506Y-102129637D01*
X143939820Y-102188602D01*
X144059518Y-102224912D01*
X144184000Y-102237172D01*
X145164658Y-102237172D01*
X145100636Y-102356951D01*
X145055749Y-102504924D01*
X145044390Y-102620250D01*
X145044390Y-102620257D01*
X145040593Y-102658810D01*
X145044390Y-102697363D01*
X145044391Y-107229547D01*
X145040593Y-107268110D01*
X145055749Y-107421996D01*
X145100636Y-107569969D01*
X145125301Y-107616114D01*
X145173529Y-107706343D01*
X145203893Y-107743341D01*
X145247045Y-107795922D01*
X145247049Y-107795926D01*
X145271627Y-107825874D01*
X145301575Y-107850452D01*
X146550965Y-109099843D01*
X116255150Y-109068679D01*
X116250382Y-96464972D01*
X116992600Y-96464972D01*
X116992600Y-96905228D01*
X117078490Y-97337025D01*
X117246969Y-97743769D01*
X117491562Y-98109829D01*
X117802871Y-98421138D01*
X118168931Y-98665731D01*
X118575675Y-98834210D01*
X119007472Y-98920100D01*
X119447728Y-98920100D01*
X119879525Y-98834210D01*
X120286269Y-98665731D01*
X120652329Y-98421138D01*
X120963638Y-98109829D01*
X121135773Y-97852210D01*
X143592524Y-97852210D01*
X143713845Y-98082100D01*
X144907000Y-98082100D01*
X144907000Y-96888286D01*
X145161000Y-96888286D01*
X145161000Y-98082100D01*
X146354155Y-98082100D01*
X146475476Y-97852210D01*
X146430825Y-97705001D01*
X146305641Y-97442180D01*
X146131588Y-97208831D01*
X145915355Y-97013922D01*
X145665252Y-96864943D01*
X145390891Y-96767619D01*
X145161000Y-96888286D01*
X144907000Y-96888286D01*
X144677109Y-96767619D01*
X144402748Y-96864943D01*
X144152645Y-97013922D01*
X143936412Y-97208831D01*
X143762359Y-97442180D01*
X143637175Y-97705001D01*
X143592524Y-97852210D01*
X121135773Y-97852210D01*
X121208231Y-97743769D01*
X121376710Y-97337025D01*
X121462600Y-96905228D01*
X121462600Y-96464972D01*
X121376710Y-96033175D01*
X121208231Y-95626431D01*
X120963638Y-95260371D01*
X120652329Y-94949062D01*
X120286269Y-94704469D01*
X119879525Y-94535990D01*
X119447728Y-94450100D01*
X119007472Y-94450100D01*
X118575675Y-94535990D01*
X118168931Y-94704469D01*
X117802871Y-94949062D01*
X117491562Y-95260371D01*
X117246969Y-95626431D01*
X117078490Y-96033175D01*
X116992600Y-96464972D01*
X116250382Y-96464972D01*
X116244761Y-81610200D01*
X131835628Y-81610200D01*
X131847888Y-81734682D01*
X131884198Y-81854380D01*
X131943163Y-81964694D01*
X132022515Y-82061385D01*
X132119206Y-82140737D01*
X132229520Y-82199702D01*
X132349218Y-82236012D01*
X132473700Y-82248272D01*
X133394450Y-82245200D01*
X133553200Y-82086450D01*
X133553200Y-79197200D01*
X133807200Y-79197200D01*
X133807200Y-82086450D01*
X133965950Y-82245200D01*
X134886700Y-82248272D01*
X135011182Y-82236012D01*
X135130880Y-82199702D01*
X135241194Y-82140737D01*
X135337885Y-82061385D01*
X135417237Y-81964694D01*
X135476202Y-81854380D01*
X135512512Y-81734682D01*
X135524772Y-81610200D01*
X135521700Y-79355950D01*
X135362950Y-79197200D01*
X133807200Y-79197200D01*
X133553200Y-79197200D01*
X131997450Y-79197200D01*
X131838700Y-79355950D01*
X131835628Y-81610200D01*
X116244761Y-81610200D01*
X116242949Y-76822385D01*
X131836042Y-76833835D01*
%TA.AperFunction,Conductor*%
D23*
G36*
X131836042Y-76833835D02*
G01*
X131838700Y-78784450D01*
X131997450Y-78943200D01*
X133553200Y-78943200D01*
X133553200Y-78923200D01*
X133807200Y-78923200D01*
X133807200Y-78943200D01*
X135362950Y-78943200D01*
X135521700Y-78784450D01*
X135524355Y-76836544D01*
X136280628Y-76837099D01*
X136280628Y-81610200D01*
X136292888Y-81734682D01*
X136329198Y-81854380D01*
X136388163Y-81964694D01*
X136467515Y-82061385D01*
X136564206Y-82140737D01*
X136674520Y-82199702D01*
X136794218Y-82236012D01*
X136918700Y-82248272D01*
X139204700Y-82248272D01*
X139329182Y-82236012D01*
X139448880Y-82199702D01*
X139559194Y-82140737D01*
X139655885Y-82061385D01*
X139735237Y-81964694D01*
X139794202Y-81854380D01*
X139830512Y-81734682D01*
X139842772Y-81610200D01*
X140598628Y-81610200D01*
X140610888Y-81734682D01*
X140647198Y-81854380D01*
X140706163Y-81964694D01*
X140785515Y-82061385D01*
X140882206Y-82140737D01*
X140992520Y-82199702D01*
X141112218Y-82236012D01*
X141236700Y-82248272D01*
X142157450Y-82245200D01*
X142316200Y-82086450D01*
X142316200Y-79197200D01*
X142570200Y-79197200D01*
X142570200Y-82086450D01*
X142728950Y-82245200D01*
X143649700Y-82248272D01*
X143774182Y-82236012D01*
X143893880Y-82199702D01*
X144004194Y-82140737D01*
X144100885Y-82061385D01*
X144180237Y-81964694D01*
X144239202Y-81854380D01*
X144275512Y-81734682D01*
X144287772Y-81610200D01*
X144287703Y-81559400D01*
X145754828Y-81559400D01*
X145767088Y-81683882D01*
X145803398Y-81803580D01*
X145862363Y-81913894D01*
X145941715Y-82010585D01*
X146038406Y-82089937D01*
X146148720Y-82148902D01*
X146268418Y-82185212D01*
X146392900Y-82197472D01*
X147313650Y-82194400D01*
X147472400Y-82035650D01*
X147472400Y-79146400D01*
X147726400Y-79146400D01*
X147726400Y-82035650D01*
X147885150Y-82194400D01*
X148805900Y-82197472D01*
X148930382Y-82185212D01*
X149050080Y-82148902D01*
X149160394Y-82089937D01*
X149257085Y-82010585D01*
X149336437Y-81913894D01*
X149395402Y-81803580D01*
X149431712Y-81683882D01*
X149443972Y-81559400D01*
X149440900Y-79305150D01*
X149282150Y-79146400D01*
X147726400Y-79146400D01*
X147472400Y-79146400D01*
X145916650Y-79146400D01*
X145757900Y-79305150D01*
X145754828Y-81559400D01*
X144287703Y-81559400D01*
X144284700Y-79355950D01*
X144125950Y-79197200D01*
X142570200Y-79197200D01*
X142316200Y-79197200D01*
X140760450Y-79197200D01*
X140601700Y-79355950D01*
X140598628Y-81610200D01*
X139842772Y-81610200D01*
X139842772Y-76839715D01*
X140599051Y-76840270D01*
X140601700Y-78784450D01*
X140760450Y-78943200D01*
X142316200Y-78943200D01*
X142316200Y-78923200D01*
X142570200Y-78923200D01*
X142570200Y-78943200D01*
X144125950Y-78943200D01*
X144284700Y-78784450D01*
X144287346Y-76842978D01*
X145755325Y-76844056D01*
X145757900Y-78733650D01*
X145916650Y-78892400D01*
X147472400Y-78892400D01*
X147472400Y-78872400D01*
X147726400Y-78872400D01*
X147726400Y-78892400D01*
X149282150Y-78892400D01*
X149440900Y-78733650D01*
X149443471Y-76846765D01*
X150199828Y-76847320D01*
X150199828Y-81559400D01*
X150212088Y-81683882D01*
X150248398Y-81803580D01*
X150307363Y-81913894D01*
X150386715Y-82010585D01*
X150483406Y-82089937D01*
X150593720Y-82148902D01*
X150713418Y-82185212D01*
X150837900Y-82197472D01*
X153123900Y-82197472D01*
X153248382Y-82185212D01*
X153368080Y-82148902D01*
X153478394Y-82089937D01*
X153575085Y-82010585D01*
X153654437Y-81913894D01*
X153713402Y-81803580D01*
X153749712Y-81683882D01*
X153761972Y-81559400D01*
X154517828Y-81559400D01*
X154530088Y-81683882D01*
X154566398Y-81803580D01*
X154625363Y-81913894D01*
X154704715Y-82010585D01*
X154801406Y-82089937D01*
X154911720Y-82148902D01*
X155031418Y-82185212D01*
X155155900Y-82197472D01*
X156076650Y-82194400D01*
X156235400Y-82035650D01*
X156235400Y-79146400D01*
X156489400Y-79146400D01*
X156489400Y-82035650D01*
X156648150Y-82194400D01*
X157568900Y-82197472D01*
X157693382Y-82185212D01*
X157813080Y-82148902D01*
X157923394Y-82089937D01*
X158020085Y-82010585D01*
X158099437Y-81913894D01*
X158158402Y-81803580D01*
X158194712Y-81683882D01*
X158206972Y-81559400D01*
X159724828Y-81559400D01*
X159737088Y-81683882D01*
X159773398Y-81803580D01*
X159832363Y-81913894D01*
X159911715Y-82010585D01*
X160008406Y-82089937D01*
X160118720Y-82148902D01*
X160238418Y-82185212D01*
X160362900Y-82197472D01*
X161283650Y-82194400D01*
X161442400Y-82035650D01*
X161442400Y-79146400D01*
X161696400Y-79146400D01*
X161696400Y-82035650D01*
X161855150Y-82194400D01*
X162775900Y-82197472D01*
X162900382Y-82185212D01*
X163020080Y-82148902D01*
X163130394Y-82089937D01*
X163227085Y-82010585D01*
X163306437Y-81913894D01*
X163365402Y-81803580D01*
X163401712Y-81683882D01*
X163413972Y-81559400D01*
X163410900Y-79305150D01*
X163252150Y-79146400D01*
X161696400Y-79146400D01*
X161442400Y-79146400D01*
X159886650Y-79146400D01*
X159727900Y-79305150D01*
X159724828Y-81559400D01*
X158206972Y-81559400D01*
X158203900Y-79305150D01*
X158045150Y-79146400D01*
X156489400Y-79146400D01*
X156235400Y-79146400D01*
X154679650Y-79146400D01*
X154520900Y-79305150D01*
X154517828Y-81559400D01*
X153761972Y-81559400D01*
X153761972Y-76849936D01*
X154518334Y-76850491D01*
X154520900Y-78733650D01*
X154679650Y-78892400D01*
X156235400Y-78892400D01*
X156235400Y-78872400D01*
X156489400Y-78872400D01*
X156489400Y-78892400D01*
X158045150Y-78892400D01*
X158203900Y-78733650D01*
X158206463Y-76853199D01*
X159725339Y-76854315D01*
X159727900Y-78733650D01*
X159886650Y-78892400D01*
X161442400Y-78892400D01*
X161442400Y-78872400D01*
X161696400Y-78872400D01*
X161696400Y-78892400D01*
X163252150Y-78892400D01*
X163410900Y-78733650D01*
X163413457Y-76857023D01*
X164169828Y-76857578D01*
X164169828Y-81559400D01*
X164182088Y-81683882D01*
X164218398Y-81803580D01*
X164277363Y-81913894D01*
X164356715Y-82010585D01*
X164453406Y-82089937D01*
X164563720Y-82148902D01*
X164683418Y-82185212D01*
X164807900Y-82197472D01*
X167093900Y-82197472D01*
X167218382Y-82185212D01*
X167338080Y-82148902D01*
X167448394Y-82089937D01*
X167545085Y-82010585D01*
X167624437Y-81913894D01*
X167683402Y-81803580D01*
X167719712Y-81683882D01*
X167731972Y-81559400D01*
X168487828Y-81559400D01*
X168500088Y-81683882D01*
X168536398Y-81803580D01*
X168595363Y-81913894D01*
X168674715Y-82010585D01*
X168771406Y-82089937D01*
X168881720Y-82148902D01*
X169001418Y-82185212D01*
X169125900Y-82197472D01*
X170046650Y-82194400D01*
X170205400Y-82035650D01*
X170205400Y-79146400D01*
X170459400Y-79146400D01*
X170459400Y-82035650D01*
X170618150Y-82194400D01*
X171538900Y-82197472D01*
X171663382Y-82185212D01*
X171783080Y-82148902D01*
X171893394Y-82089937D01*
X171990085Y-82010585D01*
X172069437Y-81913894D01*
X172128402Y-81803580D01*
X172164712Y-81683882D01*
X172176972Y-81559400D01*
X173771028Y-81559400D01*
X173783288Y-81683882D01*
X173819598Y-81803580D01*
X173878563Y-81913894D01*
X173957915Y-82010585D01*
X174054606Y-82089937D01*
X174164920Y-82148902D01*
X174284618Y-82185212D01*
X174409100Y-82197472D01*
X175329850Y-82194400D01*
X175488600Y-82035650D01*
X175488600Y-79146400D01*
X175742600Y-79146400D01*
X175742600Y-82035650D01*
X175901350Y-82194400D01*
X176822100Y-82197472D01*
X176946582Y-82185212D01*
X177066280Y-82148902D01*
X177176594Y-82089937D01*
X177273285Y-82010585D01*
X177352637Y-81913894D01*
X177411602Y-81803580D01*
X177447912Y-81683882D01*
X177460172Y-81559400D01*
X177457100Y-79305150D01*
X177298350Y-79146400D01*
X175742600Y-79146400D01*
X175488600Y-79146400D01*
X173932850Y-79146400D01*
X173774100Y-79305150D01*
X173771028Y-81559400D01*
X172176972Y-81559400D01*
X172173900Y-79305150D01*
X172015150Y-79146400D01*
X170459400Y-79146400D01*
X170205400Y-79146400D01*
X168649650Y-79146400D01*
X168490900Y-79305150D01*
X168487828Y-81559400D01*
X167731972Y-81559400D01*
X167731972Y-76860194D01*
X168488348Y-76860750D01*
X168490900Y-78733650D01*
X168649650Y-78892400D01*
X170205400Y-78892400D01*
X170205400Y-78872400D01*
X170459400Y-78872400D01*
X170459400Y-78892400D01*
X172015150Y-78892400D01*
X172173900Y-78733650D01*
X172176449Y-76863458D01*
X173771553Y-76864629D01*
X173774100Y-78733650D01*
X173932850Y-78892400D01*
X175488600Y-78892400D01*
X175488600Y-78872400D01*
X175742600Y-78872400D01*
X175742600Y-78892400D01*
X177298350Y-78892400D01*
X177457100Y-78733650D01*
X177459643Y-76867337D01*
X178216028Y-76867893D01*
X178216028Y-81559400D01*
X178228288Y-81683882D01*
X178264598Y-81803580D01*
X178323563Y-81913894D01*
X178402915Y-82010585D01*
X178499606Y-82089937D01*
X178609920Y-82148902D01*
X178729618Y-82185212D01*
X178854100Y-82197472D01*
X181140100Y-82197472D01*
X181264582Y-82185212D01*
X181384280Y-82148902D01*
X181494594Y-82089937D01*
X181591285Y-82010585D01*
X181670637Y-81913894D01*
X181729602Y-81803580D01*
X181765912Y-81683882D01*
X181778172Y-81559400D01*
X182534028Y-81559400D01*
X182546288Y-81683882D01*
X182582598Y-81803580D01*
X182641563Y-81913894D01*
X182720915Y-82010585D01*
X182817606Y-82089937D01*
X182927920Y-82148902D01*
X183047618Y-82185212D01*
X183172100Y-82197472D01*
X184092850Y-82194400D01*
X184251600Y-82035650D01*
X184251600Y-79146400D01*
X184505600Y-79146400D01*
X184505600Y-82035650D01*
X184664350Y-82194400D01*
X185585100Y-82197472D01*
X185709582Y-82185212D01*
X185829280Y-82148902D01*
X185939594Y-82089937D01*
X186036285Y-82010585D01*
X186115637Y-81913894D01*
X186174602Y-81803580D01*
X186210912Y-81683882D01*
X186223172Y-81559400D01*
X186220100Y-79305150D01*
X186061350Y-79146400D01*
X184505600Y-79146400D01*
X184251600Y-79146400D01*
X182695850Y-79146400D01*
X182537100Y-79305150D01*
X182534028Y-81559400D01*
X181778172Y-81559400D01*
X181778172Y-76870508D01*
X182534562Y-76871064D01*
X182537100Y-78733650D01*
X182695850Y-78892400D01*
X184251600Y-78892400D01*
X184251600Y-78872400D01*
X184505600Y-78872400D01*
X184505600Y-78892400D01*
X186061350Y-78892400D01*
X186220100Y-78733650D01*
X186222635Y-76873772D01*
X201396252Y-76884914D01*
X201359649Y-109156222D01*
X171603188Y-109125613D01*
X172113402Y-108615400D01*
X172142401Y-108591601D01*
X172237374Y-108475876D01*
X172307946Y-108343847D01*
X172351403Y-108200586D01*
X172362400Y-108088933D01*
X172366077Y-108051600D01*
X172362400Y-108014267D01*
X172362400Y-102894623D01*
X172366076Y-102857300D01*
X172362400Y-102819977D01*
X172362400Y-102819967D01*
X172351403Y-102708314D01*
X172307946Y-102565053D01*
X172293154Y-102537379D01*
X172237374Y-102433023D01*
X172232982Y-102427672D01*
X173544600Y-102427672D01*
X173669082Y-102415412D01*
X173788780Y-102379102D01*
X173899094Y-102320137D01*
X173995785Y-102240785D01*
X174075137Y-102144094D01*
X174134102Y-102033780D01*
X174170412Y-101914082D01*
X174182672Y-101789600D01*
X174182672Y-100089600D01*
X174170412Y-99965118D01*
X174134102Y-99845420D01*
X174075137Y-99735106D01*
X173995785Y-99638415D01*
X173899094Y-99559063D01*
X173788780Y-99500098D01*
X173708134Y-99475634D01*
X173792188Y-99399869D01*
X173966241Y-99166520D01*
X174091425Y-98903699D01*
X174136076Y-98756490D01*
X174014755Y-98526600D01*
X172821600Y-98526600D01*
X172821600Y-98546600D01*
X172567600Y-98546600D01*
X172567600Y-98526600D01*
X171374445Y-98526600D01*
X171253124Y-98756490D01*
X171297775Y-98903699D01*
X171422959Y-99166520D01*
X171597012Y-99399869D01*
X171681066Y-99475634D01*
X171600420Y-99500098D01*
X171490106Y-99559063D01*
X171393415Y-99638415D01*
X171314063Y-99735106D01*
X171255098Y-99845420D01*
X171218788Y-99965118D01*
X171206528Y-100089600D01*
X171206528Y-101385277D01*
X171112276Y-101307926D01*
X170980247Y-101237354D01*
X170836986Y-101193897D01*
X170725333Y-101182900D01*
X170725322Y-101182900D01*
X170688000Y-101179224D01*
X170650678Y-101182900D01*
X165046502Y-101182900D01*
X164076304Y-100212703D01*
X164052501Y-100183699D01*
X163936776Y-100088726D01*
X163804747Y-100018154D01*
X163661486Y-99974697D01*
X163549833Y-99963700D01*
X163549822Y-99963700D01*
X163512500Y-99960024D01*
X163475178Y-99963700D01*
X162849808Y-99963700D01*
X162920226Y-99793698D01*
X162960000Y-99593739D01*
X162960000Y-99389861D01*
X162923270Y-99205203D01*
X162958638Y-99215932D01*
X163083120Y-99228192D01*
X163334870Y-99225120D01*
X163493620Y-99066370D01*
X163493620Y-98242120D01*
X163747620Y-98242120D01*
X163747620Y-99066370D01*
X163906370Y-99225120D01*
X164158120Y-99228192D01*
X164282602Y-99215932D01*
X164402300Y-99179622D01*
X164512614Y-99120657D01*
X164609305Y-99041305D01*
X164688657Y-98944614D01*
X164747622Y-98834300D01*
X164783932Y-98714602D01*
X164796192Y-98590120D01*
X164793120Y-98400870D01*
X164634370Y-98242120D01*
X163747620Y-98242120D01*
X163493620Y-98242120D01*
X163473620Y-98242120D01*
X163473620Y-98042710D01*
X171253124Y-98042710D01*
X171374445Y-98272600D01*
X172567600Y-98272600D01*
X172567600Y-97078786D01*
X172821600Y-97078786D01*
X172821600Y-98272600D01*
X174014755Y-98272600D01*
X174136076Y-98042710D01*
X174091425Y-97895501D01*
X173966241Y-97632680D01*
X173792188Y-97399331D01*
X173575955Y-97204422D01*
X173325852Y-97055443D01*
X173051491Y-96958119D01*
X172821600Y-97078786D01*
X172567600Y-97078786D01*
X172337709Y-96958119D01*
X172063348Y-97055443D01*
X171813245Y-97204422D01*
X171597012Y-97399331D01*
X171422959Y-97632680D01*
X171297775Y-97895501D01*
X171253124Y-98042710D01*
X163473620Y-98042710D01*
X163473620Y-97988120D01*
X163493620Y-97988120D01*
X163493620Y-97163870D01*
X163747620Y-97163870D01*
X163747620Y-97988120D01*
X164634370Y-97988120D01*
X164793120Y-97829370D01*
X164796192Y-97640120D01*
X164783932Y-97515638D01*
X164747622Y-97395940D01*
X164688657Y-97285626D01*
X164609305Y-97188935D01*
X164512614Y-97109583D01*
X164402300Y-97050618D01*
X164282602Y-97014308D01*
X164158120Y-97002048D01*
X163906370Y-97005120D01*
X163747620Y-97163870D01*
X163493620Y-97163870D01*
X163334870Y-97005120D01*
X163112704Y-97002409D01*
X163128637Y-96982995D01*
X163187602Y-96872681D01*
X163223912Y-96752983D01*
X163236172Y-96628501D01*
X163236172Y-96560700D01*
X170658778Y-96560700D01*
X170696100Y-96564376D01*
X170733422Y-96560700D01*
X170733433Y-96560700D01*
X170845086Y-96549703D01*
X170988347Y-96506246D01*
X171113083Y-96439572D01*
X196215200Y-96439572D01*
X196215200Y-96879828D01*
X196301090Y-97311625D01*
X196469569Y-97718369D01*
X196714162Y-98084429D01*
X197025471Y-98395738D01*
X197391531Y-98640331D01*
X197798275Y-98808810D01*
X198230072Y-98894700D01*
X198670328Y-98894700D01*
X199102125Y-98808810D01*
X199508869Y-98640331D01*
X199874929Y-98395738D01*
X200186238Y-98084429D01*
X200430831Y-97718369D01*
X200599310Y-97311625D01*
X200685200Y-96879828D01*
X200685200Y-96439572D01*
X200599310Y-96007775D01*
X200430831Y-95601031D01*
X200186238Y-95234971D01*
X199874929Y-94923662D01*
X199508869Y-94679069D01*
X199102125Y-94510590D01*
X198670328Y-94424700D01*
X198230072Y-94424700D01*
X197798275Y-94510590D01*
X197391531Y-94679069D01*
X197025471Y-94923662D01*
X196714162Y-95234971D01*
X196469569Y-95601031D01*
X196301090Y-96007775D01*
X196215200Y-96439572D01*
X171113083Y-96439572D01*
X171120376Y-96435674D01*
X171236101Y-96340701D01*
X171259904Y-96311698D01*
X171436439Y-96135162D01*
X171452006Y-96147937D01*
X171562320Y-96206902D01*
X171682018Y-96243212D01*
X171806500Y-96255472D01*
X173506500Y-96255472D01*
X173630982Y-96243212D01*
X173750680Y-96206902D01*
X173860994Y-96147937D01*
X173957685Y-96068585D01*
X174037037Y-95971894D01*
X174096002Y-95861580D01*
X174132312Y-95741882D01*
X174144572Y-95617400D01*
X174144572Y-93917400D01*
X174132312Y-93792918D01*
X174096002Y-93673220D01*
X174037037Y-93562906D01*
X173957685Y-93466215D01*
X173860994Y-93386863D01*
X173750680Y-93327898D01*
X173678120Y-93305887D01*
X173809975Y-93174032D01*
X173972490Y-92930811D01*
X174084432Y-92660558D01*
X174141500Y-92373660D01*
X174141500Y-92081140D01*
X174084432Y-91794242D01*
X173972490Y-91523989D01*
X173809975Y-91280768D01*
X173603132Y-91073925D01*
X173428740Y-90957400D01*
X173603132Y-90840875D01*
X173809975Y-90634032D01*
X173972490Y-90390811D01*
X174084432Y-90120558D01*
X174141500Y-89833660D01*
X174141500Y-89541140D01*
X174084432Y-89254242D01*
X173972490Y-88983989D01*
X173809975Y-88740768D01*
X173603132Y-88533925D01*
X173428740Y-88417400D01*
X173603132Y-88300875D01*
X173809975Y-88094032D01*
X173972490Y-87850811D01*
X174084432Y-87580558D01*
X174141500Y-87293660D01*
X174141500Y-87001140D01*
X174084432Y-86714242D01*
X173972490Y-86443989D01*
X173809975Y-86200768D01*
X173603132Y-85993925D01*
X173359911Y-85831410D01*
X173089658Y-85719468D01*
X172802760Y-85662400D01*
X172510240Y-85662400D01*
X172223342Y-85719468D01*
X171953089Y-85831410D01*
X171709868Y-85993925D01*
X171503025Y-86200768D01*
X171378585Y-86387005D01*
X171374576Y-86387400D01*
X171374567Y-86387400D01*
X171262914Y-86398397D01*
X171119653Y-86441854D01*
X170987624Y-86512426D01*
X170871899Y-86607399D01*
X170848096Y-86636403D01*
X170545298Y-86939201D01*
X170516300Y-86962999D01*
X170492502Y-86991997D01*
X170492501Y-86991998D01*
X170421326Y-87078724D01*
X170350754Y-87210754D01*
X170307298Y-87354015D01*
X170292624Y-87503000D01*
X170296301Y-87540332D01*
X170296300Y-88648698D01*
X169770598Y-89174401D01*
X169741600Y-89198199D01*
X169717802Y-89227197D01*
X169717801Y-89227198D01*
X169646626Y-89313924D01*
X169576054Y-89445954D01*
X169532598Y-89589215D01*
X169517924Y-89738200D01*
X169521601Y-89775532D01*
X169521600Y-90972798D01*
X168983198Y-91511201D01*
X168954200Y-91534999D01*
X168930402Y-91563997D01*
X168930401Y-91563998D01*
X168859226Y-91650724D01*
X168788654Y-91782754D01*
X168772264Y-91836787D01*
X168746242Y-91922574D01*
X168745198Y-91926015D01*
X168730524Y-92075000D01*
X168734201Y-92112332D01*
X168734200Y-93078001D01*
X163236172Y-93078001D01*
X163236172Y-93022900D01*
X163223912Y-92898418D01*
X163217377Y-92876874D01*
X163221850Y-92862931D01*
X163233100Y-92760251D01*
X163074350Y-92601501D01*
X163073730Y-92601501D01*
X163049285Y-92571715D01*
X162961779Y-92499901D01*
X163074350Y-92499901D01*
X163233100Y-92341151D01*
X163221850Y-92238471D01*
X163183639Y-92119367D01*
X163122926Y-92010005D01*
X163042044Y-91914590D01*
X162944102Y-91836787D01*
X162832863Y-91779586D01*
X162712602Y-91745187D01*
X162587941Y-91734910D01*
X162204400Y-91737901D01*
X162045650Y-91896651D01*
X162045650Y-92384828D01*
X161791650Y-92384828D01*
X161791650Y-91896651D01*
X161632900Y-91737901D01*
X161249359Y-91734910D01*
X161124698Y-91745187D01*
X161004437Y-91779586D01*
X160893198Y-91836787D01*
X160795256Y-91914590D01*
X160714374Y-92010005D01*
X160653661Y-92119367D01*
X160615450Y-92238471D01*
X160604200Y-92341151D01*
X160762950Y-92499901D01*
X160875521Y-92499901D01*
X160788015Y-92571715D01*
X160763570Y-92601501D01*
X160762950Y-92601501D01*
X160604200Y-92760251D01*
X160615450Y-92862931D01*
X160619923Y-92876874D01*
X160613388Y-92898418D01*
X160601128Y-93022900D01*
X160601128Y-93378500D01*
X160613388Y-93502982D01*
X160620280Y-93525701D01*
X160613388Y-93548419D01*
X160601128Y-93672901D01*
X160601128Y-93740700D01*
X160415473Y-93740700D01*
X160378140Y-93737023D01*
X160340807Y-93740700D01*
X160229154Y-93751697D01*
X160085893Y-93795154D01*
X159953864Y-93865726D01*
X159838139Y-93960699D01*
X159814341Y-93989697D01*
X158861298Y-94942741D01*
X158832300Y-94966539D01*
X158808502Y-94995537D01*
X158808501Y-94995538D01*
X158737326Y-95082264D01*
X158666754Y-95214294D01*
X158638511Y-95307401D01*
X158623298Y-95357554D01*
X158616138Y-95430246D01*
X158608624Y-95506540D01*
X158612301Y-95543872D01*
X158612300Y-100437457D01*
X158608624Y-100474780D01*
X158612300Y-100512102D01*
X158612300Y-100512112D01*
X158623297Y-100623765D01*
X158661879Y-100750955D01*
X158666754Y-100767026D01*
X158737326Y-100899056D01*
X158771114Y-100940226D01*
X158832299Y-101014781D01*
X158861303Y-101038584D01*
X160142137Y-102319419D01*
X160081220Y-102337898D01*
X160025400Y-102367735D01*
X159969580Y-102337898D01*
X159849882Y-102301588D01*
X159725400Y-102289328D01*
X159325400Y-102289328D01*
X159200918Y-102301588D01*
X159081220Y-102337898D01*
X159025400Y-102367735D01*
X158969580Y-102337898D01*
X158849882Y-102301588D01*
X158725400Y-102289328D01*
X158325400Y-102289328D01*
X158200918Y-102301588D01*
X158081220Y-102337898D01*
X158025456Y-102367705D01*
X157977928Y-102341426D01*
X157858758Y-102303420D01*
X157757150Y-102292400D01*
X157598400Y-102451150D01*
X157598400Y-103600400D01*
X157672400Y-103600400D01*
X157672400Y-103854400D01*
X157598400Y-103854400D01*
X157598400Y-103874400D01*
X157452400Y-103874400D01*
X157452400Y-103854400D01*
X157378400Y-103854400D01*
X157378400Y-103600400D01*
X157452400Y-103600400D01*
X157452400Y-102451150D01*
X157293650Y-102292400D01*
X157192042Y-102303420D01*
X157072872Y-102341426D01*
X157025344Y-102367705D01*
X156972404Y-102339407D01*
X157052037Y-102259774D01*
X157165305Y-102090256D01*
X157243326Y-101901898D01*
X157283100Y-101701939D01*
X157283100Y-101498061D01*
X157243326Y-101298102D01*
X157165305Y-101109744D01*
X157052037Y-100940226D01*
X156907874Y-100796063D01*
X156738356Y-100682795D01*
X156549998Y-100604774D01*
X156350039Y-100565000D01*
X156146161Y-100565000D01*
X155946202Y-100604774D01*
X155757844Y-100682795D01*
X155588326Y-100796063D01*
X155444163Y-100940226D01*
X155330895Y-101109744D01*
X155252874Y-101298102D01*
X155226734Y-101429520D01*
X155031208Y-101625046D01*
X155003162Y-101648063D01*
X154911313Y-101759981D01*
X154843063Y-101887668D01*
X154817289Y-101972633D01*
X154801035Y-102026215D01*
X154786844Y-102170300D01*
X154790400Y-102206405D01*
X154790400Y-102296006D01*
X154757150Y-102292400D01*
X154652402Y-102397148D01*
X154652402Y-102292400D01*
X154555611Y-102292400D01*
X154562837Y-102285174D01*
X154676105Y-102115656D01*
X154754126Y-101927298D01*
X154793900Y-101727339D01*
X154793900Y-101523461D01*
X154754126Y-101323502D01*
X154676105Y-101135144D01*
X154562837Y-100965626D01*
X154418674Y-100821463D01*
X154249156Y-100708195D01*
X154060798Y-100630174D01*
X153860839Y-100590400D01*
X153656961Y-100590400D01*
X153457002Y-100630174D01*
X153268644Y-100708195D01*
X153099126Y-100821463D01*
X152954963Y-100965626D01*
X152841695Y-101135144D01*
X152763674Y-101323502D01*
X152723900Y-101523461D01*
X152723900Y-101727339D01*
X152763674Y-101927298D01*
X152790401Y-101991822D01*
X152790401Y-102295730D01*
X152725400Y-102289328D01*
X152325400Y-102289328D01*
X152200918Y-102301588D01*
X152081220Y-102337898D01*
X152025400Y-102367735D01*
X151969580Y-102337898D01*
X151849882Y-102301588D01*
X151725400Y-102289328D01*
X151325400Y-102289328D01*
X151200918Y-102301588D01*
X151081220Y-102337898D01*
X151025400Y-102367735D01*
X150969580Y-102337898D01*
X150849882Y-102301588D01*
X150725400Y-102289328D01*
X150325400Y-102289328D01*
X150200918Y-102301588D01*
X150081220Y-102337898D01*
X149970906Y-102396863D01*
X149874215Y-102476215D01*
X149794863Y-102572906D01*
X149735898Y-102683220D01*
X149699588Y-102802918D01*
X149687328Y-102927400D01*
X149687328Y-104527400D01*
X149699588Y-104651882D01*
X149714267Y-104700273D01*
X149700918Y-104701588D01*
X149581220Y-104737898D01*
X149544553Y-104757497D01*
X149660400Y-104641650D01*
X149663472Y-103477400D01*
X149651212Y-103352918D01*
X149614902Y-103233220D01*
X149555937Y-103122906D01*
X149476585Y-103026215D01*
X149379894Y-102946863D01*
X149269580Y-102887898D01*
X149149882Y-102851588D01*
X149025400Y-102839328D01*
X148611150Y-102842400D01*
X148452400Y-103001150D01*
X148452400Y-104800400D01*
X148472400Y-104800400D01*
X148472400Y-105054400D01*
X148452400Y-105054400D01*
X148452400Y-106853650D01*
X148611150Y-107012400D01*
X149025400Y-107015472D01*
X149149882Y-107003212D01*
X149193492Y-106989983D01*
X149199588Y-107051882D01*
X149235898Y-107171580D01*
X149294863Y-107281894D01*
X149313579Y-107304700D01*
X147683258Y-107304700D01*
X147304395Y-106925837D01*
X147381220Y-106966902D01*
X147500918Y-107003212D01*
X147625400Y-107015472D01*
X148039650Y-107012400D01*
X148198400Y-106853650D01*
X148198400Y-105054400D01*
X148178400Y-105054400D01*
X148178400Y-104800400D01*
X148198400Y-104800400D01*
X148198400Y-103001150D01*
X148039650Y-102842400D01*
X147625400Y-102839328D01*
X147523714Y-102849343D01*
X148365970Y-102007087D01*
X148395924Y-101982504D01*
X148494022Y-101862973D01*
X148566914Y-101726600D01*
X148567733Y-101723899D01*
X148611802Y-101578627D01*
X148621151Y-101483700D01*
X148623160Y-101463301D01*
X148623160Y-101463296D01*
X148626957Y-101424740D01*
X148623160Y-101386184D01*
X148623160Y-100721197D01*
X148922777Y-100421580D01*
X149065496Y-100421580D01*
X149066968Y-100426431D01*
X149149035Y-100579967D01*
X149259478Y-100714542D01*
X149394053Y-100824985D01*
X149547589Y-100907052D01*
X149714185Y-100957588D01*
X149887439Y-100974652D01*
X150587441Y-100974652D01*
X150760695Y-100957588D01*
X150927291Y-100907052D01*
X151080827Y-100824985D01*
X151215402Y-100714542D01*
X151237440Y-100687689D01*
X151259478Y-100714542D01*
X151394053Y-100824985D01*
X151547589Y-100907052D01*
X151714185Y-100957588D01*
X151887439Y-100974652D01*
X152587441Y-100974652D01*
X152760695Y-100957588D01*
X152927291Y-100907052D01*
X153080827Y-100824985D01*
X153215402Y-100714542D01*
X153325845Y-100579967D01*
X153407912Y-100426431D01*
X153408747Y-100423678D01*
X153469702Y-100448926D01*
X153669661Y-100488700D01*
X153873539Y-100488700D01*
X154073498Y-100448926D01*
X154261856Y-100370905D01*
X154431374Y-100257637D01*
X154575537Y-100113474D01*
X154688805Y-99943956D01*
X154766826Y-99755598D01*
X154806600Y-99555639D01*
X154806600Y-99528857D01*
X155596085Y-98739372D01*
X155626034Y-98714794D01*
X155724132Y-98595263D01*
X155797024Y-98458890D01*
X155841911Y-98310917D01*
X155853270Y-98195591D01*
X155853270Y-98195584D01*
X155857067Y-98157031D01*
X155853270Y-98118478D01*
X155853270Y-97266571D01*
X156845000Y-97266571D01*
X156969482Y-97254311D01*
X157089180Y-97218001D01*
X157199494Y-97159036D01*
X157296185Y-97079684D01*
X157375537Y-96982993D01*
X157434502Y-96872679D01*
X157470812Y-96752981D01*
X157483072Y-96628499D01*
X157483072Y-96272899D01*
X157470812Y-96148417D01*
X157463921Y-96125700D01*
X157470812Y-96102982D01*
X157483072Y-95978500D01*
X157483072Y-95622900D01*
X157470812Y-95498418D01*
X157463920Y-95475700D01*
X157470812Y-95452981D01*
X157483072Y-95328499D01*
X157483072Y-94972899D01*
X157470812Y-94848417D01*
X157463921Y-94825700D01*
X157470812Y-94802982D01*
X157483072Y-94678500D01*
X157483072Y-94322900D01*
X157470812Y-94198418D01*
X157463920Y-94175700D01*
X157470812Y-94152981D01*
X157483072Y-94028499D01*
X157483072Y-93672899D01*
X157470812Y-93548417D01*
X157463921Y-93525699D01*
X157470812Y-93502982D01*
X157483072Y-93378500D01*
X157483072Y-93022900D01*
X157470812Y-92898418D01*
X157463920Y-92875700D01*
X157470812Y-92852981D01*
X157483072Y-92728499D01*
X157483072Y-92372899D01*
X157470812Y-92248417D01*
X157434502Y-92128719D01*
X157375537Y-92018405D01*
X157296185Y-91921714D01*
X157199494Y-91842362D01*
X157089180Y-91783397D01*
X156969482Y-91747087D01*
X156845000Y-91734827D01*
X155486100Y-91734827D01*
X155361618Y-91747087D01*
X155259715Y-91777999D01*
X150155201Y-91777999D01*
X147673600Y-89296399D01*
X147673600Y-88746825D01*
X147677276Y-88709500D01*
X147673600Y-88672175D01*
X147673600Y-88672167D01*
X147662603Y-88560514D01*
X147619146Y-88417253D01*
X147548574Y-88285224D01*
X147453601Y-88169499D01*
X147424603Y-88145701D01*
X146526010Y-87247108D01*
X146569800Y-87026960D01*
X146569800Y-86734440D01*
X146512732Y-86447542D01*
X146400790Y-86177289D01*
X146238275Y-85934068D01*
X146031432Y-85727225D01*
X145788211Y-85564710D01*
X145517958Y-85452768D01*
X145231060Y-85395700D01*
X144938540Y-85395700D01*
X144651642Y-85452768D01*
X144381389Y-85564710D01*
X144138168Y-85727225D01*
X143931325Y-85934068D01*
X143768810Y-86177289D01*
X143656868Y-86447542D01*
X143599800Y-86734440D01*
X143599800Y-87026960D01*
X143656868Y-87313858D01*
X143768810Y-87584111D01*
X143931325Y-87827332D01*
X144138168Y-88034175D01*
X144312560Y-88150700D01*
X144138168Y-88267225D01*
X143931325Y-88474068D01*
X143768810Y-88717289D01*
X143656868Y-88987542D01*
X143599800Y-89274440D01*
X143599800Y-89566960D01*
X143656868Y-89853858D01*
X143768810Y-90124111D01*
X143931325Y-90367332D01*
X144138168Y-90574175D01*
X144312560Y-90690700D01*
X144138168Y-90807225D01*
X143931325Y-91014068D01*
X143768810Y-91257289D01*
X143656868Y-91527542D01*
X143599800Y-91814440D01*
X143599800Y-92106960D01*
X143656868Y-92393858D01*
X143768810Y-92664111D01*
X143931325Y-92907332D01*
X144063180Y-93039187D01*
X143990620Y-93061198D01*
X143880306Y-93120163D01*
X143783615Y-93199515D01*
X143704263Y-93296206D01*
X143645298Y-93406520D01*
X143608988Y-93526218D01*
X143596728Y-93650700D01*
X143596728Y-95350700D01*
X143608988Y-95475182D01*
X143645298Y-95594880D01*
X143704263Y-95705194D01*
X143783615Y-95801885D01*
X143880306Y-95881237D01*
X143990620Y-95940202D01*
X144110318Y-95976512D01*
X144234800Y-95988772D01*
X145934800Y-95988772D01*
X146059282Y-95976512D01*
X146178980Y-95940202D01*
X146289294Y-95881237D01*
X146385985Y-95801885D01*
X146465337Y-95705194D01*
X146524302Y-95594880D01*
X146560612Y-95475182D01*
X146572872Y-95350700D01*
X146572872Y-95286100D01*
X146713099Y-95286100D01*
X147075999Y-95649001D01*
X147099798Y-95678000D01*
X147215523Y-95772973D01*
X147347552Y-95843545D01*
X147490813Y-95887002D01*
X147602466Y-95897999D01*
X147602476Y-95897999D01*
X147639799Y-95901675D01*
X147677122Y-95897999D01*
X150668500Y-95897999D01*
X150668500Y-96139000D01*
X150648500Y-96139000D01*
X150648500Y-96159000D01*
X150394500Y-96159000D01*
X150394500Y-96139000D01*
X149507750Y-96139000D01*
X149349000Y-96297750D01*
X149345928Y-96487000D01*
X149351432Y-96542881D01*
X149253638Y-96623138D01*
X149143195Y-96757713D01*
X149061128Y-96911249D01*
X149045949Y-96961289D01*
X149009500Y-96972346D01*
X148873127Y-97045238D01*
X148831155Y-97079684D01*
X148783547Y-97118755D01*
X148783544Y-97118758D01*
X148753596Y-97143336D01*
X148729018Y-97173284D01*
X146627090Y-99275213D01*
X146597136Y-99299796D01*
X146499038Y-99419328D01*
X146426146Y-99555701D01*
X146424090Y-99562478D01*
X146414537Y-99544606D01*
X146335185Y-99447915D01*
X146238494Y-99368563D01*
X146128180Y-99309598D01*
X146047534Y-99285134D01*
X146131588Y-99209369D01*
X146305641Y-98976020D01*
X146430825Y-98713199D01*
X146475476Y-98565990D01*
X146354155Y-98336100D01*
X145161000Y-98336100D01*
X145161000Y-98356100D01*
X144907000Y-98356100D01*
X144907000Y-98336100D01*
X143713845Y-98336100D01*
X143592524Y-98565990D01*
X143637175Y-98713199D01*
X143762359Y-98976020D01*
X143936412Y-99209369D01*
X144020466Y-99285134D01*
X143939820Y-99309598D01*
X143829506Y-99368563D01*
X143732815Y-99447915D01*
X143653463Y-99544606D01*
X143594498Y-99654920D01*
X143558188Y-99774618D01*
X143545928Y-99899100D01*
X143545928Y-101599100D01*
X143558188Y-101723582D01*
X143594498Y-101843280D01*
X143653463Y-101953594D01*
X143732815Y-102050285D01*
X143829506Y-102129637D01*
X143939820Y-102188602D01*
X144059518Y-102224912D01*
X144184000Y-102237172D01*
X145164658Y-102237172D01*
X145100636Y-102356951D01*
X145055749Y-102504924D01*
X145044390Y-102620250D01*
X145044390Y-102620257D01*
X145040593Y-102658810D01*
X145044390Y-102697363D01*
X145044391Y-107229547D01*
X145040593Y-107268110D01*
X145055749Y-107421996D01*
X145100636Y-107569969D01*
X145125301Y-107616114D01*
X145173529Y-107706343D01*
X145203893Y-107743341D01*
X145247045Y-107795922D01*
X145247049Y-107795926D01*
X145271627Y-107825874D01*
X145301575Y-107850452D01*
X146550965Y-109099843D01*
X116255150Y-109068679D01*
X116250382Y-96464972D01*
X116992600Y-96464972D01*
X116992600Y-96905228D01*
X117078490Y-97337025D01*
X117246969Y-97743769D01*
X117491562Y-98109829D01*
X117802871Y-98421138D01*
X118168931Y-98665731D01*
X118575675Y-98834210D01*
X119007472Y-98920100D01*
X119447728Y-98920100D01*
X119879525Y-98834210D01*
X120286269Y-98665731D01*
X120652329Y-98421138D01*
X120963638Y-98109829D01*
X121135773Y-97852210D01*
X143592524Y-97852210D01*
X143713845Y-98082100D01*
X144907000Y-98082100D01*
X144907000Y-96888286D01*
X145161000Y-96888286D01*
X145161000Y-98082100D01*
X146354155Y-98082100D01*
X146475476Y-97852210D01*
X146430825Y-97705001D01*
X146305641Y-97442180D01*
X146131588Y-97208831D01*
X145915355Y-97013922D01*
X145665252Y-96864943D01*
X145390891Y-96767619D01*
X145161000Y-96888286D01*
X144907000Y-96888286D01*
X144677109Y-96767619D01*
X144402748Y-96864943D01*
X144152645Y-97013922D01*
X143936412Y-97208831D01*
X143762359Y-97442180D01*
X143637175Y-97705001D01*
X143592524Y-97852210D01*
X121135773Y-97852210D01*
X121208231Y-97743769D01*
X121376710Y-97337025D01*
X121462600Y-96905228D01*
X121462600Y-96464972D01*
X121376710Y-96033175D01*
X121208231Y-95626431D01*
X120963638Y-95260371D01*
X120652329Y-94949062D01*
X120286269Y-94704469D01*
X119879525Y-94535990D01*
X119447728Y-94450100D01*
X119007472Y-94450100D01*
X118575675Y-94535990D01*
X118168931Y-94704469D01*
X117802871Y-94949062D01*
X117491562Y-95260371D01*
X117246969Y-95626431D01*
X117078490Y-96033175D01*
X116992600Y-96464972D01*
X116250382Y-96464972D01*
X116244761Y-81610200D01*
X131835628Y-81610200D01*
X131847888Y-81734682D01*
X131884198Y-81854380D01*
X131943163Y-81964694D01*
X132022515Y-82061385D01*
X132119206Y-82140737D01*
X132229520Y-82199702D01*
X132349218Y-82236012D01*
X132473700Y-82248272D01*
X133394450Y-82245200D01*
X133553200Y-82086450D01*
X133553200Y-79197200D01*
X133807200Y-79197200D01*
X133807200Y-82086450D01*
X133965950Y-82245200D01*
X134886700Y-82248272D01*
X135011182Y-82236012D01*
X135130880Y-82199702D01*
X135241194Y-82140737D01*
X135337885Y-82061385D01*
X135417237Y-81964694D01*
X135476202Y-81854380D01*
X135512512Y-81734682D01*
X135524772Y-81610200D01*
X135521700Y-79355950D01*
X135362950Y-79197200D01*
X133807200Y-79197200D01*
X133553200Y-79197200D01*
X131997450Y-79197200D01*
X131838700Y-79355950D01*
X131835628Y-81610200D01*
X116244761Y-81610200D01*
X116242949Y-76822385D01*
X131836042Y-76833835D01*
G37*
%TD.AperFunction*%
D22*
X156098400Y-106000400D02*
X156172400Y-106000400D01*
X156172400Y-106254400D01*
X156098400Y-106254400D01*
X156098400Y-107403650D01*
X156257150Y-107562400D01*
X156358758Y-107551380D01*
X156477928Y-107513374D01*
X156525456Y-107487095D01*
X156581220Y-107516902D01*
X156700918Y-107553212D01*
X156825400Y-107565472D01*
X157225400Y-107565472D01*
X157349882Y-107553212D01*
X157469580Y-107516902D01*
X157525400Y-107487065D01*
X157581220Y-107516902D01*
X157700918Y-107553212D01*
X157825400Y-107565472D01*
X158225400Y-107565472D01*
X158349882Y-107553212D01*
X158469580Y-107516902D01*
X158525400Y-107487065D01*
X158581220Y-107516902D01*
X158700918Y-107553212D01*
X158815517Y-107564499D01*
X158794500Y-107670161D01*
X158794500Y-107767654D01*
X158623254Y-107938900D01*
X155760400Y-107938900D01*
X155760400Y-107558794D01*
X155793650Y-107562400D01*
X155952400Y-107403650D01*
X155952400Y-106254400D01*
X155878400Y-106254400D01*
X155878400Y-106000400D01*
X155952400Y-106000400D01*
X155952400Y-105980400D01*
X156098400Y-105980400D01*
X156098400Y-106000400D01*
%TA.AperFunction,Conductor*%
D23*
G36*
X156098400Y-106000400D02*
G01*
X156172400Y-106000400D01*
X156172400Y-106254400D01*
X156098400Y-106254400D01*
X156098400Y-107403650D01*
X156257150Y-107562400D01*
X156358758Y-107551380D01*
X156477928Y-107513374D01*
X156525456Y-107487095D01*
X156581220Y-107516902D01*
X156700918Y-107553212D01*
X156825400Y-107565472D01*
X157225400Y-107565472D01*
X157349882Y-107553212D01*
X157469580Y-107516902D01*
X157525400Y-107487065D01*
X157581220Y-107516902D01*
X157700918Y-107553212D01*
X157825400Y-107565472D01*
X158225400Y-107565472D01*
X158349882Y-107553212D01*
X158469580Y-107516902D01*
X158525400Y-107487065D01*
X158581220Y-107516902D01*
X158700918Y-107553212D01*
X158815517Y-107564499D01*
X158794500Y-107670161D01*
X158794500Y-107767654D01*
X158623254Y-107938900D01*
X155760400Y-107938900D01*
X155760400Y-107558794D01*
X155793650Y-107562400D01*
X155952400Y-107403650D01*
X155952400Y-106254400D01*
X155878400Y-106254400D01*
X155878400Y-106000400D01*
X155952400Y-106000400D01*
X155952400Y-105980400D01*
X156098400Y-105980400D01*
X156098400Y-106000400D01*
G37*
%TD.AperFunction*%
D22*
X170842400Y-103172102D02*
X170842401Y-107736797D01*
X170703399Y-107875800D01*
X163785400Y-107875800D01*
X163785400Y-107561505D01*
X163793650Y-107562400D01*
X163952400Y-107403650D01*
X163952400Y-106254400D01*
X163878400Y-106254400D01*
X163878400Y-106000400D01*
X163952400Y-106000400D01*
X163952400Y-105980400D01*
X164098400Y-105980400D01*
X164098400Y-106000400D01*
X164172400Y-106000400D01*
X164172400Y-106254400D01*
X164098400Y-106254400D01*
X164098400Y-107403650D01*
X164257150Y-107562400D01*
X164358758Y-107551380D01*
X164477928Y-107513374D01*
X164525456Y-107487095D01*
X164581220Y-107516902D01*
X164700918Y-107553212D01*
X164825400Y-107565472D01*
X165225400Y-107565472D01*
X165349882Y-107553212D01*
X165469580Y-107516902D01*
X165525400Y-107487065D01*
X165581220Y-107516902D01*
X165700918Y-107553212D01*
X165825400Y-107565472D01*
X166225400Y-107565472D01*
X166349882Y-107553212D01*
X166469580Y-107516902D01*
X166525400Y-107487065D01*
X166581220Y-107516902D01*
X166700918Y-107553212D01*
X166825400Y-107565472D01*
X167225400Y-107565472D01*
X167349882Y-107553212D01*
X167469580Y-107516902D01*
X167579894Y-107457937D01*
X167676585Y-107378585D01*
X167755937Y-107281894D01*
X167814902Y-107171580D01*
X167851212Y-107051882D01*
X167863472Y-106927400D01*
X167863472Y-105327400D01*
X167851212Y-105202918D01*
X167836533Y-105154527D01*
X167849882Y-105153212D01*
X167969580Y-105116902D01*
X168006247Y-105097303D01*
X167890400Y-105213150D01*
X167887328Y-106377400D01*
X167899588Y-106501882D01*
X167935898Y-106621580D01*
X167994863Y-106731894D01*
X168074215Y-106828585D01*
X168170906Y-106907937D01*
X168281220Y-106966902D01*
X168400918Y-107003212D01*
X168525400Y-107015472D01*
X168939650Y-107012400D01*
X169098400Y-106853650D01*
X169098400Y-105054400D01*
X169352400Y-105054400D01*
X169352400Y-106853650D01*
X169511150Y-107012400D01*
X169925400Y-107015472D01*
X170049882Y-107003212D01*
X170169580Y-106966902D01*
X170279894Y-106907937D01*
X170376585Y-106828585D01*
X170455937Y-106731894D01*
X170514902Y-106621580D01*
X170551212Y-106501882D01*
X170563472Y-106377400D01*
X170560400Y-105213150D01*
X170401650Y-105054400D01*
X169352400Y-105054400D01*
X169098400Y-105054400D01*
X169078400Y-105054400D01*
X169078400Y-104800400D01*
X169098400Y-104800400D01*
X169098400Y-103001150D01*
X169352400Y-103001150D01*
X169352400Y-104800400D01*
X170401650Y-104800400D01*
X170560400Y-104641650D01*
X170563472Y-103477400D01*
X170551212Y-103352918D01*
X170514902Y-103233220D01*
X170455937Y-103122906D01*
X170376585Y-103026215D01*
X170279894Y-102946863D01*
X170169580Y-102887898D01*
X170049882Y-102851588D01*
X169925400Y-102839328D01*
X169511150Y-102842400D01*
X169352400Y-103001150D01*
X169098400Y-103001150D01*
X168939650Y-102842400D01*
X168525400Y-102839328D01*
X168400918Y-102851588D01*
X168357308Y-102864817D01*
X168351212Y-102802918D01*
X168320872Y-102702900D01*
X170373199Y-102702900D01*
X170842400Y-103172102D01*
%TA.AperFunction,Conductor*%
D23*
G36*
X170842400Y-103172102D02*
G01*
X170842401Y-107736797D01*
X170703399Y-107875800D01*
X163785400Y-107875800D01*
X163785400Y-107561505D01*
X163793650Y-107562400D01*
X163952400Y-107403650D01*
X163952400Y-106254400D01*
X163878400Y-106254400D01*
X163878400Y-106000400D01*
X163952400Y-106000400D01*
X163952400Y-105980400D01*
X164098400Y-105980400D01*
X164098400Y-106000400D01*
X164172400Y-106000400D01*
X164172400Y-106254400D01*
X164098400Y-106254400D01*
X164098400Y-107403650D01*
X164257150Y-107562400D01*
X164358758Y-107551380D01*
X164477928Y-107513374D01*
X164525456Y-107487095D01*
X164581220Y-107516902D01*
X164700918Y-107553212D01*
X164825400Y-107565472D01*
X165225400Y-107565472D01*
X165349882Y-107553212D01*
X165469580Y-107516902D01*
X165525400Y-107487065D01*
X165581220Y-107516902D01*
X165700918Y-107553212D01*
X165825400Y-107565472D01*
X166225400Y-107565472D01*
X166349882Y-107553212D01*
X166469580Y-107516902D01*
X166525400Y-107487065D01*
X166581220Y-107516902D01*
X166700918Y-107553212D01*
X166825400Y-107565472D01*
X167225400Y-107565472D01*
X167349882Y-107553212D01*
X167469580Y-107516902D01*
X167579894Y-107457937D01*
X167676585Y-107378585D01*
X167755937Y-107281894D01*
X167814902Y-107171580D01*
X167851212Y-107051882D01*
X167863472Y-106927400D01*
X167863472Y-105327400D01*
X167851212Y-105202918D01*
X167836533Y-105154527D01*
X167849882Y-105153212D01*
X167969580Y-105116902D01*
X168006247Y-105097303D01*
X167890400Y-105213150D01*
X167887328Y-106377400D01*
X167899588Y-106501882D01*
X167935898Y-106621580D01*
X167994863Y-106731894D01*
X168074215Y-106828585D01*
X168170906Y-106907937D01*
X168281220Y-106966902D01*
X168400918Y-107003212D01*
X168525400Y-107015472D01*
X168939650Y-107012400D01*
X169098400Y-106853650D01*
X169098400Y-105054400D01*
X169352400Y-105054400D01*
X169352400Y-106853650D01*
X169511150Y-107012400D01*
X169925400Y-107015472D01*
X170049882Y-107003212D01*
X170169580Y-106966902D01*
X170279894Y-106907937D01*
X170376585Y-106828585D01*
X170455937Y-106731894D01*
X170514902Y-106621580D01*
X170551212Y-106501882D01*
X170563472Y-106377400D01*
X170560400Y-105213150D01*
X170401650Y-105054400D01*
X169352400Y-105054400D01*
X169098400Y-105054400D01*
X169078400Y-105054400D01*
X169078400Y-104800400D01*
X169098400Y-104800400D01*
X169098400Y-103001150D01*
X169352400Y-103001150D01*
X169352400Y-104800400D01*
X170401650Y-104800400D01*
X170560400Y-104641650D01*
X170563472Y-103477400D01*
X170551212Y-103352918D01*
X170514902Y-103233220D01*
X170455937Y-103122906D01*
X170376585Y-103026215D01*
X170279894Y-102946863D01*
X170169580Y-102887898D01*
X170049882Y-102851588D01*
X169925400Y-102839328D01*
X169511150Y-102842400D01*
X169352400Y-103001150D01*
X169098400Y-103001150D01*
X168939650Y-102842400D01*
X168525400Y-102839328D01*
X168400918Y-102851588D01*
X168357308Y-102864817D01*
X168351212Y-102802918D01*
X168320872Y-102702900D01*
X170373199Y-102702900D01*
X170842400Y-103172102D01*
G37*
%TD.AperFunction*%
D22*
X153098400Y-106000400D02*
X153172400Y-106000400D01*
X153172400Y-106254400D01*
X153098400Y-106254400D01*
X153098400Y-106274400D01*
X152952400Y-106274400D01*
X152952400Y-106254400D01*
X152878400Y-106254400D01*
X152878400Y-106000400D01*
X152952400Y-106000400D01*
X152952400Y-105980400D01*
X153098400Y-105980400D01*
X153098400Y-106000400D01*
%TA.AperFunction,Conductor*%
D23*
G36*
X153098400Y-106000400D02*
G01*
X153172400Y-106000400D01*
X153172400Y-106254400D01*
X153098400Y-106254400D01*
X153098400Y-106274400D01*
X152952400Y-106274400D01*
X152952400Y-106254400D01*
X152878400Y-106254400D01*
X152878400Y-106000400D01*
X152952400Y-106000400D01*
X152952400Y-105980400D01*
X153098400Y-105980400D01*
X153098400Y-106000400D01*
G37*
%TD.AperFunction*%
D22*
X154598400Y-103600400D02*
X154672400Y-103600400D01*
X154672400Y-103854400D01*
X154598400Y-103854400D01*
X154598400Y-103874400D01*
X154452400Y-103874400D01*
X154452400Y-103854400D01*
X154378400Y-103854400D01*
X154378400Y-103600400D01*
X154452400Y-103600400D01*
X154452400Y-103580400D01*
X154598400Y-103580400D01*
X154598400Y-103600400D01*
%TA.AperFunction,Conductor*%
D23*
G36*
X154598400Y-103600400D02*
G01*
X154672400Y-103600400D01*
X154672400Y-103854400D01*
X154598400Y-103854400D01*
X154598400Y-103874400D01*
X154452400Y-103874400D01*
X154452400Y-103854400D01*
X154378400Y-103854400D01*
X154378400Y-103600400D01*
X154452400Y-103600400D01*
X154452400Y-103580400D01*
X154598400Y-103580400D01*
X154598400Y-103600400D01*
G37*
%TD.AperFunction*%
%TD*%
M02*
