%TF.GenerationSoftware,KiCad,Pcbnew,5.1.10-88a1d61d58~88~ubuntu18.04.1*%
%TF.CreationDate,2021-07-26T17:30:53+07:00*%
%TF.ProjectId,ADV728xM_EVAL_SMA-FFC_AETINA_ACE_CAM6C,41445637-3238-4784-9d5f-4556414c5f53,rev?*%
%TF.SameCoordinates,Original*%
%TF.FileFunction,Copper,L2,Bot*%
%TF.FilePolarity,Positive*%
%FSLAX46Y46*%
G04 Gerber Fmt 4.6, Leading zero omitted, Abs format (unit mm)*
G04 Created by KiCad (PCBNEW 5.1.10-88a1d61d58~88~ubuntu18.04.1) date 2021-07-26 17:30:53*
%MOMM*%
%LPD*%
G01*
G04 APERTURE LIST*
%TA.AperFunction,ComponentPad*%
%ADD10O,1.700000X1.700000*%
%TD*%
%TA.AperFunction,ComponentPad*%
%ADD11R,1.700000X1.700000*%
%TD*%
%TA.AperFunction,SMDPad,CuDef*%
%ADD12R,2.413000X5.080000*%
%TD*%
%TA.AperFunction,ViaPad*%
%ADD13C,0.800000*%
%TD*%
%TA.AperFunction,Conductor*%
%ADD14C,0.350000*%
%TD*%
%TA.AperFunction,Conductor*%
%ADD15C,0.250000*%
%TD*%
%TA.AperFunction,Conductor*%
%ADD16C,0.300000*%
%TD*%
%TA.AperFunction,Conductor*%
%ADD17C,0.200000*%
%TD*%
%TA.AperFunction,Conductor*%
%ADD18C,0.254000*%
%TD*%
%TA.AperFunction,Conductor*%
%ADD19C,0.100000*%
%TD*%
G04 APERTURE END LIST*
D10*
%TO.P,J6,4*%
%TO.N,/GPIO1_1V8*%
X172656500Y-87147400D03*
%TO.P,J6,3*%
%TO.N,/CAM_RST*%
X172656500Y-89687400D03*
%TO.P,J6,2*%
%TO.N,/I2C_SCL*%
X172656500Y-92227400D03*
D11*
%TO.P,J6,1*%
%TO.N,/I2C_SDA*%
X172656500Y-94767400D03*
%TD*%
D12*
%TO.P,J3,S4*%
%TO.N,GND*%
X170332400Y-79019400D03*
%TO.P,J3,S3*%
X161569400Y-79019400D03*
%TD*%
%TO.P,J4,S4*%
%TO.N,GND*%
X184378600Y-79019400D03*
%TO.P,J4,S3*%
X175615600Y-79019400D03*
%TD*%
%TO.P,J1,S4*%
%TO.N,GND*%
X142443200Y-79070200D03*
%TO.P,J1,S3*%
X133680200Y-79070200D03*
%TD*%
%TO.P,J2,S4*%
%TO.N,GND*%
X156362400Y-79019400D03*
%TO.P,J2,S3*%
X147599400Y-79019400D03*
%TD*%
D11*
%TO.P,J5,1*%
%TO.N,/I2C_SDA_3V3*%
X145084800Y-94500700D03*
D10*
%TO.P,J5,2*%
%TO.N,/I2C_SCL_3V3*%
X145084800Y-91960700D03*
%TO.P,J5,3*%
%TO.N,/CAM_RST_3V3*%
X145084800Y-89420700D03*
%TO.P,J5,4*%
%TO.N,/GPIO1_3V3*%
X145084800Y-86880700D03*
%TD*%
D11*
%TO.P,J8,1*%
%TO.N,+1V8*%
X172694600Y-100939600D03*
D10*
%TO.P,J8,2*%
%TO.N,GND*%
X172694600Y-98399600D03*
%TD*%
%TO.P,J7,2*%
%TO.N,GND*%
X145034000Y-98209100D03*
D11*
%TO.P,J7,1*%
%TO.N,+3V3*%
X145034000Y-100749100D03*
%TD*%
D13*
%TO.N,+3V3*%
X153771600Y-97726500D03*
%TO.N,GND*%
X169291000Y-104965500D03*
X156006800Y-107797600D03*
X148325400Y-104927400D03*
%TO.N,+1V8*%
X161925000Y-99491800D03*
X153771600Y-99453700D03*
%TO.N,/D0_P*%
X138074400Y-79121000D03*
X153758900Y-101625400D03*
X138074400Y-80124300D03*
%TO.N,/D0_N*%
X151955500Y-79082900D03*
X152819100Y-107772100D03*
X151955500Y-80035400D03*
%TO.N,/CLK_P*%
X165938200Y-79019400D03*
X159829500Y-107772100D03*
X165938200Y-79971900D03*
%TO.N,/CLK_N*%
X179984400Y-79044800D03*
X156248100Y-101600000D03*
X179984400Y-80035400D03*
%TD*%
D14*
%TO.N,+3V3*%
X147548600Y-100749100D02*
X145034000Y-100749100D01*
X150571200Y-97726500D02*
X147548600Y-100749100D01*
X150571200Y-97726500D02*
X153771600Y-97726500D01*
D15*
%TO.N,GND*%
X172389800Y-98437700D02*
X172402500Y-98450400D01*
D16*
%TO.N,+1V8*%
X161912300Y-99568000D02*
X161912300Y-99568000D01*
X163296600Y-100939600D02*
X161925000Y-99568000D01*
X172694600Y-100939600D02*
X163296600Y-100939600D01*
X161886900Y-99453700D02*
X161925000Y-99491800D01*
X153771600Y-99453700D02*
X161886900Y-99453700D01*
D17*
%TO.N,/D0_P*%
X138074400Y-80124300D02*
X138074400Y-79121000D01*
X138074400Y-83451700D02*
X138074400Y-80124300D01*
X138684000Y-84061300D02*
X138074400Y-83451700D01*
X141249400Y-84061300D02*
X138684000Y-84061300D01*
X141672100Y-84484000D02*
X141249400Y-84061300D01*
X141672100Y-106214400D02*
X141672100Y-84484000D01*
X153758900Y-108153200D02*
X153377900Y-108534200D01*
X152202298Y-108191300D02*
X143649000Y-108191300D01*
X143649000Y-108191300D02*
X141672100Y-106214400D01*
X153758900Y-101625400D02*
X153758900Y-108153200D01*
X153377900Y-108534200D02*
X152545198Y-108534200D01*
X152545198Y-108534200D02*
X152202298Y-108191300D01*
%TO.N,/D0_N*%
X142525750Y-84093050D02*
X147821650Y-84093050D01*
X151955500Y-79959200D02*
X151955500Y-79959200D01*
X142122100Y-84496700D02*
X142525750Y-84093050D01*
X142122100Y-106028000D02*
X142122100Y-84496700D01*
X147821650Y-84093050D02*
X151955500Y-79959200D01*
X151955500Y-79959200D02*
X151955500Y-79082900D01*
X143866200Y-107772100D02*
X143808800Y-107714700D01*
X152819100Y-107772100D02*
X143866200Y-107772100D01*
X143808800Y-107714700D02*
X142122100Y-106028000D01*
%TO.N,/CLK_P*%
X165938200Y-79971900D02*
X165938200Y-79019400D01*
X165938200Y-79984600D02*
X165938200Y-79971900D01*
X159829500Y-107772100D02*
X172973400Y-107772100D01*
X172973400Y-107772100D02*
X175479500Y-105266000D01*
X175479500Y-105266000D02*
X175479500Y-85013800D01*
X175479500Y-85013800D02*
X174958800Y-84493100D01*
X174958800Y-84493100D02*
X170446700Y-84493100D01*
X170446700Y-84493100D02*
X165938200Y-79984600D01*
%TO.N,/CLK_N*%
X179616100Y-84505800D02*
X179984400Y-84137500D01*
X175929500Y-85022900D02*
X176446600Y-84505800D01*
X179984400Y-79946500D02*
X179984400Y-79044800D01*
X175929500Y-105452400D02*
X175929500Y-85022900D01*
X156248100Y-101600000D02*
X156248100Y-105651300D01*
X176446600Y-84505800D02*
X179616100Y-84505800D01*
X156248100Y-105651300D02*
X159156400Y-108559600D01*
X179984400Y-84137500D02*
X179984400Y-79946500D01*
X160737690Y-108172110D02*
X173209790Y-108172110D01*
X159156400Y-108559600D02*
X160350200Y-108559600D01*
X173209790Y-108172110D02*
X175929500Y-105452400D01*
X160350200Y-108559600D02*
X160737690Y-108172110D01*
%TD*%
D18*
%TO.N,GND*%
X131836076Y-76859252D02*
X131838700Y-78784450D01*
X131997450Y-78943200D01*
X133553200Y-78943200D01*
X133553200Y-78923200D01*
X133807200Y-78923200D01*
X133807200Y-78943200D01*
X135362950Y-78943200D01*
X135521700Y-78784450D01*
X135524320Y-76861964D01*
X140599085Y-76865696D01*
X140601700Y-78784450D01*
X140760450Y-78943200D01*
X142316200Y-78943200D01*
X142316200Y-78923200D01*
X142570200Y-78923200D01*
X142570200Y-78943200D01*
X144125950Y-78943200D01*
X144284700Y-78784450D01*
X144287311Y-76868409D01*
X145755360Y-76869488D01*
X145757900Y-78733650D01*
X145916650Y-78892400D01*
X147472400Y-78892400D01*
X147472400Y-78872400D01*
X147726400Y-78872400D01*
X147726400Y-78892400D01*
X149282150Y-78892400D01*
X149440900Y-78733650D01*
X149443437Y-76872201D01*
X154518368Y-76875933D01*
X154520900Y-78733650D01*
X154679650Y-78892400D01*
X156235400Y-78892400D01*
X156235400Y-78872400D01*
X156489400Y-78872400D01*
X156489400Y-78892400D01*
X158045150Y-78892400D01*
X158203900Y-78733650D01*
X158206428Y-76878645D01*
X159725374Y-76879762D01*
X159727900Y-78733650D01*
X159886650Y-78892400D01*
X161442400Y-78892400D01*
X161442400Y-78872400D01*
X161696400Y-78872400D01*
X161696400Y-78892400D01*
X163252150Y-78892400D01*
X163410900Y-78733650D01*
X163413423Y-76882474D01*
X168488382Y-76886206D01*
X168490900Y-78733650D01*
X168649650Y-78892400D01*
X170205400Y-78892400D01*
X170205400Y-78872400D01*
X170459400Y-78872400D01*
X170459400Y-78892400D01*
X172015150Y-78892400D01*
X172173900Y-78733650D01*
X172176414Y-76888919D01*
X173771588Y-76890092D01*
X173774100Y-78733650D01*
X173932850Y-78892400D01*
X175488600Y-78892400D01*
X175488600Y-78872400D01*
X175742600Y-78872400D01*
X175742600Y-78892400D01*
X177298350Y-78892400D01*
X177457100Y-78733650D01*
X177459609Y-76892804D01*
X182534596Y-76896536D01*
X182537100Y-78733650D01*
X182695850Y-78892400D01*
X184251600Y-78892400D01*
X184251600Y-78872400D01*
X184505600Y-78872400D01*
X184505600Y-78892400D01*
X186061350Y-78892400D01*
X186220100Y-78733650D01*
X186222600Y-76899248D01*
X201396223Y-76910407D01*
X201359649Y-109156221D01*
X160832659Y-109114483D01*
X160872438Y-109081838D01*
X160895459Y-109053787D01*
X161042136Y-108907110D01*
X173173685Y-108907110D01*
X173209790Y-108910666D01*
X173245895Y-108907110D01*
X173353875Y-108896475D01*
X173492423Y-108854447D01*
X173620110Y-108786197D01*
X173732028Y-108694348D01*
X173755049Y-108666298D01*
X176423697Y-105997650D01*
X176451737Y-105974638D01*
X176474750Y-105946597D01*
X176474753Y-105946594D01*
X176543587Y-105862720D01*
X176611836Y-105735034D01*
X176611837Y-105735033D01*
X176653865Y-105596485D01*
X176664500Y-105488505D01*
X176664500Y-105488504D01*
X176668056Y-105452400D01*
X176664500Y-105416295D01*
X176664500Y-96439572D01*
X196215200Y-96439572D01*
X196215200Y-96879828D01*
X196301090Y-97311625D01*
X196469569Y-97718369D01*
X196714162Y-98084429D01*
X197025471Y-98395738D01*
X197391531Y-98640331D01*
X197798275Y-98808810D01*
X198230072Y-98894700D01*
X198670328Y-98894700D01*
X199102125Y-98808810D01*
X199508869Y-98640331D01*
X199874929Y-98395738D01*
X200186238Y-98084429D01*
X200430831Y-97718369D01*
X200599310Y-97311625D01*
X200685200Y-96879828D01*
X200685200Y-96439572D01*
X200599310Y-96007775D01*
X200430831Y-95601031D01*
X200186238Y-95234971D01*
X199874929Y-94923662D01*
X199508869Y-94679069D01*
X199102125Y-94510590D01*
X198670328Y-94424700D01*
X198230072Y-94424700D01*
X197798275Y-94510590D01*
X197391531Y-94679069D01*
X197025471Y-94923662D01*
X196714162Y-95234971D01*
X196469569Y-95601031D01*
X196301090Y-96007775D01*
X196215200Y-96439572D01*
X176664500Y-96439572D01*
X176664500Y-85327346D01*
X176751047Y-85240800D01*
X179579995Y-85240800D01*
X179616100Y-85244356D01*
X179652205Y-85240800D01*
X179760185Y-85230165D01*
X179898733Y-85188137D01*
X180026420Y-85119887D01*
X180138338Y-85028038D01*
X180161359Y-84999987D01*
X180478592Y-84682754D01*
X180506637Y-84659738D01*
X180598487Y-84547820D01*
X180666737Y-84420133D01*
X180708765Y-84281585D01*
X180719400Y-84173605D01*
X180719400Y-84173604D01*
X180722956Y-84137500D01*
X180719400Y-84101395D01*
X180719400Y-81559400D01*
X182534028Y-81559400D01*
X182546288Y-81683882D01*
X182582598Y-81803580D01*
X182641563Y-81913894D01*
X182720915Y-82010585D01*
X182817606Y-82089937D01*
X182927920Y-82148902D01*
X183047618Y-82185212D01*
X183172100Y-82197472D01*
X184092850Y-82194400D01*
X184251600Y-82035650D01*
X184251600Y-79146400D01*
X184505600Y-79146400D01*
X184505600Y-82035650D01*
X184664350Y-82194400D01*
X185585100Y-82197472D01*
X185709582Y-82185212D01*
X185829280Y-82148902D01*
X185939594Y-82089937D01*
X186036285Y-82010585D01*
X186115637Y-81913894D01*
X186174602Y-81803580D01*
X186210912Y-81683882D01*
X186223172Y-81559400D01*
X186220100Y-79305150D01*
X186061350Y-79146400D01*
X184505600Y-79146400D01*
X184251600Y-79146400D01*
X182695850Y-79146400D01*
X182537100Y-79305150D01*
X182534028Y-81559400D01*
X180719400Y-81559400D01*
X180719400Y-80764111D01*
X180788337Y-80695174D01*
X180901605Y-80525656D01*
X180979626Y-80337298D01*
X181019400Y-80137339D01*
X181019400Y-79933461D01*
X180979626Y-79733502D01*
X180901605Y-79545144D01*
X180898235Y-79540100D01*
X180901605Y-79535056D01*
X180979626Y-79346698D01*
X181019400Y-79146739D01*
X181019400Y-78942861D01*
X180979626Y-78742902D01*
X180901605Y-78554544D01*
X180788337Y-78385026D01*
X180644174Y-78240863D01*
X180474656Y-78127595D01*
X180286298Y-78049574D01*
X180086339Y-78009800D01*
X179882461Y-78009800D01*
X179682502Y-78049574D01*
X179494144Y-78127595D01*
X179324626Y-78240863D01*
X179180463Y-78385026D01*
X179067195Y-78554544D01*
X178989174Y-78742902D01*
X178949400Y-78942861D01*
X178949400Y-79146739D01*
X178989174Y-79346698D01*
X179067195Y-79535056D01*
X179070565Y-79540100D01*
X179067195Y-79545144D01*
X178989174Y-79733502D01*
X178949400Y-79933461D01*
X178949400Y-80137339D01*
X178989174Y-80337298D01*
X179067195Y-80525656D01*
X179180463Y-80695174D01*
X179249401Y-80764112D01*
X179249400Y-83770800D01*
X176482705Y-83770800D01*
X176446600Y-83767244D01*
X176410495Y-83770800D01*
X176302515Y-83781435D01*
X176163967Y-83823463D01*
X176036280Y-83891713D01*
X175924362Y-83983562D01*
X175901346Y-84011607D01*
X175709050Y-84203903D01*
X175504058Y-83998912D01*
X175481038Y-83970862D01*
X175369120Y-83879013D01*
X175241433Y-83810763D01*
X175102885Y-83768735D01*
X174994905Y-83758100D01*
X174958800Y-83754544D01*
X174922695Y-83758100D01*
X170751147Y-83758100D01*
X169190304Y-82197257D01*
X170046650Y-82194400D01*
X170205400Y-82035650D01*
X170205400Y-79146400D01*
X170459400Y-79146400D01*
X170459400Y-82035650D01*
X170618150Y-82194400D01*
X171538900Y-82197472D01*
X171663382Y-82185212D01*
X171783080Y-82148902D01*
X171893394Y-82089937D01*
X171990085Y-82010585D01*
X172069437Y-81913894D01*
X172128402Y-81803580D01*
X172164712Y-81683882D01*
X172176972Y-81559400D01*
X173771028Y-81559400D01*
X173783288Y-81683882D01*
X173819598Y-81803580D01*
X173878563Y-81913894D01*
X173957915Y-82010585D01*
X174054606Y-82089937D01*
X174164920Y-82148902D01*
X174284618Y-82185212D01*
X174409100Y-82197472D01*
X175329850Y-82194400D01*
X175488600Y-82035650D01*
X175488600Y-79146400D01*
X175742600Y-79146400D01*
X175742600Y-82035650D01*
X175901350Y-82194400D01*
X176822100Y-82197472D01*
X176946582Y-82185212D01*
X177066280Y-82148902D01*
X177176594Y-82089937D01*
X177273285Y-82010585D01*
X177352637Y-81913894D01*
X177411602Y-81803580D01*
X177447912Y-81683882D01*
X177460172Y-81559400D01*
X177457100Y-79305150D01*
X177298350Y-79146400D01*
X175742600Y-79146400D01*
X175488600Y-79146400D01*
X173932850Y-79146400D01*
X173774100Y-79305150D01*
X173771028Y-81559400D01*
X172176972Y-81559400D01*
X172173900Y-79305150D01*
X172015150Y-79146400D01*
X170459400Y-79146400D01*
X170205400Y-79146400D01*
X168649650Y-79146400D01*
X168490900Y-79305150D01*
X168487916Y-81494869D01*
X166973200Y-79980154D01*
X166973200Y-79869961D01*
X166933426Y-79670002D01*
X166861207Y-79495650D01*
X166933426Y-79321298D01*
X166973200Y-79121339D01*
X166973200Y-78917461D01*
X166933426Y-78717502D01*
X166855405Y-78529144D01*
X166742137Y-78359626D01*
X166597974Y-78215463D01*
X166428456Y-78102195D01*
X166240098Y-78024174D01*
X166040139Y-77984400D01*
X165836261Y-77984400D01*
X165636302Y-78024174D01*
X165447944Y-78102195D01*
X165278426Y-78215463D01*
X165134263Y-78359626D01*
X165020995Y-78529144D01*
X164942974Y-78717502D01*
X164903200Y-78917461D01*
X164903200Y-79121339D01*
X164942974Y-79321298D01*
X165015193Y-79495650D01*
X164942974Y-79670002D01*
X164903200Y-79869961D01*
X164903200Y-80073839D01*
X164942974Y-80273798D01*
X165020995Y-80462156D01*
X165134263Y-80631674D01*
X165278426Y-80775837D01*
X165447944Y-80889105D01*
X165636302Y-80967126D01*
X165836261Y-81006900D01*
X165921054Y-81006900D01*
X169901446Y-84987293D01*
X169924462Y-85015338D01*
X170036380Y-85107187D01*
X170164067Y-85175437D01*
X170302615Y-85217465D01*
X170446700Y-85231656D01*
X170482805Y-85228100D01*
X174654354Y-85228100D01*
X174744501Y-85318248D01*
X174744500Y-104961553D01*
X172668954Y-107037100D01*
X160558211Y-107037100D01*
X160489274Y-106968163D01*
X160319756Y-106854895D01*
X160131398Y-106776874D01*
X159931439Y-106737100D01*
X159727561Y-106737100D01*
X159527602Y-106776874D01*
X159339244Y-106854895D01*
X159169726Y-106968163D01*
X159025563Y-107112326D01*
X158914616Y-107278370D01*
X156983100Y-105346854D01*
X156983100Y-102328711D01*
X157052037Y-102259774D01*
X157165305Y-102090256D01*
X157243326Y-101901898D01*
X157283100Y-101701939D01*
X157283100Y-101498061D01*
X157243326Y-101298102D01*
X157165305Y-101109744D01*
X157052037Y-100940226D01*
X156907874Y-100796063D01*
X156738356Y-100682795D01*
X156549998Y-100604774D01*
X156350039Y-100565000D01*
X156146161Y-100565000D01*
X155946202Y-100604774D01*
X155757844Y-100682795D01*
X155588326Y-100796063D01*
X155444163Y-100940226D01*
X155330895Y-101109744D01*
X155252874Y-101298102D01*
X155213100Y-101498061D01*
X155213100Y-101701939D01*
X155252874Y-101901898D01*
X155330895Y-102090256D01*
X155444163Y-102259774D01*
X155513100Y-102328711D01*
X155513101Y-105615185D01*
X155509544Y-105651300D01*
X155523735Y-105795385D01*
X155549430Y-105880087D01*
X155565764Y-105933933D01*
X155634014Y-106061620D01*
X155725863Y-106173538D01*
X155753908Y-106196554D01*
X158611146Y-109053793D01*
X158634162Y-109081838D01*
X158671228Y-109112258D01*
X153838187Y-109107280D01*
X153900138Y-109056438D01*
X153923159Y-109028387D01*
X154253087Y-108698459D01*
X154281138Y-108675438D01*
X154372987Y-108563520D01*
X154441237Y-108435833D01*
X154483265Y-108297285D01*
X154493900Y-108189305D01*
X154493900Y-108189296D01*
X154497455Y-108153201D01*
X154493900Y-108117106D01*
X154493900Y-102354111D01*
X154562837Y-102285174D01*
X154676105Y-102115656D01*
X154754126Y-101927298D01*
X154793900Y-101727339D01*
X154793900Y-101523461D01*
X154754126Y-101323502D01*
X154676105Y-101135144D01*
X154562837Y-100965626D01*
X154418674Y-100821463D01*
X154249156Y-100708195D01*
X154060798Y-100630174D01*
X153860839Y-100590400D01*
X153656961Y-100590400D01*
X153457002Y-100630174D01*
X153268644Y-100708195D01*
X153099126Y-100821463D01*
X152954963Y-100965626D01*
X152841695Y-101135144D01*
X152763674Y-101323502D01*
X152723900Y-101523461D01*
X152723900Y-101727339D01*
X152763674Y-101927298D01*
X152841695Y-102115656D01*
X152954963Y-102285174D01*
X153023900Y-102354111D01*
X153023901Y-106757560D01*
X152921039Y-106737100D01*
X152717161Y-106737100D01*
X152517202Y-106776874D01*
X152328844Y-106854895D01*
X152159326Y-106968163D01*
X152090389Y-107037100D01*
X144170647Y-107037100D01*
X142857100Y-105723554D01*
X142857100Y-99899100D01*
X143545928Y-99899100D01*
X143545928Y-101599100D01*
X143558188Y-101723582D01*
X143594498Y-101843280D01*
X143653463Y-101953594D01*
X143732815Y-102050285D01*
X143829506Y-102129637D01*
X143939820Y-102188602D01*
X144059518Y-102224912D01*
X144184000Y-102237172D01*
X145884000Y-102237172D01*
X146008482Y-102224912D01*
X146128180Y-102188602D01*
X146238494Y-102129637D01*
X146335185Y-102050285D01*
X146414537Y-101953594D01*
X146473502Y-101843280D01*
X146509812Y-101723582D01*
X146522072Y-101599100D01*
X146522072Y-101559100D01*
X147508812Y-101559100D01*
X147548600Y-101563019D01*
X147588388Y-101559100D01*
X147588391Y-101559100D01*
X147707388Y-101547380D01*
X147860073Y-101501063D01*
X148000789Y-101425849D01*
X148124128Y-101324628D01*
X148149500Y-101293712D01*
X150906713Y-98536500D01*
X153120900Y-98536500D01*
X153201118Y-98590100D01*
X153111826Y-98649763D01*
X152967663Y-98793926D01*
X152854395Y-98963444D01*
X152776374Y-99151802D01*
X152736600Y-99351761D01*
X152736600Y-99555639D01*
X152776374Y-99755598D01*
X152854395Y-99943956D01*
X152967663Y-100113474D01*
X153111826Y-100257637D01*
X153281344Y-100370905D01*
X153469702Y-100448926D01*
X153669661Y-100488700D01*
X153873539Y-100488700D01*
X154073498Y-100448926D01*
X154261856Y-100370905D01*
X154431374Y-100257637D01*
X154450311Y-100238700D01*
X161208189Y-100238700D01*
X161265226Y-100295737D01*
X161434744Y-100409005D01*
X161623102Y-100487026D01*
X161761372Y-100514529D01*
X162714258Y-101467416D01*
X162738836Y-101497364D01*
X162768784Y-101521942D01*
X162768787Y-101521945D01*
X162798159Y-101546050D01*
X162858367Y-101595462D01*
X162994740Y-101668354D01*
X163105455Y-101701939D01*
X163142712Y-101713241D01*
X163157090Y-101714657D01*
X163258039Y-101724600D01*
X163258046Y-101724600D01*
X163296599Y-101728397D01*
X163335152Y-101724600D01*
X171206528Y-101724600D01*
X171206528Y-101789600D01*
X171218788Y-101914082D01*
X171255098Y-102033780D01*
X171314063Y-102144094D01*
X171393415Y-102240785D01*
X171490106Y-102320137D01*
X171600420Y-102379102D01*
X171720118Y-102415412D01*
X171844600Y-102427672D01*
X173544600Y-102427672D01*
X173669082Y-102415412D01*
X173788780Y-102379102D01*
X173899094Y-102320137D01*
X173995785Y-102240785D01*
X174075137Y-102144094D01*
X174134102Y-102033780D01*
X174170412Y-101914082D01*
X174182672Y-101789600D01*
X174182672Y-100089600D01*
X174170412Y-99965118D01*
X174134102Y-99845420D01*
X174075137Y-99735106D01*
X173995785Y-99638415D01*
X173899094Y-99559063D01*
X173788780Y-99500098D01*
X173708134Y-99475634D01*
X173792188Y-99399869D01*
X173966241Y-99166520D01*
X174091425Y-98903699D01*
X174136076Y-98756490D01*
X174014755Y-98526600D01*
X172821600Y-98526600D01*
X172821600Y-98546600D01*
X172567600Y-98546600D01*
X172567600Y-98526600D01*
X171374445Y-98526600D01*
X171253124Y-98756490D01*
X171297775Y-98903699D01*
X171422959Y-99166520D01*
X171597012Y-99399869D01*
X171681066Y-99475634D01*
X171600420Y-99500098D01*
X171490106Y-99559063D01*
X171393415Y-99638415D01*
X171314063Y-99735106D01*
X171255098Y-99845420D01*
X171218788Y-99965118D01*
X171206528Y-100089600D01*
X171206528Y-100154600D01*
X163621758Y-100154600D01*
X162960000Y-99492843D01*
X162960000Y-99389861D01*
X162920226Y-99189902D01*
X162842205Y-99001544D01*
X162728937Y-98832026D01*
X162584774Y-98687863D01*
X162415256Y-98574595D01*
X162226898Y-98496574D01*
X162026939Y-98456800D01*
X161823061Y-98456800D01*
X161623102Y-98496574D01*
X161434744Y-98574595D01*
X161293906Y-98668700D01*
X154450311Y-98668700D01*
X154431374Y-98649763D01*
X154342082Y-98590100D01*
X154431374Y-98530437D01*
X154575537Y-98386274D01*
X154688805Y-98216756D01*
X154760897Y-98042710D01*
X171253124Y-98042710D01*
X171374445Y-98272600D01*
X172567600Y-98272600D01*
X172567600Y-97078786D01*
X172821600Y-97078786D01*
X172821600Y-98272600D01*
X174014755Y-98272600D01*
X174136076Y-98042710D01*
X174091425Y-97895501D01*
X173966241Y-97632680D01*
X173792188Y-97399331D01*
X173575955Y-97204422D01*
X173325852Y-97055443D01*
X173051491Y-96958119D01*
X172821600Y-97078786D01*
X172567600Y-97078786D01*
X172337709Y-96958119D01*
X172063348Y-97055443D01*
X171813245Y-97204422D01*
X171597012Y-97399331D01*
X171422959Y-97632680D01*
X171297775Y-97895501D01*
X171253124Y-98042710D01*
X154760897Y-98042710D01*
X154766826Y-98028398D01*
X154806600Y-97828439D01*
X154806600Y-97624561D01*
X154766826Y-97424602D01*
X154688805Y-97236244D01*
X154575537Y-97066726D01*
X154431374Y-96922563D01*
X154261856Y-96809295D01*
X154073498Y-96731274D01*
X153873539Y-96691500D01*
X153669661Y-96691500D01*
X153469702Y-96731274D01*
X153281344Y-96809295D01*
X153120900Y-96916500D01*
X150610988Y-96916500D01*
X150571200Y-96912581D01*
X150531412Y-96916500D01*
X150531409Y-96916500D01*
X150412412Y-96928220D01*
X150259727Y-96974537D01*
X150194224Y-97009549D01*
X150119010Y-97049751D01*
X150054996Y-97102286D01*
X149995672Y-97150972D01*
X149970305Y-97181882D01*
X147213088Y-99939100D01*
X146522072Y-99939100D01*
X146522072Y-99899100D01*
X146509812Y-99774618D01*
X146473502Y-99654920D01*
X146414537Y-99544606D01*
X146335185Y-99447915D01*
X146238494Y-99368563D01*
X146128180Y-99309598D01*
X146047534Y-99285134D01*
X146131588Y-99209369D01*
X146305641Y-98976020D01*
X146430825Y-98713199D01*
X146475476Y-98565990D01*
X146354155Y-98336100D01*
X145161000Y-98336100D01*
X145161000Y-98356100D01*
X144907000Y-98356100D01*
X144907000Y-98336100D01*
X143713845Y-98336100D01*
X143592524Y-98565990D01*
X143637175Y-98713199D01*
X143762359Y-98976020D01*
X143936412Y-99209369D01*
X144020466Y-99285134D01*
X143939820Y-99309598D01*
X143829506Y-99368563D01*
X143732815Y-99447915D01*
X143653463Y-99544606D01*
X143594498Y-99654920D01*
X143558188Y-99774618D01*
X143545928Y-99899100D01*
X142857100Y-99899100D01*
X142857100Y-97852210D01*
X143592524Y-97852210D01*
X143713845Y-98082100D01*
X144907000Y-98082100D01*
X144907000Y-96888286D01*
X145161000Y-96888286D01*
X145161000Y-98082100D01*
X146354155Y-98082100D01*
X146475476Y-97852210D01*
X146430825Y-97705001D01*
X146305641Y-97442180D01*
X146131588Y-97208831D01*
X145915355Y-97013922D01*
X145665252Y-96864943D01*
X145390891Y-96767619D01*
X145161000Y-96888286D01*
X144907000Y-96888286D01*
X144677109Y-96767619D01*
X144402748Y-96864943D01*
X144152645Y-97013922D01*
X143936412Y-97208831D01*
X143762359Y-97442180D01*
X143637175Y-97705001D01*
X143592524Y-97852210D01*
X142857100Y-97852210D01*
X142857100Y-93650700D01*
X143596728Y-93650700D01*
X143596728Y-95350700D01*
X143608988Y-95475182D01*
X143645298Y-95594880D01*
X143704263Y-95705194D01*
X143783615Y-95801885D01*
X143880306Y-95881237D01*
X143990620Y-95940202D01*
X144110318Y-95976512D01*
X144234800Y-95988772D01*
X145934800Y-95988772D01*
X146059282Y-95976512D01*
X146178980Y-95940202D01*
X146289294Y-95881237D01*
X146385985Y-95801885D01*
X146465337Y-95705194D01*
X146524302Y-95594880D01*
X146560612Y-95475182D01*
X146572872Y-95350700D01*
X146572872Y-93917400D01*
X171168428Y-93917400D01*
X171168428Y-95617400D01*
X171180688Y-95741882D01*
X171216998Y-95861580D01*
X171275963Y-95971894D01*
X171355315Y-96068585D01*
X171452006Y-96147937D01*
X171562320Y-96206902D01*
X171682018Y-96243212D01*
X171806500Y-96255472D01*
X173506500Y-96255472D01*
X173630982Y-96243212D01*
X173750680Y-96206902D01*
X173860994Y-96147937D01*
X173957685Y-96068585D01*
X174037037Y-95971894D01*
X174096002Y-95861580D01*
X174132312Y-95741882D01*
X174144572Y-95617400D01*
X174144572Y-93917400D01*
X174132312Y-93792918D01*
X174096002Y-93673220D01*
X174037037Y-93562906D01*
X173957685Y-93466215D01*
X173860994Y-93386863D01*
X173750680Y-93327898D01*
X173678120Y-93305887D01*
X173809975Y-93174032D01*
X173972490Y-92930811D01*
X174084432Y-92660558D01*
X174141500Y-92373660D01*
X174141500Y-92081140D01*
X174084432Y-91794242D01*
X173972490Y-91523989D01*
X173809975Y-91280768D01*
X173603132Y-91073925D01*
X173428740Y-90957400D01*
X173603132Y-90840875D01*
X173809975Y-90634032D01*
X173972490Y-90390811D01*
X174084432Y-90120558D01*
X174141500Y-89833660D01*
X174141500Y-89541140D01*
X174084432Y-89254242D01*
X173972490Y-88983989D01*
X173809975Y-88740768D01*
X173603132Y-88533925D01*
X173428740Y-88417400D01*
X173603132Y-88300875D01*
X173809975Y-88094032D01*
X173972490Y-87850811D01*
X174084432Y-87580558D01*
X174141500Y-87293660D01*
X174141500Y-87001140D01*
X174084432Y-86714242D01*
X173972490Y-86443989D01*
X173809975Y-86200768D01*
X173603132Y-85993925D01*
X173359911Y-85831410D01*
X173089658Y-85719468D01*
X172802760Y-85662400D01*
X172510240Y-85662400D01*
X172223342Y-85719468D01*
X171953089Y-85831410D01*
X171709868Y-85993925D01*
X171503025Y-86200768D01*
X171340510Y-86443989D01*
X171228568Y-86714242D01*
X171171500Y-87001140D01*
X171171500Y-87293660D01*
X171228568Y-87580558D01*
X171340510Y-87850811D01*
X171503025Y-88094032D01*
X171709868Y-88300875D01*
X171884260Y-88417400D01*
X171709868Y-88533925D01*
X171503025Y-88740768D01*
X171340510Y-88983989D01*
X171228568Y-89254242D01*
X171171500Y-89541140D01*
X171171500Y-89833660D01*
X171228568Y-90120558D01*
X171340510Y-90390811D01*
X171503025Y-90634032D01*
X171709868Y-90840875D01*
X171884260Y-90957400D01*
X171709868Y-91073925D01*
X171503025Y-91280768D01*
X171340510Y-91523989D01*
X171228568Y-91794242D01*
X171171500Y-92081140D01*
X171171500Y-92373660D01*
X171228568Y-92660558D01*
X171340510Y-92930811D01*
X171503025Y-93174032D01*
X171634880Y-93305887D01*
X171562320Y-93327898D01*
X171452006Y-93386863D01*
X171355315Y-93466215D01*
X171275963Y-93562906D01*
X171216998Y-93673220D01*
X171180688Y-93792918D01*
X171168428Y-93917400D01*
X146572872Y-93917400D01*
X146572872Y-93650700D01*
X146560612Y-93526218D01*
X146524302Y-93406520D01*
X146465337Y-93296206D01*
X146385985Y-93199515D01*
X146289294Y-93120163D01*
X146178980Y-93061198D01*
X146106420Y-93039187D01*
X146238275Y-92907332D01*
X146400790Y-92664111D01*
X146512732Y-92393858D01*
X146569800Y-92106960D01*
X146569800Y-91814440D01*
X146512732Y-91527542D01*
X146400790Y-91257289D01*
X146238275Y-91014068D01*
X146031432Y-90807225D01*
X145857040Y-90690700D01*
X146031432Y-90574175D01*
X146238275Y-90367332D01*
X146400790Y-90124111D01*
X146512732Y-89853858D01*
X146569800Y-89566960D01*
X146569800Y-89274440D01*
X146512732Y-88987542D01*
X146400790Y-88717289D01*
X146238275Y-88474068D01*
X146031432Y-88267225D01*
X145857040Y-88150700D01*
X146031432Y-88034175D01*
X146238275Y-87827332D01*
X146400790Y-87584111D01*
X146512732Y-87313858D01*
X146569800Y-87026960D01*
X146569800Y-86734440D01*
X146512732Y-86447542D01*
X146400790Y-86177289D01*
X146238275Y-85934068D01*
X146031432Y-85727225D01*
X145788211Y-85564710D01*
X145517958Y-85452768D01*
X145231060Y-85395700D01*
X144938540Y-85395700D01*
X144651642Y-85452768D01*
X144381389Y-85564710D01*
X144138168Y-85727225D01*
X143931325Y-85934068D01*
X143768810Y-86177289D01*
X143656868Y-86447542D01*
X143599800Y-86734440D01*
X143599800Y-87026960D01*
X143656868Y-87313858D01*
X143768810Y-87584111D01*
X143931325Y-87827332D01*
X144138168Y-88034175D01*
X144312560Y-88150700D01*
X144138168Y-88267225D01*
X143931325Y-88474068D01*
X143768810Y-88717289D01*
X143656868Y-88987542D01*
X143599800Y-89274440D01*
X143599800Y-89566960D01*
X143656868Y-89853858D01*
X143768810Y-90124111D01*
X143931325Y-90367332D01*
X144138168Y-90574175D01*
X144312560Y-90690700D01*
X144138168Y-90807225D01*
X143931325Y-91014068D01*
X143768810Y-91257289D01*
X143656868Y-91527542D01*
X143599800Y-91814440D01*
X143599800Y-92106960D01*
X143656868Y-92393858D01*
X143768810Y-92664111D01*
X143931325Y-92907332D01*
X144063180Y-93039187D01*
X143990620Y-93061198D01*
X143880306Y-93120163D01*
X143783615Y-93199515D01*
X143704263Y-93296206D01*
X143645298Y-93406520D01*
X143608988Y-93526218D01*
X143596728Y-93650700D01*
X142857100Y-93650700D01*
X142857100Y-84828050D01*
X147785545Y-84828050D01*
X147821650Y-84831606D01*
X147857755Y-84828050D01*
X147965735Y-84817415D01*
X148104283Y-84775387D01*
X148231970Y-84707137D01*
X148343888Y-84615288D01*
X148366909Y-84587237D01*
X151394746Y-81559400D01*
X154517828Y-81559400D01*
X154530088Y-81683882D01*
X154566398Y-81803580D01*
X154625363Y-81913894D01*
X154704715Y-82010585D01*
X154801406Y-82089937D01*
X154911720Y-82148902D01*
X155031418Y-82185212D01*
X155155900Y-82197472D01*
X156076650Y-82194400D01*
X156235400Y-82035650D01*
X156235400Y-79146400D01*
X156489400Y-79146400D01*
X156489400Y-82035650D01*
X156648150Y-82194400D01*
X157568900Y-82197472D01*
X157693382Y-82185212D01*
X157813080Y-82148902D01*
X157923394Y-82089937D01*
X158020085Y-82010585D01*
X158099437Y-81913894D01*
X158158402Y-81803580D01*
X158194712Y-81683882D01*
X158206972Y-81559400D01*
X159724828Y-81559400D01*
X159737088Y-81683882D01*
X159773398Y-81803580D01*
X159832363Y-81913894D01*
X159911715Y-82010585D01*
X160008406Y-82089937D01*
X160118720Y-82148902D01*
X160238418Y-82185212D01*
X160362900Y-82197472D01*
X161283650Y-82194400D01*
X161442400Y-82035650D01*
X161442400Y-79146400D01*
X161696400Y-79146400D01*
X161696400Y-82035650D01*
X161855150Y-82194400D01*
X162775900Y-82197472D01*
X162900382Y-82185212D01*
X163020080Y-82148902D01*
X163130394Y-82089937D01*
X163227085Y-82010585D01*
X163306437Y-81913894D01*
X163365402Y-81803580D01*
X163401712Y-81683882D01*
X163413972Y-81559400D01*
X163410900Y-79305150D01*
X163252150Y-79146400D01*
X161696400Y-79146400D01*
X161442400Y-79146400D01*
X159886650Y-79146400D01*
X159727900Y-79305150D01*
X159724828Y-81559400D01*
X158206972Y-81559400D01*
X158203900Y-79305150D01*
X158045150Y-79146400D01*
X156489400Y-79146400D01*
X156235400Y-79146400D01*
X154679650Y-79146400D01*
X154520900Y-79305150D01*
X154517828Y-81559400D01*
X151394746Y-81559400D01*
X151883747Y-81070400D01*
X152057439Y-81070400D01*
X152257398Y-81030626D01*
X152445756Y-80952605D01*
X152615274Y-80839337D01*
X152759437Y-80695174D01*
X152872705Y-80525656D01*
X152950726Y-80337298D01*
X152990500Y-80137339D01*
X152990500Y-79933461D01*
X152950726Y-79733502D01*
X152878507Y-79559150D01*
X152950726Y-79384798D01*
X152990500Y-79184839D01*
X152990500Y-78980961D01*
X152950726Y-78781002D01*
X152872705Y-78592644D01*
X152759437Y-78423126D01*
X152615274Y-78278963D01*
X152445756Y-78165695D01*
X152257398Y-78087674D01*
X152057439Y-78047900D01*
X151853561Y-78047900D01*
X151653602Y-78087674D01*
X151465244Y-78165695D01*
X151295726Y-78278963D01*
X151151563Y-78423126D01*
X151038295Y-78592644D01*
X150960274Y-78781002D01*
X150920500Y-78980961D01*
X150920500Y-79184839D01*
X150960274Y-79384798D01*
X151032493Y-79559150D01*
X150960274Y-79733502D01*
X150920500Y-79933461D01*
X150920500Y-79954753D01*
X149443798Y-81431456D01*
X149440900Y-79305150D01*
X149282150Y-79146400D01*
X147726400Y-79146400D01*
X147726400Y-82035650D01*
X147885150Y-82194400D01*
X148678208Y-82197046D01*
X147517204Y-83358050D01*
X142561844Y-83358050D01*
X142525749Y-83354495D01*
X142489654Y-83358050D01*
X142489645Y-83358050D01*
X142381665Y-83368685D01*
X142243117Y-83410713D01*
X142115430Y-83478963D01*
X142003512Y-83570812D01*
X141980491Y-83598863D01*
X141903450Y-83675904D01*
X141794659Y-83567113D01*
X141771638Y-83539062D01*
X141659720Y-83447213D01*
X141532033Y-83378963D01*
X141393485Y-83336935D01*
X141285505Y-83326300D01*
X141249400Y-83322744D01*
X141213295Y-83326300D01*
X138988447Y-83326300D01*
X138809400Y-83147254D01*
X138809400Y-81610200D01*
X140598628Y-81610200D01*
X140610888Y-81734682D01*
X140647198Y-81854380D01*
X140706163Y-81964694D01*
X140785515Y-82061385D01*
X140882206Y-82140737D01*
X140992520Y-82199702D01*
X141112218Y-82236012D01*
X141236700Y-82248272D01*
X142157450Y-82245200D01*
X142316200Y-82086450D01*
X142316200Y-79197200D01*
X142570200Y-79197200D01*
X142570200Y-82086450D01*
X142728950Y-82245200D01*
X143649700Y-82248272D01*
X143774182Y-82236012D01*
X143893880Y-82199702D01*
X144004194Y-82140737D01*
X144100885Y-82061385D01*
X144180237Y-81964694D01*
X144239202Y-81854380D01*
X144275512Y-81734682D01*
X144287772Y-81610200D01*
X144287703Y-81559400D01*
X145754828Y-81559400D01*
X145767088Y-81683882D01*
X145803398Y-81803580D01*
X145862363Y-81913894D01*
X145941715Y-82010585D01*
X146038406Y-82089937D01*
X146148720Y-82148902D01*
X146268418Y-82185212D01*
X146392900Y-82197472D01*
X147313650Y-82194400D01*
X147472400Y-82035650D01*
X147472400Y-79146400D01*
X145916650Y-79146400D01*
X145757900Y-79305150D01*
X145754828Y-81559400D01*
X144287703Y-81559400D01*
X144284700Y-79355950D01*
X144125950Y-79197200D01*
X142570200Y-79197200D01*
X142316200Y-79197200D01*
X140760450Y-79197200D01*
X140601700Y-79355950D01*
X140598628Y-81610200D01*
X138809400Y-81610200D01*
X138809400Y-80853011D01*
X138878337Y-80784074D01*
X138991605Y-80614556D01*
X139069626Y-80426198D01*
X139109400Y-80226239D01*
X139109400Y-80022361D01*
X139069626Y-79822402D01*
X138991605Y-79634044D01*
X138983992Y-79622650D01*
X138991605Y-79611256D01*
X139069626Y-79422898D01*
X139109400Y-79222939D01*
X139109400Y-79019061D01*
X139069626Y-78819102D01*
X138991605Y-78630744D01*
X138878337Y-78461226D01*
X138734174Y-78317063D01*
X138564656Y-78203795D01*
X138376298Y-78125774D01*
X138176339Y-78086000D01*
X137972461Y-78086000D01*
X137772502Y-78125774D01*
X137584144Y-78203795D01*
X137414626Y-78317063D01*
X137270463Y-78461226D01*
X137157195Y-78630744D01*
X137079174Y-78819102D01*
X137039400Y-79019061D01*
X137039400Y-79222939D01*
X137079174Y-79422898D01*
X137157195Y-79611256D01*
X137164808Y-79622650D01*
X137157195Y-79634044D01*
X137079174Y-79822402D01*
X137039400Y-80022361D01*
X137039400Y-80226239D01*
X137079174Y-80426198D01*
X137157195Y-80614556D01*
X137270463Y-80784074D01*
X137339401Y-80853012D01*
X137339400Y-83415595D01*
X137335844Y-83451700D01*
X137350035Y-83595785D01*
X137362784Y-83637813D01*
X137392063Y-83734332D01*
X137460313Y-83862019D01*
X137552162Y-83973937D01*
X137580208Y-83996954D01*
X138138746Y-84555493D01*
X138161762Y-84583538D01*
X138254612Y-84659738D01*
X138273680Y-84675387D01*
X138401366Y-84743637D01*
X138539915Y-84785665D01*
X138684000Y-84799856D01*
X138720105Y-84796300D01*
X140937101Y-84796300D01*
X140937100Y-106178295D01*
X140933544Y-106214400D01*
X140947735Y-106358485D01*
X140960484Y-106400513D01*
X140989763Y-106497032D01*
X141058013Y-106624719D01*
X141149862Y-106736637D01*
X141177908Y-106759654D01*
X143103746Y-108685493D01*
X143126762Y-108713538D01*
X143238680Y-108805387D01*
X143366367Y-108873637D01*
X143504915Y-108915665D01*
X143649000Y-108929856D01*
X143685105Y-108926300D01*
X151897852Y-108926300D01*
X151999939Y-109028387D01*
X152022960Y-109056438D01*
X152082708Y-109105472D01*
X116230258Y-109068549D01*
X116235027Y-96464972D01*
X116992600Y-96464972D01*
X116992600Y-96905228D01*
X117078490Y-97337025D01*
X117246969Y-97743769D01*
X117491562Y-98109829D01*
X117802871Y-98421138D01*
X118168931Y-98665731D01*
X118575675Y-98834210D01*
X119007472Y-98920100D01*
X119447728Y-98920100D01*
X119879525Y-98834210D01*
X120286269Y-98665731D01*
X120652329Y-98421138D01*
X120963638Y-98109829D01*
X121208231Y-97743769D01*
X121376710Y-97337025D01*
X121462600Y-96905228D01*
X121462600Y-96464972D01*
X121376710Y-96033175D01*
X121208231Y-95626431D01*
X120963638Y-95260371D01*
X120652329Y-94949062D01*
X120286269Y-94704469D01*
X119879525Y-94535990D01*
X119447728Y-94450100D01*
X119007472Y-94450100D01*
X118575675Y-94535990D01*
X118168931Y-94704469D01*
X117802871Y-94949062D01*
X117491562Y-95260371D01*
X117246969Y-95626431D01*
X117078490Y-96033175D01*
X116992600Y-96464972D01*
X116235027Y-96464972D01*
X116240647Y-81610200D01*
X131835628Y-81610200D01*
X131847888Y-81734682D01*
X131884198Y-81854380D01*
X131943163Y-81964694D01*
X132022515Y-82061385D01*
X132119206Y-82140737D01*
X132229520Y-82199702D01*
X132349218Y-82236012D01*
X132473700Y-82248272D01*
X133394450Y-82245200D01*
X133553200Y-82086450D01*
X133553200Y-79197200D01*
X133807200Y-79197200D01*
X133807200Y-82086450D01*
X133965950Y-82245200D01*
X134886700Y-82248272D01*
X135011182Y-82236012D01*
X135130880Y-82199702D01*
X135241194Y-82140737D01*
X135337885Y-82061385D01*
X135417237Y-81964694D01*
X135476202Y-81854380D01*
X135512512Y-81734682D01*
X135524772Y-81610200D01*
X135521700Y-79355950D01*
X135362950Y-79197200D01*
X133807200Y-79197200D01*
X133553200Y-79197200D01*
X131997450Y-79197200D01*
X131838700Y-79355950D01*
X131835628Y-81610200D01*
X116240647Y-81610200D01*
X116242450Y-76847784D01*
X131836076Y-76859252D01*
%TA.AperFunction,Conductor*%
D19*
G36*
X131836076Y-76859252D02*
G01*
X131838700Y-78784450D01*
X131997450Y-78943200D01*
X133553200Y-78943200D01*
X133553200Y-78923200D01*
X133807200Y-78923200D01*
X133807200Y-78943200D01*
X135362950Y-78943200D01*
X135521700Y-78784450D01*
X135524320Y-76861964D01*
X140599085Y-76865696D01*
X140601700Y-78784450D01*
X140760450Y-78943200D01*
X142316200Y-78943200D01*
X142316200Y-78923200D01*
X142570200Y-78923200D01*
X142570200Y-78943200D01*
X144125950Y-78943200D01*
X144284700Y-78784450D01*
X144287311Y-76868409D01*
X145755360Y-76869488D01*
X145757900Y-78733650D01*
X145916650Y-78892400D01*
X147472400Y-78892400D01*
X147472400Y-78872400D01*
X147726400Y-78872400D01*
X147726400Y-78892400D01*
X149282150Y-78892400D01*
X149440900Y-78733650D01*
X149443437Y-76872201D01*
X154518368Y-76875933D01*
X154520900Y-78733650D01*
X154679650Y-78892400D01*
X156235400Y-78892400D01*
X156235400Y-78872400D01*
X156489400Y-78872400D01*
X156489400Y-78892400D01*
X158045150Y-78892400D01*
X158203900Y-78733650D01*
X158206428Y-76878645D01*
X159725374Y-76879762D01*
X159727900Y-78733650D01*
X159886650Y-78892400D01*
X161442400Y-78892400D01*
X161442400Y-78872400D01*
X161696400Y-78872400D01*
X161696400Y-78892400D01*
X163252150Y-78892400D01*
X163410900Y-78733650D01*
X163413423Y-76882474D01*
X168488382Y-76886206D01*
X168490900Y-78733650D01*
X168649650Y-78892400D01*
X170205400Y-78892400D01*
X170205400Y-78872400D01*
X170459400Y-78872400D01*
X170459400Y-78892400D01*
X172015150Y-78892400D01*
X172173900Y-78733650D01*
X172176414Y-76888919D01*
X173771588Y-76890092D01*
X173774100Y-78733650D01*
X173932850Y-78892400D01*
X175488600Y-78892400D01*
X175488600Y-78872400D01*
X175742600Y-78872400D01*
X175742600Y-78892400D01*
X177298350Y-78892400D01*
X177457100Y-78733650D01*
X177459609Y-76892804D01*
X182534596Y-76896536D01*
X182537100Y-78733650D01*
X182695850Y-78892400D01*
X184251600Y-78892400D01*
X184251600Y-78872400D01*
X184505600Y-78872400D01*
X184505600Y-78892400D01*
X186061350Y-78892400D01*
X186220100Y-78733650D01*
X186222600Y-76899248D01*
X201396223Y-76910407D01*
X201359649Y-109156221D01*
X160832659Y-109114483D01*
X160872438Y-109081838D01*
X160895459Y-109053787D01*
X161042136Y-108907110D01*
X173173685Y-108907110D01*
X173209790Y-108910666D01*
X173245895Y-108907110D01*
X173353875Y-108896475D01*
X173492423Y-108854447D01*
X173620110Y-108786197D01*
X173732028Y-108694348D01*
X173755049Y-108666298D01*
X176423697Y-105997650D01*
X176451737Y-105974638D01*
X176474750Y-105946597D01*
X176474753Y-105946594D01*
X176543587Y-105862720D01*
X176611836Y-105735034D01*
X176611837Y-105735033D01*
X176653865Y-105596485D01*
X176664500Y-105488505D01*
X176664500Y-105488504D01*
X176668056Y-105452400D01*
X176664500Y-105416295D01*
X176664500Y-96439572D01*
X196215200Y-96439572D01*
X196215200Y-96879828D01*
X196301090Y-97311625D01*
X196469569Y-97718369D01*
X196714162Y-98084429D01*
X197025471Y-98395738D01*
X197391531Y-98640331D01*
X197798275Y-98808810D01*
X198230072Y-98894700D01*
X198670328Y-98894700D01*
X199102125Y-98808810D01*
X199508869Y-98640331D01*
X199874929Y-98395738D01*
X200186238Y-98084429D01*
X200430831Y-97718369D01*
X200599310Y-97311625D01*
X200685200Y-96879828D01*
X200685200Y-96439572D01*
X200599310Y-96007775D01*
X200430831Y-95601031D01*
X200186238Y-95234971D01*
X199874929Y-94923662D01*
X199508869Y-94679069D01*
X199102125Y-94510590D01*
X198670328Y-94424700D01*
X198230072Y-94424700D01*
X197798275Y-94510590D01*
X197391531Y-94679069D01*
X197025471Y-94923662D01*
X196714162Y-95234971D01*
X196469569Y-95601031D01*
X196301090Y-96007775D01*
X196215200Y-96439572D01*
X176664500Y-96439572D01*
X176664500Y-85327346D01*
X176751047Y-85240800D01*
X179579995Y-85240800D01*
X179616100Y-85244356D01*
X179652205Y-85240800D01*
X179760185Y-85230165D01*
X179898733Y-85188137D01*
X180026420Y-85119887D01*
X180138338Y-85028038D01*
X180161359Y-84999987D01*
X180478592Y-84682754D01*
X180506637Y-84659738D01*
X180598487Y-84547820D01*
X180666737Y-84420133D01*
X180708765Y-84281585D01*
X180719400Y-84173605D01*
X180719400Y-84173604D01*
X180722956Y-84137500D01*
X180719400Y-84101395D01*
X180719400Y-81559400D01*
X182534028Y-81559400D01*
X182546288Y-81683882D01*
X182582598Y-81803580D01*
X182641563Y-81913894D01*
X182720915Y-82010585D01*
X182817606Y-82089937D01*
X182927920Y-82148902D01*
X183047618Y-82185212D01*
X183172100Y-82197472D01*
X184092850Y-82194400D01*
X184251600Y-82035650D01*
X184251600Y-79146400D01*
X184505600Y-79146400D01*
X184505600Y-82035650D01*
X184664350Y-82194400D01*
X185585100Y-82197472D01*
X185709582Y-82185212D01*
X185829280Y-82148902D01*
X185939594Y-82089937D01*
X186036285Y-82010585D01*
X186115637Y-81913894D01*
X186174602Y-81803580D01*
X186210912Y-81683882D01*
X186223172Y-81559400D01*
X186220100Y-79305150D01*
X186061350Y-79146400D01*
X184505600Y-79146400D01*
X184251600Y-79146400D01*
X182695850Y-79146400D01*
X182537100Y-79305150D01*
X182534028Y-81559400D01*
X180719400Y-81559400D01*
X180719400Y-80764111D01*
X180788337Y-80695174D01*
X180901605Y-80525656D01*
X180979626Y-80337298D01*
X181019400Y-80137339D01*
X181019400Y-79933461D01*
X180979626Y-79733502D01*
X180901605Y-79545144D01*
X180898235Y-79540100D01*
X180901605Y-79535056D01*
X180979626Y-79346698D01*
X181019400Y-79146739D01*
X181019400Y-78942861D01*
X180979626Y-78742902D01*
X180901605Y-78554544D01*
X180788337Y-78385026D01*
X180644174Y-78240863D01*
X180474656Y-78127595D01*
X180286298Y-78049574D01*
X180086339Y-78009800D01*
X179882461Y-78009800D01*
X179682502Y-78049574D01*
X179494144Y-78127595D01*
X179324626Y-78240863D01*
X179180463Y-78385026D01*
X179067195Y-78554544D01*
X178989174Y-78742902D01*
X178949400Y-78942861D01*
X178949400Y-79146739D01*
X178989174Y-79346698D01*
X179067195Y-79535056D01*
X179070565Y-79540100D01*
X179067195Y-79545144D01*
X178989174Y-79733502D01*
X178949400Y-79933461D01*
X178949400Y-80137339D01*
X178989174Y-80337298D01*
X179067195Y-80525656D01*
X179180463Y-80695174D01*
X179249401Y-80764112D01*
X179249400Y-83770800D01*
X176482705Y-83770800D01*
X176446600Y-83767244D01*
X176410495Y-83770800D01*
X176302515Y-83781435D01*
X176163967Y-83823463D01*
X176036280Y-83891713D01*
X175924362Y-83983562D01*
X175901346Y-84011607D01*
X175709050Y-84203903D01*
X175504058Y-83998912D01*
X175481038Y-83970862D01*
X175369120Y-83879013D01*
X175241433Y-83810763D01*
X175102885Y-83768735D01*
X174994905Y-83758100D01*
X174958800Y-83754544D01*
X174922695Y-83758100D01*
X170751147Y-83758100D01*
X169190304Y-82197257D01*
X170046650Y-82194400D01*
X170205400Y-82035650D01*
X170205400Y-79146400D01*
X170459400Y-79146400D01*
X170459400Y-82035650D01*
X170618150Y-82194400D01*
X171538900Y-82197472D01*
X171663382Y-82185212D01*
X171783080Y-82148902D01*
X171893394Y-82089937D01*
X171990085Y-82010585D01*
X172069437Y-81913894D01*
X172128402Y-81803580D01*
X172164712Y-81683882D01*
X172176972Y-81559400D01*
X173771028Y-81559400D01*
X173783288Y-81683882D01*
X173819598Y-81803580D01*
X173878563Y-81913894D01*
X173957915Y-82010585D01*
X174054606Y-82089937D01*
X174164920Y-82148902D01*
X174284618Y-82185212D01*
X174409100Y-82197472D01*
X175329850Y-82194400D01*
X175488600Y-82035650D01*
X175488600Y-79146400D01*
X175742600Y-79146400D01*
X175742600Y-82035650D01*
X175901350Y-82194400D01*
X176822100Y-82197472D01*
X176946582Y-82185212D01*
X177066280Y-82148902D01*
X177176594Y-82089937D01*
X177273285Y-82010585D01*
X177352637Y-81913894D01*
X177411602Y-81803580D01*
X177447912Y-81683882D01*
X177460172Y-81559400D01*
X177457100Y-79305150D01*
X177298350Y-79146400D01*
X175742600Y-79146400D01*
X175488600Y-79146400D01*
X173932850Y-79146400D01*
X173774100Y-79305150D01*
X173771028Y-81559400D01*
X172176972Y-81559400D01*
X172173900Y-79305150D01*
X172015150Y-79146400D01*
X170459400Y-79146400D01*
X170205400Y-79146400D01*
X168649650Y-79146400D01*
X168490900Y-79305150D01*
X168487916Y-81494869D01*
X166973200Y-79980154D01*
X166973200Y-79869961D01*
X166933426Y-79670002D01*
X166861207Y-79495650D01*
X166933426Y-79321298D01*
X166973200Y-79121339D01*
X166973200Y-78917461D01*
X166933426Y-78717502D01*
X166855405Y-78529144D01*
X166742137Y-78359626D01*
X166597974Y-78215463D01*
X166428456Y-78102195D01*
X166240098Y-78024174D01*
X166040139Y-77984400D01*
X165836261Y-77984400D01*
X165636302Y-78024174D01*
X165447944Y-78102195D01*
X165278426Y-78215463D01*
X165134263Y-78359626D01*
X165020995Y-78529144D01*
X164942974Y-78717502D01*
X164903200Y-78917461D01*
X164903200Y-79121339D01*
X164942974Y-79321298D01*
X165015193Y-79495650D01*
X164942974Y-79670002D01*
X164903200Y-79869961D01*
X164903200Y-80073839D01*
X164942974Y-80273798D01*
X165020995Y-80462156D01*
X165134263Y-80631674D01*
X165278426Y-80775837D01*
X165447944Y-80889105D01*
X165636302Y-80967126D01*
X165836261Y-81006900D01*
X165921054Y-81006900D01*
X169901446Y-84987293D01*
X169924462Y-85015338D01*
X170036380Y-85107187D01*
X170164067Y-85175437D01*
X170302615Y-85217465D01*
X170446700Y-85231656D01*
X170482805Y-85228100D01*
X174654354Y-85228100D01*
X174744501Y-85318248D01*
X174744500Y-104961553D01*
X172668954Y-107037100D01*
X160558211Y-107037100D01*
X160489274Y-106968163D01*
X160319756Y-106854895D01*
X160131398Y-106776874D01*
X159931439Y-106737100D01*
X159727561Y-106737100D01*
X159527602Y-106776874D01*
X159339244Y-106854895D01*
X159169726Y-106968163D01*
X159025563Y-107112326D01*
X158914616Y-107278370D01*
X156983100Y-105346854D01*
X156983100Y-102328711D01*
X157052037Y-102259774D01*
X157165305Y-102090256D01*
X157243326Y-101901898D01*
X157283100Y-101701939D01*
X157283100Y-101498061D01*
X157243326Y-101298102D01*
X157165305Y-101109744D01*
X157052037Y-100940226D01*
X156907874Y-100796063D01*
X156738356Y-100682795D01*
X156549998Y-100604774D01*
X156350039Y-100565000D01*
X156146161Y-100565000D01*
X155946202Y-100604774D01*
X155757844Y-100682795D01*
X155588326Y-100796063D01*
X155444163Y-100940226D01*
X155330895Y-101109744D01*
X155252874Y-101298102D01*
X155213100Y-101498061D01*
X155213100Y-101701939D01*
X155252874Y-101901898D01*
X155330895Y-102090256D01*
X155444163Y-102259774D01*
X155513100Y-102328711D01*
X155513101Y-105615185D01*
X155509544Y-105651300D01*
X155523735Y-105795385D01*
X155549430Y-105880087D01*
X155565764Y-105933933D01*
X155634014Y-106061620D01*
X155725863Y-106173538D01*
X155753908Y-106196554D01*
X158611146Y-109053793D01*
X158634162Y-109081838D01*
X158671228Y-109112258D01*
X153838187Y-109107280D01*
X153900138Y-109056438D01*
X153923159Y-109028387D01*
X154253087Y-108698459D01*
X154281138Y-108675438D01*
X154372987Y-108563520D01*
X154441237Y-108435833D01*
X154483265Y-108297285D01*
X154493900Y-108189305D01*
X154493900Y-108189296D01*
X154497455Y-108153201D01*
X154493900Y-108117106D01*
X154493900Y-102354111D01*
X154562837Y-102285174D01*
X154676105Y-102115656D01*
X154754126Y-101927298D01*
X154793900Y-101727339D01*
X154793900Y-101523461D01*
X154754126Y-101323502D01*
X154676105Y-101135144D01*
X154562837Y-100965626D01*
X154418674Y-100821463D01*
X154249156Y-100708195D01*
X154060798Y-100630174D01*
X153860839Y-100590400D01*
X153656961Y-100590400D01*
X153457002Y-100630174D01*
X153268644Y-100708195D01*
X153099126Y-100821463D01*
X152954963Y-100965626D01*
X152841695Y-101135144D01*
X152763674Y-101323502D01*
X152723900Y-101523461D01*
X152723900Y-101727339D01*
X152763674Y-101927298D01*
X152841695Y-102115656D01*
X152954963Y-102285174D01*
X153023900Y-102354111D01*
X153023901Y-106757560D01*
X152921039Y-106737100D01*
X152717161Y-106737100D01*
X152517202Y-106776874D01*
X152328844Y-106854895D01*
X152159326Y-106968163D01*
X152090389Y-107037100D01*
X144170647Y-107037100D01*
X142857100Y-105723554D01*
X142857100Y-99899100D01*
X143545928Y-99899100D01*
X143545928Y-101599100D01*
X143558188Y-101723582D01*
X143594498Y-101843280D01*
X143653463Y-101953594D01*
X143732815Y-102050285D01*
X143829506Y-102129637D01*
X143939820Y-102188602D01*
X144059518Y-102224912D01*
X144184000Y-102237172D01*
X145884000Y-102237172D01*
X146008482Y-102224912D01*
X146128180Y-102188602D01*
X146238494Y-102129637D01*
X146335185Y-102050285D01*
X146414537Y-101953594D01*
X146473502Y-101843280D01*
X146509812Y-101723582D01*
X146522072Y-101599100D01*
X146522072Y-101559100D01*
X147508812Y-101559100D01*
X147548600Y-101563019D01*
X147588388Y-101559100D01*
X147588391Y-101559100D01*
X147707388Y-101547380D01*
X147860073Y-101501063D01*
X148000789Y-101425849D01*
X148124128Y-101324628D01*
X148149500Y-101293712D01*
X150906713Y-98536500D01*
X153120900Y-98536500D01*
X153201118Y-98590100D01*
X153111826Y-98649763D01*
X152967663Y-98793926D01*
X152854395Y-98963444D01*
X152776374Y-99151802D01*
X152736600Y-99351761D01*
X152736600Y-99555639D01*
X152776374Y-99755598D01*
X152854395Y-99943956D01*
X152967663Y-100113474D01*
X153111826Y-100257637D01*
X153281344Y-100370905D01*
X153469702Y-100448926D01*
X153669661Y-100488700D01*
X153873539Y-100488700D01*
X154073498Y-100448926D01*
X154261856Y-100370905D01*
X154431374Y-100257637D01*
X154450311Y-100238700D01*
X161208189Y-100238700D01*
X161265226Y-100295737D01*
X161434744Y-100409005D01*
X161623102Y-100487026D01*
X161761372Y-100514529D01*
X162714258Y-101467416D01*
X162738836Y-101497364D01*
X162768784Y-101521942D01*
X162768787Y-101521945D01*
X162798159Y-101546050D01*
X162858367Y-101595462D01*
X162994740Y-101668354D01*
X163105455Y-101701939D01*
X163142712Y-101713241D01*
X163157090Y-101714657D01*
X163258039Y-101724600D01*
X163258046Y-101724600D01*
X163296599Y-101728397D01*
X163335152Y-101724600D01*
X171206528Y-101724600D01*
X171206528Y-101789600D01*
X171218788Y-101914082D01*
X171255098Y-102033780D01*
X171314063Y-102144094D01*
X171393415Y-102240785D01*
X171490106Y-102320137D01*
X171600420Y-102379102D01*
X171720118Y-102415412D01*
X171844600Y-102427672D01*
X173544600Y-102427672D01*
X173669082Y-102415412D01*
X173788780Y-102379102D01*
X173899094Y-102320137D01*
X173995785Y-102240785D01*
X174075137Y-102144094D01*
X174134102Y-102033780D01*
X174170412Y-101914082D01*
X174182672Y-101789600D01*
X174182672Y-100089600D01*
X174170412Y-99965118D01*
X174134102Y-99845420D01*
X174075137Y-99735106D01*
X173995785Y-99638415D01*
X173899094Y-99559063D01*
X173788780Y-99500098D01*
X173708134Y-99475634D01*
X173792188Y-99399869D01*
X173966241Y-99166520D01*
X174091425Y-98903699D01*
X174136076Y-98756490D01*
X174014755Y-98526600D01*
X172821600Y-98526600D01*
X172821600Y-98546600D01*
X172567600Y-98546600D01*
X172567600Y-98526600D01*
X171374445Y-98526600D01*
X171253124Y-98756490D01*
X171297775Y-98903699D01*
X171422959Y-99166520D01*
X171597012Y-99399869D01*
X171681066Y-99475634D01*
X171600420Y-99500098D01*
X171490106Y-99559063D01*
X171393415Y-99638415D01*
X171314063Y-99735106D01*
X171255098Y-99845420D01*
X171218788Y-99965118D01*
X171206528Y-100089600D01*
X171206528Y-100154600D01*
X163621758Y-100154600D01*
X162960000Y-99492843D01*
X162960000Y-99389861D01*
X162920226Y-99189902D01*
X162842205Y-99001544D01*
X162728937Y-98832026D01*
X162584774Y-98687863D01*
X162415256Y-98574595D01*
X162226898Y-98496574D01*
X162026939Y-98456800D01*
X161823061Y-98456800D01*
X161623102Y-98496574D01*
X161434744Y-98574595D01*
X161293906Y-98668700D01*
X154450311Y-98668700D01*
X154431374Y-98649763D01*
X154342082Y-98590100D01*
X154431374Y-98530437D01*
X154575537Y-98386274D01*
X154688805Y-98216756D01*
X154760897Y-98042710D01*
X171253124Y-98042710D01*
X171374445Y-98272600D01*
X172567600Y-98272600D01*
X172567600Y-97078786D01*
X172821600Y-97078786D01*
X172821600Y-98272600D01*
X174014755Y-98272600D01*
X174136076Y-98042710D01*
X174091425Y-97895501D01*
X173966241Y-97632680D01*
X173792188Y-97399331D01*
X173575955Y-97204422D01*
X173325852Y-97055443D01*
X173051491Y-96958119D01*
X172821600Y-97078786D01*
X172567600Y-97078786D01*
X172337709Y-96958119D01*
X172063348Y-97055443D01*
X171813245Y-97204422D01*
X171597012Y-97399331D01*
X171422959Y-97632680D01*
X171297775Y-97895501D01*
X171253124Y-98042710D01*
X154760897Y-98042710D01*
X154766826Y-98028398D01*
X154806600Y-97828439D01*
X154806600Y-97624561D01*
X154766826Y-97424602D01*
X154688805Y-97236244D01*
X154575537Y-97066726D01*
X154431374Y-96922563D01*
X154261856Y-96809295D01*
X154073498Y-96731274D01*
X153873539Y-96691500D01*
X153669661Y-96691500D01*
X153469702Y-96731274D01*
X153281344Y-96809295D01*
X153120900Y-96916500D01*
X150610988Y-96916500D01*
X150571200Y-96912581D01*
X150531412Y-96916500D01*
X150531409Y-96916500D01*
X150412412Y-96928220D01*
X150259727Y-96974537D01*
X150194224Y-97009549D01*
X150119010Y-97049751D01*
X150054996Y-97102286D01*
X149995672Y-97150972D01*
X149970305Y-97181882D01*
X147213088Y-99939100D01*
X146522072Y-99939100D01*
X146522072Y-99899100D01*
X146509812Y-99774618D01*
X146473502Y-99654920D01*
X146414537Y-99544606D01*
X146335185Y-99447915D01*
X146238494Y-99368563D01*
X146128180Y-99309598D01*
X146047534Y-99285134D01*
X146131588Y-99209369D01*
X146305641Y-98976020D01*
X146430825Y-98713199D01*
X146475476Y-98565990D01*
X146354155Y-98336100D01*
X145161000Y-98336100D01*
X145161000Y-98356100D01*
X144907000Y-98356100D01*
X144907000Y-98336100D01*
X143713845Y-98336100D01*
X143592524Y-98565990D01*
X143637175Y-98713199D01*
X143762359Y-98976020D01*
X143936412Y-99209369D01*
X144020466Y-99285134D01*
X143939820Y-99309598D01*
X143829506Y-99368563D01*
X143732815Y-99447915D01*
X143653463Y-99544606D01*
X143594498Y-99654920D01*
X143558188Y-99774618D01*
X143545928Y-99899100D01*
X142857100Y-99899100D01*
X142857100Y-97852210D01*
X143592524Y-97852210D01*
X143713845Y-98082100D01*
X144907000Y-98082100D01*
X144907000Y-96888286D01*
X145161000Y-96888286D01*
X145161000Y-98082100D01*
X146354155Y-98082100D01*
X146475476Y-97852210D01*
X146430825Y-97705001D01*
X146305641Y-97442180D01*
X146131588Y-97208831D01*
X145915355Y-97013922D01*
X145665252Y-96864943D01*
X145390891Y-96767619D01*
X145161000Y-96888286D01*
X144907000Y-96888286D01*
X144677109Y-96767619D01*
X144402748Y-96864943D01*
X144152645Y-97013922D01*
X143936412Y-97208831D01*
X143762359Y-97442180D01*
X143637175Y-97705001D01*
X143592524Y-97852210D01*
X142857100Y-97852210D01*
X142857100Y-93650700D01*
X143596728Y-93650700D01*
X143596728Y-95350700D01*
X143608988Y-95475182D01*
X143645298Y-95594880D01*
X143704263Y-95705194D01*
X143783615Y-95801885D01*
X143880306Y-95881237D01*
X143990620Y-95940202D01*
X144110318Y-95976512D01*
X144234800Y-95988772D01*
X145934800Y-95988772D01*
X146059282Y-95976512D01*
X146178980Y-95940202D01*
X146289294Y-95881237D01*
X146385985Y-95801885D01*
X146465337Y-95705194D01*
X146524302Y-95594880D01*
X146560612Y-95475182D01*
X146572872Y-95350700D01*
X146572872Y-93917400D01*
X171168428Y-93917400D01*
X171168428Y-95617400D01*
X171180688Y-95741882D01*
X171216998Y-95861580D01*
X171275963Y-95971894D01*
X171355315Y-96068585D01*
X171452006Y-96147937D01*
X171562320Y-96206902D01*
X171682018Y-96243212D01*
X171806500Y-96255472D01*
X173506500Y-96255472D01*
X173630982Y-96243212D01*
X173750680Y-96206902D01*
X173860994Y-96147937D01*
X173957685Y-96068585D01*
X174037037Y-95971894D01*
X174096002Y-95861580D01*
X174132312Y-95741882D01*
X174144572Y-95617400D01*
X174144572Y-93917400D01*
X174132312Y-93792918D01*
X174096002Y-93673220D01*
X174037037Y-93562906D01*
X173957685Y-93466215D01*
X173860994Y-93386863D01*
X173750680Y-93327898D01*
X173678120Y-93305887D01*
X173809975Y-93174032D01*
X173972490Y-92930811D01*
X174084432Y-92660558D01*
X174141500Y-92373660D01*
X174141500Y-92081140D01*
X174084432Y-91794242D01*
X173972490Y-91523989D01*
X173809975Y-91280768D01*
X173603132Y-91073925D01*
X173428740Y-90957400D01*
X173603132Y-90840875D01*
X173809975Y-90634032D01*
X173972490Y-90390811D01*
X174084432Y-90120558D01*
X174141500Y-89833660D01*
X174141500Y-89541140D01*
X174084432Y-89254242D01*
X173972490Y-88983989D01*
X173809975Y-88740768D01*
X173603132Y-88533925D01*
X173428740Y-88417400D01*
X173603132Y-88300875D01*
X173809975Y-88094032D01*
X173972490Y-87850811D01*
X174084432Y-87580558D01*
X174141500Y-87293660D01*
X174141500Y-87001140D01*
X174084432Y-86714242D01*
X173972490Y-86443989D01*
X173809975Y-86200768D01*
X173603132Y-85993925D01*
X173359911Y-85831410D01*
X173089658Y-85719468D01*
X172802760Y-85662400D01*
X172510240Y-85662400D01*
X172223342Y-85719468D01*
X171953089Y-85831410D01*
X171709868Y-85993925D01*
X171503025Y-86200768D01*
X171340510Y-86443989D01*
X171228568Y-86714242D01*
X171171500Y-87001140D01*
X171171500Y-87293660D01*
X171228568Y-87580558D01*
X171340510Y-87850811D01*
X171503025Y-88094032D01*
X171709868Y-88300875D01*
X171884260Y-88417400D01*
X171709868Y-88533925D01*
X171503025Y-88740768D01*
X171340510Y-88983989D01*
X171228568Y-89254242D01*
X171171500Y-89541140D01*
X171171500Y-89833660D01*
X171228568Y-90120558D01*
X171340510Y-90390811D01*
X171503025Y-90634032D01*
X171709868Y-90840875D01*
X171884260Y-90957400D01*
X171709868Y-91073925D01*
X171503025Y-91280768D01*
X171340510Y-91523989D01*
X171228568Y-91794242D01*
X171171500Y-92081140D01*
X171171500Y-92373660D01*
X171228568Y-92660558D01*
X171340510Y-92930811D01*
X171503025Y-93174032D01*
X171634880Y-93305887D01*
X171562320Y-93327898D01*
X171452006Y-93386863D01*
X171355315Y-93466215D01*
X171275963Y-93562906D01*
X171216998Y-93673220D01*
X171180688Y-93792918D01*
X171168428Y-93917400D01*
X146572872Y-93917400D01*
X146572872Y-93650700D01*
X146560612Y-93526218D01*
X146524302Y-93406520D01*
X146465337Y-93296206D01*
X146385985Y-93199515D01*
X146289294Y-93120163D01*
X146178980Y-93061198D01*
X146106420Y-93039187D01*
X146238275Y-92907332D01*
X146400790Y-92664111D01*
X146512732Y-92393858D01*
X146569800Y-92106960D01*
X146569800Y-91814440D01*
X146512732Y-91527542D01*
X146400790Y-91257289D01*
X146238275Y-91014068D01*
X146031432Y-90807225D01*
X145857040Y-90690700D01*
X146031432Y-90574175D01*
X146238275Y-90367332D01*
X146400790Y-90124111D01*
X146512732Y-89853858D01*
X146569800Y-89566960D01*
X146569800Y-89274440D01*
X146512732Y-88987542D01*
X146400790Y-88717289D01*
X146238275Y-88474068D01*
X146031432Y-88267225D01*
X145857040Y-88150700D01*
X146031432Y-88034175D01*
X146238275Y-87827332D01*
X146400790Y-87584111D01*
X146512732Y-87313858D01*
X146569800Y-87026960D01*
X146569800Y-86734440D01*
X146512732Y-86447542D01*
X146400790Y-86177289D01*
X146238275Y-85934068D01*
X146031432Y-85727225D01*
X145788211Y-85564710D01*
X145517958Y-85452768D01*
X145231060Y-85395700D01*
X144938540Y-85395700D01*
X144651642Y-85452768D01*
X144381389Y-85564710D01*
X144138168Y-85727225D01*
X143931325Y-85934068D01*
X143768810Y-86177289D01*
X143656868Y-86447542D01*
X143599800Y-86734440D01*
X143599800Y-87026960D01*
X143656868Y-87313858D01*
X143768810Y-87584111D01*
X143931325Y-87827332D01*
X144138168Y-88034175D01*
X144312560Y-88150700D01*
X144138168Y-88267225D01*
X143931325Y-88474068D01*
X143768810Y-88717289D01*
X143656868Y-88987542D01*
X143599800Y-89274440D01*
X143599800Y-89566960D01*
X143656868Y-89853858D01*
X143768810Y-90124111D01*
X143931325Y-90367332D01*
X144138168Y-90574175D01*
X144312560Y-90690700D01*
X144138168Y-90807225D01*
X143931325Y-91014068D01*
X143768810Y-91257289D01*
X143656868Y-91527542D01*
X143599800Y-91814440D01*
X143599800Y-92106960D01*
X143656868Y-92393858D01*
X143768810Y-92664111D01*
X143931325Y-92907332D01*
X144063180Y-93039187D01*
X143990620Y-93061198D01*
X143880306Y-93120163D01*
X143783615Y-93199515D01*
X143704263Y-93296206D01*
X143645298Y-93406520D01*
X143608988Y-93526218D01*
X143596728Y-93650700D01*
X142857100Y-93650700D01*
X142857100Y-84828050D01*
X147785545Y-84828050D01*
X147821650Y-84831606D01*
X147857755Y-84828050D01*
X147965735Y-84817415D01*
X148104283Y-84775387D01*
X148231970Y-84707137D01*
X148343888Y-84615288D01*
X148366909Y-84587237D01*
X151394746Y-81559400D01*
X154517828Y-81559400D01*
X154530088Y-81683882D01*
X154566398Y-81803580D01*
X154625363Y-81913894D01*
X154704715Y-82010585D01*
X154801406Y-82089937D01*
X154911720Y-82148902D01*
X155031418Y-82185212D01*
X155155900Y-82197472D01*
X156076650Y-82194400D01*
X156235400Y-82035650D01*
X156235400Y-79146400D01*
X156489400Y-79146400D01*
X156489400Y-82035650D01*
X156648150Y-82194400D01*
X157568900Y-82197472D01*
X157693382Y-82185212D01*
X157813080Y-82148902D01*
X157923394Y-82089937D01*
X158020085Y-82010585D01*
X158099437Y-81913894D01*
X158158402Y-81803580D01*
X158194712Y-81683882D01*
X158206972Y-81559400D01*
X159724828Y-81559400D01*
X159737088Y-81683882D01*
X159773398Y-81803580D01*
X159832363Y-81913894D01*
X159911715Y-82010585D01*
X160008406Y-82089937D01*
X160118720Y-82148902D01*
X160238418Y-82185212D01*
X160362900Y-82197472D01*
X161283650Y-82194400D01*
X161442400Y-82035650D01*
X161442400Y-79146400D01*
X161696400Y-79146400D01*
X161696400Y-82035650D01*
X161855150Y-82194400D01*
X162775900Y-82197472D01*
X162900382Y-82185212D01*
X163020080Y-82148902D01*
X163130394Y-82089937D01*
X163227085Y-82010585D01*
X163306437Y-81913894D01*
X163365402Y-81803580D01*
X163401712Y-81683882D01*
X163413972Y-81559400D01*
X163410900Y-79305150D01*
X163252150Y-79146400D01*
X161696400Y-79146400D01*
X161442400Y-79146400D01*
X159886650Y-79146400D01*
X159727900Y-79305150D01*
X159724828Y-81559400D01*
X158206972Y-81559400D01*
X158203900Y-79305150D01*
X158045150Y-79146400D01*
X156489400Y-79146400D01*
X156235400Y-79146400D01*
X154679650Y-79146400D01*
X154520900Y-79305150D01*
X154517828Y-81559400D01*
X151394746Y-81559400D01*
X151883747Y-81070400D01*
X152057439Y-81070400D01*
X152257398Y-81030626D01*
X152445756Y-80952605D01*
X152615274Y-80839337D01*
X152759437Y-80695174D01*
X152872705Y-80525656D01*
X152950726Y-80337298D01*
X152990500Y-80137339D01*
X152990500Y-79933461D01*
X152950726Y-79733502D01*
X152878507Y-79559150D01*
X152950726Y-79384798D01*
X152990500Y-79184839D01*
X152990500Y-78980961D01*
X152950726Y-78781002D01*
X152872705Y-78592644D01*
X152759437Y-78423126D01*
X152615274Y-78278963D01*
X152445756Y-78165695D01*
X152257398Y-78087674D01*
X152057439Y-78047900D01*
X151853561Y-78047900D01*
X151653602Y-78087674D01*
X151465244Y-78165695D01*
X151295726Y-78278963D01*
X151151563Y-78423126D01*
X151038295Y-78592644D01*
X150960274Y-78781002D01*
X150920500Y-78980961D01*
X150920500Y-79184839D01*
X150960274Y-79384798D01*
X151032493Y-79559150D01*
X150960274Y-79733502D01*
X150920500Y-79933461D01*
X150920500Y-79954753D01*
X149443798Y-81431456D01*
X149440900Y-79305150D01*
X149282150Y-79146400D01*
X147726400Y-79146400D01*
X147726400Y-82035650D01*
X147885150Y-82194400D01*
X148678208Y-82197046D01*
X147517204Y-83358050D01*
X142561844Y-83358050D01*
X142525749Y-83354495D01*
X142489654Y-83358050D01*
X142489645Y-83358050D01*
X142381665Y-83368685D01*
X142243117Y-83410713D01*
X142115430Y-83478963D01*
X142003512Y-83570812D01*
X141980491Y-83598863D01*
X141903450Y-83675904D01*
X141794659Y-83567113D01*
X141771638Y-83539062D01*
X141659720Y-83447213D01*
X141532033Y-83378963D01*
X141393485Y-83336935D01*
X141285505Y-83326300D01*
X141249400Y-83322744D01*
X141213295Y-83326300D01*
X138988447Y-83326300D01*
X138809400Y-83147254D01*
X138809400Y-81610200D01*
X140598628Y-81610200D01*
X140610888Y-81734682D01*
X140647198Y-81854380D01*
X140706163Y-81964694D01*
X140785515Y-82061385D01*
X140882206Y-82140737D01*
X140992520Y-82199702D01*
X141112218Y-82236012D01*
X141236700Y-82248272D01*
X142157450Y-82245200D01*
X142316200Y-82086450D01*
X142316200Y-79197200D01*
X142570200Y-79197200D01*
X142570200Y-82086450D01*
X142728950Y-82245200D01*
X143649700Y-82248272D01*
X143774182Y-82236012D01*
X143893880Y-82199702D01*
X144004194Y-82140737D01*
X144100885Y-82061385D01*
X144180237Y-81964694D01*
X144239202Y-81854380D01*
X144275512Y-81734682D01*
X144287772Y-81610200D01*
X144287703Y-81559400D01*
X145754828Y-81559400D01*
X145767088Y-81683882D01*
X145803398Y-81803580D01*
X145862363Y-81913894D01*
X145941715Y-82010585D01*
X146038406Y-82089937D01*
X146148720Y-82148902D01*
X146268418Y-82185212D01*
X146392900Y-82197472D01*
X147313650Y-82194400D01*
X147472400Y-82035650D01*
X147472400Y-79146400D01*
X145916650Y-79146400D01*
X145757900Y-79305150D01*
X145754828Y-81559400D01*
X144287703Y-81559400D01*
X144284700Y-79355950D01*
X144125950Y-79197200D01*
X142570200Y-79197200D01*
X142316200Y-79197200D01*
X140760450Y-79197200D01*
X140601700Y-79355950D01*
X140598628Y-81610200D01*
X138809400Y-81610200D01*
X138809400Y-80853011D01*
X138878337Y-80784074D01*
X138991605Y-80614556D01*
X139069626Y-80426198D01*
X139109400Y-80226239D01*
X139109400Y-80022361D01*
X139069626Y-79822402D01*
X138991605Y-79634044D01*
X138983992Y-79622650D01*
X138991605Y-79611256D01*
X139069626Y-79422898D01*
X139109400Y-79222939D01*
X139109400Y-79019061D01*
X139069626Y-78819102D01*
X138991605Y-78630744D01*
X138878337Y-78461226D01*
X138734174Y-78317063D01*
X138564656Y-78203795D01*
X138376298Y-78125774D01*
X138176339Y-78086000D01*
X137972461Y-78086000D01*
X137772502Y-78125774D01*
X137584144Y-78203795D01*
X137414626Y-78317063D01*
X137270463Y-78461226D01*
X137157195Y-78630744D01*
X137079174Y-78819102D01*
X137039400Y-79019061D01*
X137039400Y-79222939D01*
X137079174Y-79422898D01*
X137157195Y-79611256D01*
X137164808Y-79622650D01*
X137157195Y-79634044D01*
X137079174Y-79822402D01*
X137039400Y-80022361D01*
X137039400Y-80226239D01*
X137079174Y-80426198D01*
X137157195Y-80614556D01*
X137270463Y-80784074D01*
X137339401Y-80853012D01*
X137339400Y-83415595D01*
X137335844Y-83451700D01*
X137350035Y-83595785D01*
X137362784Y-83637813D01*
X137392063Y-83734332D01*
X137460313Y-83862019D01*
X137552162Y-83973937D01*
X137580208Y-83996954D01*
X138138746Y-84555493D01*
X138161762Y-84583538D01*
X138254612Y-84659738D01*
X138273680Y-84675387D01*
X138401366Y-84743637D01*
X138539915Y-84785665D01*
X138684000Y-84799856D01*
X138720105Y-84796300D01*
X140937101Y-84796300D01*
X140937100Y-106178295D01*
X140933544Y-106214400D01*
X140947735Y-106358485D01*
X140960484Y-106400513D01*
X140989763Y-106497032D01*
X141058013Y-106624719D01*
X141149862Y-106736637D01*
X141177908Y-106759654D01*
X143103746Y-108685493D01*
X143126762Y-108713538D01*
X143238680Y-108805387D01*
X143366367Y-108873637D01*
X143504915Y-108915665D01*
X143649000Y-108929856D01*
X143685105Y-108926300D01*
X151897852Y-108926300D01*
X151999939Y-109028387D01*
X152022960Y-109056438D01*
X152082708Y-109105472D01*
X116230258Y-109068549D01*
X116235027Y-96464972D01*
X116992600Y-96464972D01*
X116992600Y-96905228D01*
X117078490Y-97337025D01*
X117246969Y-97743769D01*
X117491562Y-98109829D01*
X117802871Y-98421138D01*
X118168931Y-98665731D01*
X118575675Y-98834210D01*
X119007472Y-98920100D01*
X119447728Y-98920100D01*
X119879525Y-98834210D01*
X120286269Y-98665731D01*
X120652329Y-98421138D01*
X120963638Y-98109829D01*
X121208231Y-97743769D01*
X121376710Y-97337025D01*
X121462600Y-96905228D01*
X121462600Y-96464972D01*
X121376710Y-96033175D01*
X121208231Y-95626431D01*
X120963638Y-95260371D01*
X120652329Y-94949062D01*
X120286269Y-94704469D01*
X119879525Y-94535990D01*
X119447728Y-94450100D01*
X119007472Y-94450100D01*
X118575675Y-94535990D01*
X118168931Y-94704469D01*
X117802871Y-94949062D01*
X117491562Y-95260371D01*
X117246969Y-95626431D01*
X117078490Y-96033175D01*
X116992600Y-96464972D01*
X116235027Y-96464972D01*
X116240647Y-81610200D01*
X131835628Y-81610200D01*
X131847888Y-81734682D01*
X131884198Y-81854380D01*
X131943163Y-81964694D01*
X132022515Y-82061385D01*
X132119206Y-82140737D01*
X132229520Y-82199702D01*
X132349218Y-82236012D01*
X132473700Y-82248272D01*
X133394450Y-82245200D01*
X133553200Y-82086450D01*
X133553200Y-79197200D01*
X133807200Y-79197200D01*
X133807200Y-82086450D01*
X133965950Y-82245200D01*
X134886700Y-82248272D01*
X135011182Y-82236012D01*
X135130880Y-82199702D01*
X135241194Y-82140737D01*
X135337885Y-82061385D01*
X135417237Y-81964694D01*
X135476202Y-81854380D01*
X135512512Y-81734682D01*
X135524772Y-81610200D01*
X135521700Y-79355950D01*
X135362950Y-79197200D01*
X133807200Y-79197200D01*
X133553200Y-79197200D01*
X131997450Y-79197200D01*
X131838700Y-79355950D01*
X131835628Y-81610200D01*
X116240647Y-81610200D01*
X116242450Y-76847784D01*
X131836076Y-76859252D01*
G37*
%TD.AperFunction*%
%TD*%
M02*
